%TF.GenerationSoftware,KiCad,Pcbnew,9.0.8-9.0.8~ubuntu24.04.1*%
%TF.CreationDate,2026-03-23T18:39:47-06:00*%
%TF.ProjectId,Neo486FPGA,4e656f34-3836-4465-9047-412e6b696361,rev?*%
%TF.SameCoordinates,Original*%
%TF.FileFunction,Soldermask,Bot*%
%TF.FilePolarity,Negative*%
%FSLAX46Y46*%
G04 Gerber Fmt 4.6, Leading zero omitted, Abs format (unit mm)*
G04 Created by KiCad (PCBNEW 9.0.8-9.0.8~ubuntu24.04.1) date 2026-03-23 18:39:47*
%MOMM*%
%LPD*%
G01*
G04 APERTURE LIST*
G04 Aperture macros list*
%AMRoundRect*
0 Rectangle with rounded corners*
0 $1 Rounding radius*
0 $2 $3 $4 $5 $6 $7 $8 $9 X,Y pos of 4 corners*
0 Add a 4 corners polygon primitive as box body*
4,1,4,$2,$3,$4,$5,$6,$7,$8,$9,$2,$3,0*
0 Add four circle primitives for the rounded corners*
1,1,$1+$1,$2,$3*
1,1,$1+$1,$4,$5*
1,1,$1+$1,$6,$7*
1,1,$1+$1,$8,$9*
0 Add four rect primitives between the rounded corners*
20,1,$1+$1,$2,$3,$4,$5,0*
20,1,$1+$1,$4,$5,$6,$7,0*
20,1,$1+$1,$6,$7,$8,$9,0*
20,1,$1+$1,$8,$9,$2,$3,0*%
G04 Aperture macros list end*
%ADD10C,4.700000*%
%ADD11R,1.600000X1.500000*%
%ADD12C,1.600000*%
%ADD13C,3.000000*%
%ADD14R,0.800000X1.500000*%
%ADD15R,1.450000X2.000000*%
%ADD16R,1.700000X1.700000*%
%ADD17C,1.700000*%
%ADD18RoundRect,0.244000X0.269000X-0.244000X0.269000X0.244000X-0.269000X0.244000X-0.269000X-0.244000X0*%
%ADD19RoundRect,0.244000X0.244000X0.269000X-0.244000X0.269000X-0.244000X-0.269000X0.244000X-0.269000X0*%
G04 APERTURE END LIST*
D10*
%TO.C,H4*%
X154940000Y-38100000D03*
%TD*%
%TO.C,H3*%
X154940000Y-85090000D03*
%TD*%
%TO.C,H2*%
X55880000Y-38100000D03*
%TD*%
%TO.C,H1*%
X55880000Y-85090000D03*
%TD*%
D11*
%TO.C,J10*%
X140422800Y-39260600D03*
D12*
X137922800Y-39260600D03*
X135922800Y-39260600D03*
X133422800Y-39260600D03*
D13*
X143492800Y-36550600D03*
X130352800Y-36550600D03*
%TD*%
D14*
%TO.C,J9*%
X106899800Y-37048200D03*
X105799800Y-37048200D03*
X104699800Y-37048200D03*
X103599800Y-37048200D03*
X102499800Y-37048200D03*
X101399800Y-37048200D03*
X100299800Y-37048200D03*
X99199800Y-37048200D03*
D15*
X110574800Y-34448200D03*
X110574800Y-42748200D03*
X96824800Y-34448200D03*
X96824800Y-42748200D03*
%TD*%
D16*
%TO.C,J8*%
X115113000Y-86765000D03*
D17*
X117653000Y-86765000D03*
X120193000Y-86765000D03*
X122733000Y-86765000D03*
X125273000Y-86765000D03*
X127813000Y-86765000D03*
X130353000Y-86765000D03*
X132893000Y-86765000D03*
%TD*%
D16*
%TO.C,J7*%
X132692000Y-77613000D03*
D17*
X130152000Y-77613000D03*
X127612000Y-77613000D03*
X125072000Y-77613000D03*
X122532000Y-77613000D03*
X119992000Y-77613000D03*
X117452000Y-77613000D03*
X114912000Y-77613000D03*
%TD*%
D18*
%TO.C,C16*%
X68828000Y-71066000D03*
X68828000Y-69506000D03*
%TD*%
%TO.C,C15*%
X85100000Y-79962000D03*
X85100000Y-78402000D03*
%TD*%
%TO.C,C14*%
X97716000Y-67262000D03*
X97716000Y-65702000D03*
%TD*%
D19*
%TO.C,C13*%
X88014000Y-55332000D03*
X86454000Y-55332000D03*
%TD*%
D18*
%TO.C,C10*%
X112728449Y-55650382D03*
X112728449Y-54090382D03*
%TD*%
D19*
%TO.C,C11*%
X115526000Y-58869000D03*
X113966000Y-58869000D03*
%TD*%
M02*
