%TF.GenerationSoftware,KiCad,Pcbnew,9.0.8-9.0.8~ubuntu24.04.1*%
%TF.CreationDate,2026-03-23T18:39:46-06:00*%
%TF.ProjectId,Neo486FPGA,4e656f34-3836-4465-9047-412e6b696361,rev?*%
%TF.SameCoordinates,Original*%
%TF.FileFunction,Copper,L4,Bot*%
%TF.FilePolarity,Positive*%
%FSLAX46Y46*%
G04 Gerber Fmt 4.6, Leading zero omitted, Abs format (unit mm)*
G04 Created by KiCad (PCBNEW 9.0.8-9.0.8~ubuntu24.04.1) date 2026-03-23 18:39:46*
%MOMM*%
%LPD*%
G01*
G04 APERTURE LIST*
G04 Aperture macros list*
%AMRoundRect*
0 Rectangle with rounded corners*
0 $1 Rounding radius*
0 $2 $3 $4 $5 $6 $7 $8 $9 X,Y pos of 4 corners*
0 Add a 4 corners polygon primitive as box body*
4,1,4,$2,$3,$4,$5,$6,$7,$8,$9,$2,$3,0*
0 Add four circle primitives for the rounded corners*
1,1,$1+$1,$2,$3*
1,1,$1+$1,$4,$5*
1,1,$1+$1,$6,$7*
1,1,$1+$1,$8,$9*
0 Add four rect primitives between the rounded corners*
20,1,$1+$1,$2,$3,$4,$5,0*
20,1,$1+$1,$4,$5,$6,$7,0*
20,1,$1+$1,$6,$7,$8,$9,0*
20,1,$1+$1,$8,$9,$2,$3,0*%
G04 Aperture macros list end*
%TA.AperFunction,ComponentPad*%
%ADD10C,4.700000*%
%TD*%
%TA.AperFunction,ComponentPad*%
%ADD11R,1.600000X1.500000*%
%TD*%
%TA.AperFunction,ComponentPad*%
%ADD12C,1.600000*%
%TD*%
%TA.AperFunction,ComponentPad*%
%ADD13C,3.000000*%
%TD*%
%TA.AperFunction,SMDPad,CuDef*%
%ADD14R,0.800000X1.500000*%
%TD*%
%TA.AperFunction,SMDPad,CuDef*%
%ADD15R,1.450000X2.000000*%
%TD*%
%TA.AperFunction,ComponentPad*%
%ADD16R,1.700000X1.700000*%
%TD*%
%TA.AperFunction,ComponentPad*%
%ADD17C,1.700000*%
%TD*%
%TA.AperFunction,SMDPad,CuDef*%
%ADD18RoundRect,0.225000X0.250000X-0.225000X0.250000X0.225000X-0.250000X0.225000X-0.250000X-0.225000X0*%
%TD*%
%TA.AperFunction,SMDPad,CuDef*%
%ADD19RoundRect,0.225000X0.225000X0.250000X-0.225000X0.250000X-0.225000X-0.250000X0.225000X-0.250000X0*%
%TD*%
%TA.AperFunction,ViaPad*%
%ADD20C,0.508000*%
%TD*%
%TA.AperFunction,ViaPad*%
%ADD21C,0.405000*%
%TD*%
%TA.AperFunction,ViaPad*%
%ADD22C,0.600000*%
%TD*%
%TA.AperFunction,Conductor*%
%ADD23C,0.139700*%
%TD*%
%TA.AperFunction,Conductor*%
%ADD24C,0.254000*%
%TD*%
G04 APERTURE END LIST*
D10*
%TO.P,H4,1*%
%TO.N,N/C*%
X154940000Y-38100000D03*
%TD*%
%TO.P,H3,1*%
%TO.N,N/C*%
X154940000Y-85090000D03*
%TD*%
%TO.P,H2,1*%
%TO.N,N/C*%
X55880000Y-38100000D03*
%TD*%
%TO.P,H1,1*%
%TO.N,N/C*%
X55880000Y-85090000D03*
%TD*%
D11*
%TO.P,J10,1,VBUS*%
%TO.N,unconnected-(J10-VBUS-Pad1)*%
X140422800Y-39260600D03*
D12*
%TO.P,J10,2,D-*%
%TO.N,Net-(J10-D-)*%
X137922800Y-39260600D03*
%TO.P,J10,3,D+*%
%TO.N,Net-(J10-D+)*%
X135922800Y-39260600D03*
%TO.P,J10,4,GND*%
%TO.N,GND*%
X133422800Y-39260600D03*
D13*
%TO.P,J10,5,Shield*%
X143492800Y-36550600D03*
X130352800Y-36550600D03*
%TD*%
D14*
%TO.P,J9,1,DAT2*%
%TO.N,/SD_DAT2*%
X106899800Y-37048200D03*
%TO.P,J9,2,DAT3/CD*%
%TO.N,/SD_DAT3*%
X105799800Y-37048200D03*
%TO.P,J9,3,CMD*%
%TO.N,/SD_CMD*%
X104699800Y-37048200D03*
%TO.P,J9,4,VDD*%
%TO.N,VCC*%
X103599800Y-37048200D03*
%TO.P,J9,5,CLK*%
%TO.N,/SD_CLK*%
X102499800Y-37048200D03*
%TO.P,J9,6,VSS*%
%TO.N,GND*%
X101399800Y-37048200D03*
%TO.P,J9,7,DAT0*%
%TO.N,/SD_DAT0*%
X100299800Y-37048200D03*
%TO.P,J9,8,DAT1*%
%TO.N,/SD_DAT1*%
X99199800Y-37048200D03*
D15*
%TO.P,J9,9,SHIELD*%
%TO.N,GND*%
X110574800Y-34448200D03*
X110574800Y-42748200D03*
X96824800Y-34448200D03*
X96824800Y-42748200D03*
%TD*%
D16*
%TO.P,J8,1,Pin_1*%
%TO.N,/INIT*%
X115113000Y-86765000D03*
D17*
%TO.P,J8,2,Pin_2*%
%TO.N,/CCLK*%
X117653000Y-86765000D03*
%TO.P,J8,3,Pin_3*%
%TO.N,/PROGRAM*%
X120193000Y-86765000D03*
%TO.P,J8,4,Pin_4*%
%TO.N,unconnected-(J8-Pin_4-Pad4)*%
X122733000Y-86765000D03*
%TO.P,J8,5,Pin_5*%
%TO.N,/UART_RX*%
X125273000Y-86765000D03*
%TO.P,J8,6,Pin_6*%
%TO.N,/UART_TX*%
X127813000Y-86765000D03*
%TO.P,J8,7,Pin_7*%
%TO.N,GND*%
X130353000Y-86765000D03*
%TO.P,J8,8,Pin_8*%
%TO.N,VCC*%
X132893000Y-86765000D03*
%TD*%
D16*
%TO.P,J7,1,Pin_1*%
%TO.N,VCC*%
X132692000Y-77613000D03*
D17*
%TO.P,J7,2,Pin_2*%
%TO.N,GND*%
X130152000Y-77613000D03*
%TO.P,J7,3,Pin_3*%
%TO.N,/TDO*%
X127612000Y-77613000D03*
%TO.P,J7,4,Pin_4*%
%TO.N,/TCK*%
X125072000Y-77613000D03*
%TO.P,J7,5,Pin_5*%
%TO.N,/TDI*%
X122532000Y-77613000D03*
%TO.P,J7,6,Pin_6*%
%TO.N,/TMS*%
X119992000Y-77613000D03*
%TO.P,J7,7,Pin_7*%
%TO.N,/DONE*%
X117452000Y-77613000D03*
%TO.P,J7,8,Pin_8*%
%TO.N,unconnected-(J7-Pin_8-Pad8)*%
X114912000Y-77613000D03*
%TD*%
D18*
%TO.P,C16,1*%
%TO.N,VCC*%
X68828000Y-71066000D03*
%TO.P,C16,2*%
%TO.N,GND*%
X68828000Y-69506000D03*
%TD*%
%TO.P,C15,1*%
%TO.N,VCC*%
X85100000Y-79962000D03*
%TO.P,C15,2*%
%TO.N,GND*%
X85100000Y-78402000D03*
%TD*%
%TO.P,C14,1*%
%TO.N,VCC*%
X97716000Y-67262000D03*
%TO.P,C14,2*%
%TO.N,GND*%
X97716000Y-65702000D03*
%TD*%
D19*
%TO.P,C13,1*%
%TO.N,VCC*%
X88014000Y-55332000D03*
%TO.P,C13,2*%
%TO.N,GND*%
X86454000Y-55332000D03*
%TD*%
D18*
%TO.P,C10,1*%
%TO.N,+1V2*%
X112728449Y-55650382D03*
%TO.P,C10,2*%
%TO.N,GND*%
X112728449Y-54090382D03*
%TD*%
D19*
%TO.P,C11,1*%
%TO.N,+1V2*%
X115526000Y-58869000D03*
%TO.P,C11,2*%
%TO.N,GND*%
X113966000Y-58869000D03*
%TD*%
D20*
%TO.N,/~{USB_RST}*%
X121809000Y-41481000D03*
%TO.N,GND*%
X127773000Y-41786000D03*
D21*
%TO.N,VCC*%
X137159000Y-86428000D03*
X146921000Y-86416000D03*
%TO.N,/LED2*%
X125832000Y-57766000D03*
X118054000Y-56937000D03*
%TO.N,/LED1*%
X124395000Y-57809000D03*
X118821000Y-57707000D03*
D22*
%TO.N,GND*%
X128778000Y-69723000D03*
%TO.N,VCC*%
X103606600Y-35433000D03*
X103606600Y-38608000D03*
%TO.N,GND*%
X112293400Y-42722800D03*
X112115600Y-34493200D03*
X94894400Y-34493200D03*
D21*
X95199200Y-42748200D03*
%TO.N,/SD_DAT2*%
X113080800Y-51282600D03*
X108613848Y-40948584D03*
%TO.N,/SD_DAT3*%
X113055400Y-52705000D03*
X108585000Y-41554400D03*
%TO.N,/SD_CMD*%
X112268000Y-52832000D03*
X108572115Y-42292973D03*
%TO.N,/SD_CLK*%
X111455200Y-52832000D03*
X108864400Y-42824400D03*
%TO.N,/SD_DAT1*%
X107721400Y-43815000D03*
%TO.N,/SD_DAT0*%
X108585000Y-43815000D03*
%TO.N,/~{BOFF}*%
X110439200Y-49276000D03*
%TO.N,/SD_DAT1*%
X111455200Y-51231800D03*
%TO.N,/SD_DAT0*%
X111455200Y-52044600D03*
D20*
%TO.N,VCC*%
X118110000Y-40335200D03*
%TO.N,/CLK_50M*%
X116332000Y-42621200D03*
D21*
X117906800Y-55016400D03*
D22*
%TO.N,GND*%
X105308400Y-59690000D03*
X107137200Y-68122800D03*
X82960600Y-88694600D03*
%TO.N,/DP3*%
X91948000Y-84480400D03*
X84840200Y-88796200D03*
%TO.N,GND*%
X106730800Y-74218800D03*
D20*
%TO.N,VCC*%
X117856000Y-35410000D03*
%TO.N,GND*%
X126742000Y-39495000D03*
D21*
%TO.N,/INIT*%
X116887000Y-74728000D03*
%TO.N,/PROGRAM*%
X117576000Y-74959000D03*
%TO.N,/TCK*%
X114975000Y-65886000D03*
%TO.N,/PROGRAM*%
X115391000Y-64221000D03*
%TO.N,/INIT*%
X115231000Y-63453000D03*
%TO.N,/DONE*%
X118461966Y-73359992D03*
%TO.N,/TDO*%
X119008000Y-73096000D03*
%TO.N,/TDI*%
X120249000Y-72609000D03*
X117193320Y-64638089D03*
%TO.N,/TMS*%
X119662000Y-72976000D03*
X116627000Y-64421000D03*
%TO.N,/D13*%
X114331500Y-64830500D03*
X114670000Y-60671000D03*
%TO.N,/D15*%
X113449000Y-66666000D03*
X113930000Y-60655000D03*
%TO.N,/DONE*%
X116042000Y-60516000D03*
%TO.N,/CCLK*%
X115451000Y-59896000D03*
%TO.N,/TDO*%
X116939000Y-58404000D03*
D20*
%TO.N,/~{USB_RST}*%
X118444000Y-41283000D03*
D21*
X113895000Y-51256000D03*
D20*
%TO.N,VCC*%
X124751000Y-44653000D03*
D21*
%TO.N,GND*%
X120508000Y-43476000D03*
X120471000Y-45430000D03*
X122521000Y-43435000D03*
X122485000Y-45435000D03*
D20*
%TO.N,/USB_DIR*%
X119292000Y-41450000D03*
D21*
X114700000Y-51289000D03*
D20*
%TO.N,/USB_STP*%
X120733000Y-41265000D03*
D21*
X120954000Y-48224000D03*
%TO.N,/USB_D5*%
X118375000Y-51325000D03*
X119367000Y-48202000D03*
%TO.N,/USB_D2*%
X118139000Y-48569000D03*
X117728000Y-51221000D03*
%TO.N,/USB_NXT*%
X116819000Y-48564000D03*
X116849000Y-51263000D03*
D20*
%TO.N,/USB_REFCLK*%
X122460000Y-41213000D03*
D21*
X115417000Y-51190000D03*
%TO.N,VCC*%
X70121000Y-46168000D03*
%TO.N,GND*%
X155378000Y-45130000D03*
%TO.N,VCC*%
X140738000Y-78924000D03*
%TO.N,GND*%
X117123000Y-81762000D03*
X66852800Y-43637200D03*
%TO.N,/~{FLUSH}*%
X110680000Y-60642000D03*
%TO.N,/NMI*%
X112045987Y-60069536D03*
%TO.N,/INTR*%
X112290000Y-59267000D03*
%TO.N,/SRESET*%
X106771000Y-63237550D03*
X110714000Y-65570000D03*
X106764000Y-65570000D03*
%TO.N,/~{SMI}*%
X112307000Y-60617000D03*
%TO.N,/~{FERR}*%
X113047000Y-59109000D03*
%TO.N,/~{IGNNE}*%
X113074000Y-59856000D03*
%TO.N,/~{STPCLK}*%
X111082000Y-63947000D03*
D20*
%TO.N,GND*%
X84125000Y-81137000D03*
%TO.N,/RESET*%
X106557000Y-61584000D03*
%TO.N,/~{A20M}*%
X105999000Y-60788000D03*
D21*
%TO.N,/PCD*%
X111492000Y-59248000D03*
%TO.N,/~{EADS}*%
X110694000Y-59820000D03*
D20*
%TO.N,/~{STPCLK}*%
X82870000Y-80683000D03*
%TO.N,/~{IGNNE}*%
X82340000Y-81363000D03*
%TO.N,/~{FERR}*%
X79384000Y-81542000D03*
%TO.N,/~{SMI}*%
X78820000Y-80755000D03*
%TO.N,/SRESET*%
X76131000Y-80175000D03*
%TO.N,/NMI*%
X73080000Y-80039000D03*
%TO.N,/INTR*%
X72299000Y-79537000D03*
%TO.N,/~{FLUSH}*%
X73092000Y-79042000D03*
%TO.N,/RESET*%
X72383000Y-78484000D03*
%TO.N,/~{A20M}*%
X73181000Y-77859000D03*
%TO.N,/~{EADS}*%
X72484000Y-77234000D03*
D21*
%TO.N,/PWT*%
X112270000Y-58295000D03*
%TO.N,/D{slash}~{C}*%
X111492000Y-58259000D03*
%TO.N,/M{slash}~{IO}*%
X110669000Y-58262000D03*
%TO.N,/~{BE3}*%
X112943000Y-56720000D03*
%TO.N,/~{BE2}*%
X112274000Y-56842000D03*
%TO.N,/~{BE1}*%
X111522000Y-56864000D03*
%TO.N,/BREQ*%
X111548962Y-56130064D03*
%TO.N,/W{slash}~{R}*%
X111536000Y-55267000D03*
D22*
%TO.N,/PCD*%
X72114000Y-74911000D03*
%TO.N,/PWT*%
X73580000Y-74329000D03*
%TO.N,/D{slash}~{C}*%
X72302030Y-73663300D03*
%TO.N,/M{slash}~{IO}*%
X72907000Y-73059000D03*
%TO.N,/~{BE3}*%
X73839000Y-71570000D03*
%TO.N,/~{BE2}*%
X72495000Y-70944150D03*
%TO.N,/~{BE1}*%
X73860000Y-70320300D03*
%TO.N,/~{BE0}*%
X72565522Y-69696450D03*
%TO.N,/BREQ*%
X73358000Y-69527000D03*
%TO.N,/W{slash}~{R}*%
X72609000Y-68138000D03*
D20*
%TO.N,/HLDA*%
X73198000Y-67556000D03*
%TO.N,/HOLD*%
X74221000Y-62703000D03*
%TO.N,/~{KEN}*%
X72885000Y-60740000D03*
%TO.N,/~{RDY}*%
X72186000Y-60230000D03*
D21*
%TO.N,/HLDA*%
X110594000Y-55968000D03*
%TO.N,/HOLD*%
X110672000Y-55229000D03*
%TO.N,/~{KEN}*%
X110686000Y-54494000D03*
%TO.N,/~{RDY}*%
X110640000Y-53620000D03*
D20*
%TO.N,/~{BS8}*%
X73441000Y-58594000D03*
%TO.N,/~{BS16}*%
X72277000Y-58078000D03*
%TO.N,/~{BOFF}*%
X72901000Y-57568000D03*
D21*
%TO.N,/~{BS8}*%
X110745000Y-52879000D03*
%TO.N,/~{BS16}*%
X110731000Y-52073000D03*
D22*
%TO.N,GND*%
X130927600Y-46034800D03*
D21*
X109828000Y-52005000D03*
D22*
X73586000Y-61932000D03*
%TO.N,/MA0*%
X135328000Y-68413000D03*
%TO.N,/MA8*%
X135769000Y-65095000D03*
%TO.N,/MA1*%
X133966000Y-65933707D03*
%TO.N,/MA2*%
X132743054Y-66170965D03*
%TO.N,/MA5*%
X133482449Y-64686007D03*
%TO.N,/MA4*%
X132457972Y-63945968D03*
%TO.N,/MA6*%
X134212958Y-61675408D03*
%TO.N,/MA7*%
X135357571Y-61905236D03*
%TO.N,/MA11*%
X137521684Y-58895780D03*
%TO.N,/MA10*%
X135994584Y-58923502D03*
%TO.N,/~{MCAS}*%
X140255394Y-56445394D03*
%TO.N,/DQM*%
X141652000Y-54064000D03*
%TO.N,/~{MRAS}*%
X139975806Y-55285194D03*
%TO.N,/MCKE*%
X124852240Y-55375563D03*
%TO.N,/~{MBA0}*%
X137735477Y-54110650D03*
%TO.N,/MCLK*%
X140509278Y-54039023D03*
%TO.N,/MDQ0*%
X151393000Y-53719000D03*
%TO.N,/~{MBA1}*%
X124467273Y-53626167D03*
X136614087Y-53622914D03*
%TO.N,/MDQ2*%
X147385838Y-53095750D03*
%TO.N,/MDQ1*%
X149892000Y-53112000D03*
%TO.N,/~{MWE}*%
X128659869Y-52538150D03*
X141701624Y-52257500D03*
%TO.N,/MDQ3*%
X145228353Y-52538150D03*
%TO.N,/MDQ4*%
X144382718Y-52131950D03*
%TO.N,/MDQ6*%
X149243000Y-51731000D03*
%TO.N,/MDQ5*%
X146362000Y-51098150D03*
%TO.N,/MDQ7*%
X151990000Y-50425000D03*
%TO.N,/~{MWE}*%
X140585000Y-44588000D03*
X140935683Y-63396961D03*
%TO.N,/MDQ0*%
X151873000Y-47977000D03*
X151393000Y-63433000D03*
%TO.N,/MDQ1*%
X149562000Y-48397000D03*
X149892000Y-62263000D03*
%TO.N,/MDQ2*%
X147296000Y-62128000D03*
X146951000Y-47872000D03*
%TO.N,/MDQ3*%
X145060000Y-62188000D03*
X144715000Y-48082000D03*
%TO.N,/~{MCAS}*%
X139901150Y-47914000D03*
X139863000Y-62083000D03*
%TO.N,/~{MRAS}*%
X139112000Y-47914000D03*
X139437949Y-63060963D03*
%TO.N,/~{MCS1}*%
X138200000Y-47942000D03*
X138982178Y-54229150D03*
%TO.N,/~{MCS2}*%
X138481183Y-55857544D03*
X137925000Y-64358000D03*
%TO.N,/~{MBA0}*%
X137413189Y-62186016D03*
X137394000Y-44662000D03*
%TO.N,/~{MBA1}*%
X136581000Y-48001000D03*
X136595000Y-63336000D03*
%TO.N,/MA10*%
X135606689Y-62608345D03*
X135814000Y-44593000D03*
%TO.N,/MA0*%
X133925206Y-58812461D03*
X134468000Y-48001000D03*
%TO.N,/MA1*%
X133794000Y-44413000D03*
X133576025Y-62687743D03*
%TO.N,/MA2*%
X132449802Y-62324056D03*
X133170150Y-47965000D03*
%TO.N,/MA3*%
X131588839Y-64833315D03*
X132330883Y-48122959D03*
%TO.N,/MDQ7*%
X152061850Y-56272000D03*
X151764000Y-73842000D03*
%TO.N,/MDQ6*%
X149438000Y-73617000D03*
X149375000Y-56185000D03*
%TO.N,/MDQ5*%
X147037000Y-73692000D03*
X146439018Y-56520499D03*
%TO.N,/MDQ4*%
X144436000Y-70716000D03*
X144386000Y-56235000D03*
%TO.N,/DQM*%
X141728494Y-56187096D03*
X140534000Y-70704000D03*
%TO.N,/MCLK*%
X139771000Y-73680000D03*
X141540242Y-59309394D03*
%TO.N,/MCKE*%
X138933000Y-70741000D03*
X139273851Y-55662421D03*
%TO.N,/MA12*%
X138145000Y-73780000D03*
X139733742Y-59344149D03*
%TO.N,/MA11*%
X137749499Y-55637750D03*
X137357000Y-70766000D03*
%TO.N,/MA9*%
X136595000Y-73742000D03*
X138019262Y-59454779D03*
%TO.N,/MA8*%
X136236824Y-55637750D03*
X135707000Y-70741000D03*
%TO.N,/MA7*%
X135006000Y-73880000D03*
X135253585Y-58939150D03*
%TO.N,/MA6*%
X134989124Y-55637750D03*
X134119000Y-70716000D03*
%TO.N,/MA5*%
X133343000Y-73805000D03*
X132663026Y-59070989D03*
%TO.N,/MA4*%
X132568000Y-70729000D03*
X132903224Y-55637750D03*
%TO.N,GND*%
X131757000Y-73758000D03*
X148543000Y-44622000D03*
X152609000Y-55152000D03*
X98679000Y-65532000D03*
X68834000Y-65024000D03*
X72771000Y-84455000D03*
D21*
X122453400Y-48895000D03*
D22*
X142139000Y-73728000D03*
D21*
X120954800Y-51993800D03*
D22*
X107297689Y-59834750D03*
X150905000Y-73640000D03*
X99314000Y-52832000D03*
X98679000Y-73025000D03*
D21*
X120192800Y-59182000D03*
D22*
X92710000Y-51435000D03*
X152580000Y-73580000D03*
X132128941Y-55637750D03*
X87630000Y-84328000D03*
X142103000Y-55154000D03*
X92964000Y-81280000D03*
X86487000Y-54483000D03*
X148567000Y-62276000D03*
D21*
X116179600Y-55168800D03*
D22*
X89662000Y-51308000D03*
X98425000Y-81280000D03*
X95123000Y-81280000D03*
D21*
X115392200Y-55956200D03*
D22*
X68834000Y-80645000D03*
X102870000Y-79629000D03*
X72009000Y-72517000D03*
X143736000Y-44641000D03*
X77343000Y-51435000D03*
X72009000Y-76073000D03*
X114874800Y-42283200D03*
X98830000Y-55033000D03*
X68834000Y-59563000D03*
X82169000Y-54483000D03*
X85344000Y-84328000D03*
D21*
X117525800Y-63119000D03*
D22*
X74724150Y-81153000D03*
X98552000Y-75438000D03*
X85090000Y-51435000D03*
X77089000Y-81153000D03*
X145815168Y-55339426D03*
D21*
X115392200Y-54356000D03*
D20*
X112587000Y-62757000D03*
D22*
X107918195Y-54523150D03*
X91059000Y-84455000D03*
D21*
X108737400Y-49250600D03*
D22*
X150784150Y-55185000D03*
X108614000Y-62728000D03*
X68834000Y-68580000D03*
X146138000Y-73659000D03*
D21*
X115392200Y-56769000D03*
D22*
X72390000Y-54991000D03*
X99022629Y-60218850D03*
D21*
X116179600Y-56769000D03*
X122224800Y-55575200D03*
D22*
X98679000Y-78105000D03*
X122455300Y-63042000D03*
%TO.N,VCC*%
X97409000Y-81153000D03*
X72667427Y-75561414D03*
D21*
X113792000Y-57581800D03*
D22*
X148620000Y-55054000D03*
X68961000Y-76581000D03*
X102362000Y-80518000D03*
X93853000Y-81280000D03*
X76327000Y-81026000D03*
X143715000Y-73669000D03*
X131773000Y-44692000D03*
X130802708Y-62380951D03*
X152706880Y-62350054D03*
X74422000Y-84582000D03*
X86840000Y-81309000D03*
D21*
X113792000Y-55956200D03*
D22*
X102489000Y-72644000D03*
X72390000Y-67056000D03*
X85471000Y-54483000D03*
X77343000Y-84709000D03*
X148601000Y-73709000D03*
X73406000Y-81153000D03*
X88103000Y-54275000D03*
X68834000Y-55626000D03*
X84328000Y-54610000D03*
X150933000Y-44680000D03*
X71986057Y-68537706D03*
X68961000Y-72009000D03*
X146111000Y-44739000D03*
X102233000Y-65290000D03*
X81280000Y-54610000D03*
X74345000Y-54147000D03*
X85090000Y-81153000D03*
X89408000Y-81153000D03*
X72429459Y-61683545D03*
X95838000Y-54197000D03*
X91059000Y-81153000D03*
X98679000Y-67564000D03*
X68961000Y-73533000D03*
X72517000Y-59191850D03*
X72390000Y-64516000D03*
D21*
X116967000Y-53594000D03*
D22*
X77851000Y-54610000D03*
X91654000Y-54142000D03*
X142151000Y-44633000D03*
X81026000Y-81153000D03*
X150726928Y-62288580D03*
D21*
X113792000Y-53568600D03*
D22*
X76835000Y-54737000D03*
X82931000Y-54610000D03*
X152392762Y-44792238D03*
X142145000Y-62325000D03*
X103251000Y-77597000D03*
D21*
X117779800Y-57556400D03*
D22*
X98949158Y-57865950D03*
X102235000Y-66167000D03*
X102362000Y-76073000D03*
X102216249Y-55344150D03*
%TO.N,+1V2*%
X115925600Y-67005200D03*
D21*
X116205000Y-58343800D03*
X113766600Y-55143400D03*
X115468400Y-55092600D03*
D22*
X114925600Y-43908800D03*
D21*
%TO.N,/MA2*%
X117856000Y-59080400D03*
%TO.N,/MA9*%
X119496323Y-59819130D03*
%TO.N,/~{MCS1}*%
X119303800Y-56032400D03*
%TO.N,/MA0*%
X117017800Y-59131200D03*
%TO.N,/~{MBA1}*%
X119380000Y-55168800D03*
D20*
%TO.N,/MA7*%
X122123200Y-61772800D03*
D21*
%TO.N,/MA8*%
X118731370Y-59854177D03*
D20*
%TO.N,/MA4*%
X119380000Y-62941200D03*
D21*
%TO.N,/MA11*%
X120091200Y-58470800D03*
%TO.N,/DQM*%
X120116600Y-55245000D03*
%TO.N,/MA10*%
X119354600Y-58394600D03*
%TO.N,/~{MCAS}*%
X120116600Y-56845200D03*
%TO.N,/MA1*%
X117830600Y-59918600D03*
%TO.N,/MA5*%
X119329200Y-60706000D03*
%TO.N,/MA12*%
X119531370Y-57669822D03*
D20*
%TO.N,/MA3*%
X118414800Y-63246000D03*
D21*
%TO.N,/~{MWE}*%
X118730781Y-56868731D03*
%TO.N,/MCKE*%
X120167400Y-54381400D03*
%TO.N,/MA6*%
X120091200Y-60655200D03*
%TO.N,/~{MCS2}*%
X119490676Y-56622207D03*
%TD*%
D23*
%TO.N,/~{USB_RST}*%
X113895000Y-45832000D02*
X118444000Y-41283000D01*
X113895000Y-51256000D02*
X113895000Y-45832000D01*
%TO.N,/USB_REFCLK*%
X115417000Y-51190000D02*
X115417000Y-47407000D01*
X120206650Y-42617350D02*
X120206650Y-41046978D01*
X120206650Y-41046978D02*
X120514978Y-40738650D01*
X121985650Y-40738650D02*
X122460000Y-41213000D01*
X115417000Y-47407000D02*
X120206650Y-42617350D01*
X120514978Y-40738650D02*
X121985650Y-40738650D01*
%TO.N,/USB_STP*%
X121499000Y-42031000D02*
X120733000Y-41265000D01*
X120954000Y-48224000D02*
X121499000Y-47679000D01*
X121499000Y-47679000D02*
X121499000Y-42031000D01*
%TO.N,/~{MCS1}*%
X130444733Y-56439700D02*
X131775773Y-55108660D01*
%TO.N,/MA12*%
X126050022Y-57239650D02*
X126315972Y-57505600D01*
%TO.N,/MA10*%
X126050022Y-58292350D02*
X126346422Y-57995950D01*
%TO.N,/MA12*%
X120228200Y-57521000D02*
X120243600Y-57505600D01*
%TO.N,/~{MCS2}*%
X119490676Y-56622207D02*
X119742533Y-56370350D01*
%TO.N,/~{MCS1}*%
X119303800Y-56032400D02*
X119359400Y-56088000D01*
%TO.N,/MA10*%
X119495860Y-58394600D02*
X119894510Y-57995950D01*
%TO.N,/~{MCAS}*%
X120116600Y-56845200D02*
X120273200Y-57001800D01*
%TO.N,/MA11*%
X136854464Y-59563000D02*
X137521684Y-58895780D01*
%TO.N,/MA12*%
X124176978Y-57282650D02*
X124613022Y-57282650D01*
%TO.N,/MA10*%
X123837578Y-57995950D02*
X124176978Y-58335350D01*
%TO.N,/~{MCS2}*%
X126323035Y-56722400D02*
X131209198Y-56722400D01*
X120665340Y-56722400D02*
X125340966Y-56722400D01*
%TO.N,/MA11*%
X125498247Y-58571750D02*
X126165754Y-58571750D01*
%TO.N,/MA10*%
X124921350Y-57995950D02*
X125317578Y-57995950D01*
%TO.N,/~{MCS1}*%
X131775773Y-55108660D02*
X138102668Y-55108660D01*
%TO.N,/MA12*%
X126315972Y-57505600D02*
X137895193Y-57505600D01*
%TO.N,/MA11*%
X124728754Y-58614750D02*
X124872703Y-58470800D01*
X126165754Y-58571750D02*
X126266703Y-58470800D01*
%TO.N,/~{MCAS}*%
X125498247Y-56960250D02*
X126165754Y-56960250D01*
%TO.N,/MA10*%
X125317578Y-57995950D02*
X125613978Y-58292350D01*
X126346422Y-57995950D02*
X134900467Y-57995950D01*
X124581950Y-58335350D02*
X124921350Y-57995950D01*
%TO.N,/MA11*%
X125397296Y-58470800D02*
X125498247Y-58571750D01*
%TO.N,/~{MCS1}*%
X123572610Y-56088000D02*
X123924310Y-56439700D01*
X126435466Y-56439700D02*
X130444733Y-56439700D01*
%TO.N,/MA12*%
X125613978Y-57239650D02*
X126050022Y-57239650D01*
X123954028Y-57505600D02*
X124176978Y-57282650D01*
%TO.N,/MA10*%
X119894510Y-57995950D02*
X123837578Y-57995950D01*
%TO.N,/~{MCS2}*%
X120313290Y-56370350D02*
X120665340Y-56722400D01*
%TO.N,/MA11*%
X133202797Y-58972310D02*
X133793487Y-59563000D01*
X133202797Y-58470800D02*
X133202797Y-58972310D01*
%TO.N,/~{MCAS}*%
X131881336Y-56445394D02*
X140255394Y-56445394D01*
%TO.N,/~{MCS1}*%
X125266793Y-56401448D02*
X126397217Y-56401450D01*
%TO.N,/MA10*%
X135219817Y-58315300D02*
X135386382Y-58315300D01*
%TO.N,/~{MCS2}*%
X131209198Y-56722400D02*
X131765605Y-56165994D01*
X138172733Y-56165994D02*
X138481183Y-55857544D01*
%TO.N,/~{MCAS}*%
X125456696Y-57001800D02*
X125498247Y-56960250D01*
X131324930Y-57001800D02*
X131881336Y-56445394D01*
%TO.N,/MA11*%
X124061247Y-58614750D02*
X124728754Y-58614750D01*
%TO.N,/MA10*%
X125613978Y-58292350D02*
X126050022Y-58292350D01*
%TO.N,/MA11*%
X126266703Y-58470800D02*
X133202797Y-58470800D01*
%TO.N,/~{MCAS}*%
X126165754Y-56960250D02*
X126207303Y-57001800D01*
%TO.N,/MA12*%
X125348028Y-57505600D02*
X125613978Y-57239650D01*
%TO.N,/~{MCS2}*%
X125382518Y-56680850D02*
X126281485Y-56680850D01*
X119742533Y-56370350D02*
X120313290Y-56370350D01*
%TO.N,/~{MCAS}*%
X126207303Y-57001800D02*
X131324930Y-57001800D01*
X120273200Y-57001800D02*
X125456696Y-57001800D01*
%TO.N,/MA10*%
X119354600Y-58394600D02*
X119495860Y-58394600D01*
%TO.N,/~{MCS1}*%
X119359400Y-56088000D02*
X123572610Y-56088000D01*
X138102668Y-55108660D02*
X138982178Y-54229150D01*
%TO.N,/MA12*%
X137895193Y-57505600D02*
X139733742Y-59344149D01*
X120243600Y-57505600D02*
X123954028Y-57505600D01*
%TO.N,/~{MCS2}*%
X126281485Y-56680850D02*
X126323035Y-56722400D01*
%TO.N,/MA11*%
X120091200Y-58470800D02*
X123917296Y-58470800D01*
X124872703Y-58470800D02*
X125397296Y-58470800D01*
%TO.N,/~{MCS2}*%
X131765605Y-56165994D02*
X138172733Y-56165994D01*
%TO.N,/MA11*%
X133793487Y-59563000D02*
X136854464Y-59563000D01*
%TO.N,/MA12*%
X124613022Y-57282650D02*
X124835972Y-57505600D01*
X124835972Y-57505600D02*
X125348028Y-57505600D01*
%TO.N,/~{MCS1}*%
X123924310Y-56439700D02*
X125228541Y-56439700D01*
%TO.N,/MA11*%
X123917296Y-58470800D02*
X124061247Y-58614750D01*
%TO.N,/MA10*%
X134900467Y-57995950D02*
X135219817Y-58315300D01*
%TO.N,/~{MCS1}*%
X125228541Y-56439700D02*
X125266793Y-56401448D01*
%TO.N,/~{MCS2}*%
X125340966Y-56722400D02*
X125382518Y-56680850D01*
%TO.N,/MA10*%
X124176978Y-58335350D02*
X124581950Y-58335350D01*
%TO.N,/MA12*%
X119680192Y-57521000D02*
X120228200Y-57521000D01*
%TO.N,/MA10*%
X135386382Y-58315300D02*
X135994584Y-58923502D01*
%TO.N,/~{MCS1}*%
X126397217Y-56401450D02*
X126435466Y-56439700D01*
%TO.N,/MA12*%
X119531370Y-57669822D02*
X119680192Y-57521000D01*
%TO.N,/TCK*%
X114975000Y-65886000D02*
X114975000Y-66980391D01*
X114975000Y-66980391D02*
X116270054Y-68275445D01*
X116270054Y-68275445D02*
X116585571Y-68275445D01*
X116585571Y-68275445D02*
X125072000Y-76761874D01*
X125072000Y-76761874D02*
X125072000Y-77613000D01*
%TO.N,/~{SMI}*%
X107144322Y-63608600D02*
X106989022Y-63763900D01*
X112307000Y-60996000D02*
X109694400Y-63608600D01*
%TO.N,/NMI*%
X78545800Y-77086680D02*
X78545800Y-77046673D01*
%TO.N,/SRESET*%
X78825200Y-77641800D02*
X78825200Y-77162405D01*
%TO.N,/~{SMI}*%
X79104600Y-77942400D02*
X78820000Y-78227000D01*
X78820000Y-78227000D02*
X78820000Y-80755000D01*
X109694400Y-63608600D02*
X107144322Y-63608600D01*
%TO.N,/~{FERR}*%
X107260054Y-63888000D02*
X109841000Y-63888000D01*
%TO.N,/~{SMI}*%
X112307000Y-60617000D02*
X112307000Y-60996000D01*
%TO.N,/~{FERR}*%
X106281947Y-63888000D02*
X106437247Y-64043300D01*
%TO.N,/~{SMI}*%
X106552978Y-63763900D02*
X106397678Y-63608600D01*
%TO.N,/NMI*%
X107218822Y-62941000D02*
X107638000Y-62941000D01*
%TO.N,/~{FERR}*%
X112794600Y-60934400D02*
X112794600Y-60246726D01*
%TO.N,/~{SMI}*%
X106397678Y-63608600D02*
X92774136Y-63608600D01*
%TO.N,/NMI*%
X107638000Y-62941000D02*
X108988000Y-61591000D01*
X106989022Y-62711200D02*
X107218822Y-62941000D01*
X75593480Y-80039000D02*
X78545800Y-77086680D01*
%TO.N,/SRESET*%
X92750054Y-63237550D02*
X106771000Y-63237550D01*
%TO.N,/NMI*%
X108988000Y-61591000D02*
X110796257Y-61591000D01*
%TO.N,/~{SMI}*%
X92774136Y-63608600D02*
X79104600Y-77278137D01*
%TO.N,/NMI*%
X110796257Y-61591000D02*
X111833150Y-60554107D01*
X106552978Y-62711200D02*
X106989022Y-62711200D01*
X106323178Y-62941000D02*
X106552978Y-62711200D01*
%TO.N,/SRESET*%
X76292000Y-80175000D02*
X78825200Y-77641800D01*
%TO.N,/NMI*%
X111833150Y-60554107D02*
X111833150Y-60282373D01*
%TO.N,/~{SMI}*%
X79104600Y-77278137D02*
X79104600Y-77942400D01*
%TO.N,/NMI*%
X92651472Y-62941000D02*
X106323178Y-62941000D01*
X78545800Y-77046673D02*
X92651472Y-62941000D01*
X73080000Y-80039000D02*
X75593480Y-80039000D01*
%TO.N,/SRESET*%
X78825200Y-77162405D02*
X92750054Y-63237550D01*
X76131000Y-80175000D02*
X76292000Y-80175000D01*
%TO.N,/~{FERR}*%
X79384000Y-81542000D02*
X79384000Y-77393868D01*
X107104754Y-64043300D02*
X107260054Y-63888000D01*
%TO.N,/~{SMI}*%
X106989022Y-63763900D02*
X106552978Y-63763900D01*
%TO.N,/NMI*%
X111833150Y-60282373D02*
X112045987Y-60069536D01*
%TO.N,/~{FERR}*%
X79384000Y-77393868D02*
X92889868Y-63888000D01*
X92889868Y-63888000D02*
X106281947Y-63888000D01*
X106437247Y-64043300D02*
X107104754Y-64043300D01*
X109841000Y-63888000D02*
X112794600Y-60934400D01*
X112794600Y-60246726D02*
X112600150Y-60052276D01*
X112600150Y-60052276D02*
X112600150Y-59659724D01*
X112600150Y-59659724D02*
X113047000Y-59212874D01*
X113047000Y-59212874D02*
X113047000Y-59109000D01*
%TO.N,/~{FLUSH}*%
X73803932Y-79042000D02*
X73092000Y-79042000D01*
%TO.N,/INTR*%
X73708000Y-79537000D02*
X74202200Y-79042800D01*
X74202200Y-79042800D02*
X76128663Y-79042800D01*
%TO.N,/RESET*%
X92797200Y-61584000D02*
X106557000Y-61584000D01*
%TO.N,/INTR*%
X76128663Y-79042800D02*
X92658464Y-62513000D01*
X92658464Y-62513000D02*
X106356046Y-62513000D01*
X112178397Y-59267000D02*
X112290000Y-59267000D01*
%TO.N,/~{FLUSH}*%
X92716082Y-62060250D02*
X76012931Y-78763400D01*
%TO.N,/INTR*%
X106356046Y-62513000D02*
X106437247Y-62431800D01*
X106437247Y-62431800D02*
X107583200Y-62431800D01*
X107583200Y-62431800D02*
X108881000Y-61134000D01*
X108881000Y-61134000D02*
X110858126Y-61134000D01*
X110858126Y-61134000D02*
X111153850Y-60838276D01*
X111153850Y-60838276D02*
X111153850Y-60291547D01*
X111153850Y-60291547D02*
X112178397Y-59267000D01*
%TO.N,/~{FLUSH}*%
X107443750Y-62060250D02*
X92716082Y-62060250D01*
X110680000Y-60642000D02*
X108862000Y-60642000D01*
X76012931Y-78763400D02*
X74082532Y-78763400D01*
%TO.N,/RESET*%
X72383000Y-78484000D02*
X75897200Y-78484000D01*
%TO.N,/INTR*%
X72299000Y-79537000D02*
X73708000Y-79537000D01*
%TO.N,/~{FLUSH}*%
X108862000Y-60642000D02*
X107443750Y-62060250D01*
X74082532Y-78763400D02*
X73803932Y-79042000D01*
%TO.N,/RESET*%
X75897200Y-78484000D02*
X92797200Y-61584000D01*
%TO.N,VCC*%
X103599800Y-37048200D02*
X103599800Y-35439800D01*
X103599800Y-35439800D02*
X103606600Y-35433000D01*
X103599800Y-37048200D02*
X103599800Y-38601200D01*
X103599800Y-38601200D02*
X103606600Y-38608000D01*
%TO.N,GND*%
X101399800Y-35353800D02*
X100494200Y-34448200D01*
X100494200Y-34448200D02*
X96824800Y-34448200D01*
X101399800Y-37048200D02*
X101399800Y-35353800D01*
X101399800Y-35353800D02*
X102305400Y-34448200D01*
X102305400Y-34448200D02*
X110574800Y-34448200D01*
X110574800Y-42748200D02*
X112268000Y-42748200D01*
X112268000Y-42748200D02*
X112293400Y-42722800D01*
X110574800Y-34448200D02*
X112070600Y-34448200D01*
X112070600Y-34448200D02*
X112115600Y-34493200D01*
X96824800Y-34448200D02*
X94939400Y-34448200D01*
X94939400Y-34448200D02*
X94894400Y-34493200D01*
X96824800Y-42748200D02*
X95199200Y-42748200D01*
%TO.N,/SD_CLK*%
X102415000Y-38038800D02*
X102499800Y-37954000D01*
X102499800Y-37954000D02*
X102499800Y-37048200D01*
%TO.N,/SD_DAT0*%
X100215000Y-38038800D02*
X100299800Y-37954000D01*
X100299800Y-37954000D02*
X100299800Y-37048200D01*
%TO.N,/SD_DAT1*%
X99115000Y-38038800D02*
X99199800Y-37954000D01*
X99199800Y-37954000D02*
X99199800Y-37048200D01*
%TO.N,/SD_DAT2*%
X106899800Y-37048200D02*
X106899800Y-39234536D01*
X106899800Y-39234536D02*
X108613848Y-40948584D01*
%TO.N,/SD_DAT3*%
X105799800Y-38954772D02*
X108399428Y-41554400D01*
X105799800Y-37048200D02*
X105799800Y-38954772D01*
X108399428Y-41554400D02*
X108585000Y-41554400D01*
D24*
%TO.N,GND*%
X117498000Y-53850400D02*
X116179600Y-55168800D01*
X117498000Y-53374052D02*
X117498000Y-53850400D01*
X113547994Y-53037600D02*
X117161548Y-53037600D01*
X113297094Y-53288500D02*
X113547994Y-53037600D01*
X113080331Y-53288500D02*
X113297094Y-53288500D01*
X117161548Y-53037600D02*
X117498000Y-53374052D01*
X112728449Y-53640382D02*
X113080331Y-53288500D01*
X112728449Y-54090382D02*
X112728449Y-53640382D01*
D23*
%TO.N,/SD_CMD*%
X104699800Y-37048200D02*
X104699800Y-38420658D01*
X104699800Y-38420658D02*
X108572115Y-42292973D01*
%TO.N,/SD_CLK*%
X108712000Y-42976800D02*
X108864400Y-42824400D01*
X102415000Y-40388200D02*
X105003600Y-42976800D01*
X102415000Y-38038800D02*
X102415000Y-40388200D01*
X105003600Y-42976800D02*
X108712000Y-42976800D01*
%TO.N,/SD_DAT0*%
X108585000Y-43815000D02*
X108594726Y-43815000D01*
X108594726Y-43815000D02*
X108120876Y-43341150D01*
X108120876Y-43341150D02*
X107525124Y-43341150D01*
X104825800Y-43535600D02*
X100215000Y-38924800D01*
X100215000Y-38924800D02*
X100215000Y-38038800D01*
X107525124Y-43341150D02*
X107330674Y-43535600D01*
X107330674Y-43535600D02*
X104825800Y-43535600D01*
%TO.N,/SD_DAT1*%
X104541200Y-43815000D02*
X107721400Y-43815000D01*
X99115000Y-38388800D02*
X104541200Y-43815000D01*
X99115000Y-38038800D02*
X99115000Y-38388800D01*
%TO.N,/~{BOFF}*%
X93785498Y-52576502D02*
X95146000Y-51216000D01*
X108499200Y-51216000D02*
X110439200Y-49276000D01*
X72901000Y-57568000D02*
X77892498Y-52576502D01*
X95146000Y-51216000D02*
X108499200Y-51216000D01*
X77892498Y-52576502D02*
X93785498Y-52576502D01*
%TO.N,/~{MWE}*%
X118589000Y-56060640D02*
X118624750Y-56024890D01*
X118624750Y-56024890D02*
X118624750Y-55251345D01*
%TO.N,/~{MBA1}*%
X124220040Y-53873400D02*
X124467273Y-53626167D01*
%TO.N,/~{MWE}*%
X118624750Y-55251345D02*
X119414150Y-54461945D01*
%TO.N,/~{MBA1}*%
X119693550Y-54577676D02*
X119693550Y-54185124D01*
X119693550Y-54185124D02*
X119971124Y-53907550D01*
%TO.N,/~{MWE}*%
X118730781Y-56868731D02*
X118589000Y-56726950D01*
%TO.N,/~{MBA1}*%
X120664132Y-53873400D02*
X124220040Y-53873400D01*
X119380000Y-54891226D02*
X119693550Y-54577676D01*
X119971124Y-53907550D02*
X120629982Y-53907550D01*
%TO.N,/~{MWE}*%
X118589000Y-56726950D02*
X118589000Y-56060640D01*
%TO.N,/~{MBA1}*%
X120629982Y-53907550D02*
X120664132Y-53873400D01*
X119380000Y-55168800D02*
X119380000Y-54891226D01*
%TO.N,/~{MWE}*%
X119414150Y-54461945D02*
X119414150Y-54069392D01*
X119414150Y-54069392D02*
X120422942Y-53060600D01*
X120422942Y-53060600D02*
X128137419Y-53060600D01*
X128137419Y-53060600D02*
X128659869Y-52538150D01*
%TO.N,/PCD*%
X108068329Y-59328000D02*
X111412000Y-59328000D01*
%TO.N,/M{slash}~{IO}*%
X97458206Y-59657400D02*
X98658807Y-58456800D01*
%TO.N,/D{slash}~{C}*%
X97573938Y-59936800D02*
X98774538Y-58736200D01*
%TO.N,/PWT*%
X110052000Y-59038000D02*
X110990574Y-59038000D01*
%TO.N,/~{EADS}*%
X107556097Y-59210900D02*
X108107197Y-59762000D01*
%TO.N,/M{slash}~{IO}*%
X105860842Y-58119041D02*
X106198601Y-58456800D01*
%TO.N,/PWT*%
X97689670Y-60216200D02*
X98857269Y-59048600D01*
%TO.N,/PCD*%
X88827269Y-60495600D02*
X97805400Y-60495600D01*
%TO.N,/D{slash}~{C}*%
X110278274Y-58541400D02*
X110472724Y-58735850D01*
%TO.N,/PCD*%
X104626071Y-59328000D02*
X104996830Y-58957241D01*
X105879088Y-59328000D02*
X106527049Y-59328000D01*
%TO.N,/D{slash}~{C}*%
X110472724Y-58735850D02*
X110865276Y-58735850D01*
%TO.N,/PCD*%
X106527049Y-59328000D02*
X106923550Y-58931500D01*
%TO.N,/D{slash}~{C}*%
X111342126Y-58259000D02*
X111492000Y-58259000D01*
%TO.N,/M{slash}~{IO}*%
X106576357Y-58093300D02*
X108019025Y-58093300D01*
%TO.N,/PWT*%
X104881099Y-58677841D02*
X105629378Y-58677841D01*
%TO.N,/PCD*%
X105508329Y-58957241D02*
X105879088Y-59328000D01*
X97805400Y-60495600D02*
X98973000Y-59328000D01*
%TO.N,/D{slash}~{C}*%
X104765368Y-58398441D02*
X105745110Y-58398441D01*
X74869306Y-73663300D02*
X88595807Y-59936800D01*
%TO.N,/PWT*%
X106411318Y-59048600D02*
X106807819Y-58652100D01*
%TO.N,/M{slash}~{IO}*%
X72907000Y-73059000D02*
X75078475Y-73059000D01*
%TO.N,/D{slash}~{C}*%
X106692088Y-58372700D02*
X107903293Y-58372700D01*
%TO.N,/M{slash}~{IO}*%
X106198601Y-58456800D02*
X106212856Y-58456800D01*
%TO.N,/PWT*%
X73580000Y-74329000D02*
X74598738Y-74329000D01*
X106807819Y-58652100D02*
X107787561Y-58652100D01*
%TO.N,/M{slash}~{IO}*%
X98658807Y-58456800D02*
X104311877Y-58456800D01*
%TO.N,/PWT*%
X74598738Y-74329000D02*
X88711538Y-60216200D01*
%TO.N,/M{slash}~{IO}*%
X88480076Y-59657400D02*
X97458206Y-59657400D01*
%TO.N,/PWT*%
X110990574Y-59038000D02*
X111295724Y-58732850D01*
%TO.N,/M{slash}~{IO}*%
X108019025Y-58093300D02*
X108187725Y-58262000D01*
%TO.N,/D{slash}~{C}*%
X106082869Y-58736200D02*
X106328587Y-58736200D01*
%TO.N,/PWT*%
X111688276Y-58732850D02*
X112126126Y-58295000D01*
%TO.N,/M{slash}~{IO}*%
X104311877Y-58456800D02*
X104649637Y-58119041D01*
%TO.N,/D{slash}~{C}*%
X105745110Y-58398441D02*
X106082869Y-58736200D01*
%TO.N,/~{EADS}*%
X110636000Y-59762000D02*
X110694000Y-59820000D01*
%TO.N,/PCD*%
X107671829Y-58931500D02*
X108068329Y-59328000D01*
%TO.N,/PWT*%
X105629378Y-58677841D02*
X106000137Y-59048600D01*
X107787561Y-58652100D02*
X108184061Y-59048600D01*
%TO.N,/D{slash}~{C}*%
X106328587Y-58736200D02*
X106692088Y-58372700D01*
X108071993Y-58541400D02*
X110278274Y-58541400D01*
%TO.N,/PCD*%
X111412000Y-59328000D02*
X111492000Y-59248000D01*
%TO.N,/M{slash}~{IO}*%
X75078475Y-73059000D02*
X88480076Y-59657400D01*
%TO.N,/PCD*%
X104996830Y-58957241D02*
X105508329Y-58957241D01*
%TO.N,/M{slash}~{IO}*%
X108187725Y-58262000D02*
X110669000Y-58262000D01*
%TO.N,/PWT*%
X108184061Y-59048600D02*
X110041400Y-59048600D01*
%TO.N,/~{EADS}*%
X108107197Y-59762000D02*
X110636000Y-59762000D01*
X106132658Y-59748000D02*
X106502181Y-59748000D01*
%TO.N,/PWT*%
X111295724Y-58732850D02*
X111688276Y-58732850D01*
%TO.N,/~{EADS}*%
X105566808Y-60313850D02*
X106132658Y-59748000D01*
X104484142Y-59748000D02*
X105049992Y-60313850D01*
X100600000Y-60775000D02*
X101627000Y-59748000D01*
X105049992Y-60313850D02*
X105566808Y-60313850D01*
%TO.N,/PCD*%
X106923550Y-58931500D02*
X107671829Y-58931500D01*
%TO.N,/~{EADS}*%
X72484000Y-77234000D02*
X88943000Y-60775000D01*
%TO.N,/PWT*%
X112126126Y-58295000D02*
X112270000Y-58295000D01*
%TO.N,/D{slash}~{C}*%
X107903293Y-58372700D02*
X108071993Y-58541400D01*
%TO.N,/~{EADS}*%
X101627000Y-59748000D02*
X104484142Y-59748000D01*
%TO.N,/D{slash}~{C}*%
X110865276Y-58735850D02*
X111342126Y-58259000D01*
%TO.N,/M{slash}~{IO}*%
X106212856Y-58456800D02*
X106576357Y-58093300D01*
%TO.N,/~{EADS}*%
X88943000Y-60775000D02*
X100600000Y-60775000D01*
%TO.N,/PCD*%
X72114000Y-74911000D02*
X74411868Y-74911000D01*
%TO.N,/D{slash}~{C}*%
X88595807Y-59936800D02*
X97573938Y-59936800D01*
%TO.N,/M{slash}~{IO}*%
X104649637Y-58119041D02*
X105860842Y-58119041D01*
%TO.N,/D{slash}~{C}*%
X104427608Y-58736200D02*
X104765368Y-58398441D01*
%TO.N,/PWT*%
X98857269Y-59048600D02*
X104510339Y-59048600D01*
%TO.N,/PCD*%
X74411868Y-74911000D02*
X88827269Y-60495600D01*
%TO.N,/~{EADS}*%
X106502181Y-59748000D02*
X107039281Y-59210900D01*
%TO.N,/D{slash}~{C}*%
X98774538Y-58736200D02*
X104427608Y-58736200D01*
X72302030Y-73663300D02*
X74869306Y-73663300D01*
%TO.N,/PWT*%
X88711538Y-60216200D02*
X97689670Y-60216200D01*
X104510339Y-59048600D02*
X104881099Y-58677841D01*
%TO.N,/PCD*%
X98973000Y-59328000D02*
X104626071Y-59328000D01*
%TO.N,/PWT*%
X106000137Y-59048600D02*
X106411318Y-59048600D01*
%TO.N,/~{EADS}*%
X107039281Y-59210900D02*
X107556097Y-59210900D01*
%TO.N,/PWT*%
X110041400Y-59048600D02*
X110052000Y-59038000D01*
%TO.N,/CCLK*%
X115451000Y-59896000D02*
X115143850Y-60203150D01*
X114931000Y-63082875D02*
X114757150Y-63256725D01*
X115143850Y-60203150D02*
X115143850Y-60867276D01*
X114316000Y-65516126D02*
X114316000Y-76710570D01*
X115143850Y-60867276D02*
X114931000Y-61080126D01*
X113852450Y-82964450D02*
X117653000Y-86765000D01*
X114931000Y-61080126D02*
X114931000Y-63082875D01*
X114757150Y-63256725D02*
X114757150Y-64586024D01*
X114757150Y-64586024D02*
X114805350Y-64634224D01*
X114805350Y-64634224D02*
X114805350Y-65026776D01*
X114316000Y-76710570D02*
X113852450Y-77174120D01*
X114805350Y-65026776D02*
X114316000Y-65516126D01*
X113852450Y-77174120D02*
X113852450Y-82964450D01*
%TO.N,/D13*%
X114477750Y-63140993D02*
X114477750Y-64684250D01*
%TO.N,/D15*%
X113930000Y-64487628D02*
X113805150Y-64612478D01*
%TO.N,/D13*%
X114651600Y-60689400D02*
X114651600Y-62967143D01*
X114651600Y-62967143D02*
X114477750Y-63140993D01*
%TO.N,/D15*%
X113930000Y-65173372D02*
X113930000Y-66185000D01*
X113805150Y-64612478D02*
X113805150Y-65048522D01*
X113805150Y-65048522D02*
X113930000Y-65173372D01*
X113930000Y-66185000D02*
X113449000Y-66666000D01*
%TO.N,/D13*%
X114670000Y-60671000D02*
X114651600Y-60689400D01*
%TO.N,/D15*%
X113930000Y-60655000D02*
X113930000Y-64487628D01*
%TO.N,/D13*%
X114477750Y-64684250D02*
X114331500Y-64830500D01*
%TO.N,/MA1*%
X132110287Y-65589257D02*
X133621550Y-65589257D01*
%TO.N,/MA8*%
X134014317Y-65309857D02*
X134209459Y-65114715D01*
%TO.N,/MA2*%
X130723603Y-65640600D02*
X131253968Y-66170965D01*
%TO.N,/MA0*%
X121656732Y-68480400D02*
X135260600Y-68480400D01*
%TO.N,/MA8*%
X117051950Y-63315276D02*
X117329524Y-63592850D01*
X134209459Y-65114715D02*
X135749285Y-65114715D01*
%TO.N,/MA2*%
X116491151Y-63547566D02*
X117097235Y-64153650D01*
%TO.N,/MA1*%
X130839335Y-65361200D02*
X131214700Y-65736565D01*
X116770552Y-61417037D02*
X116770551Y-63429008D01*
%TO.N,/MA2*%
X117097235Y-64153650D02*
X117725114Y-64153650D01*
%TO.N,/MA0*%
X116627000Y-60770325D02*
X116211752Y-61185575D01*
%TO.N,/MA1*%
X117185799Y-61001789D02*
X116770552Y-61417037D01*
%TO.N,/MA2*%
X116491152Y-61301306D02*
X116491151Y-63547566D01*
%TO.N,/MA8*%
X130953066Y-65079800D02*
X131330431Y-65457165D01*
X117329524Y-63592850D02*
X118027913Y-63592850D01*
%TO.N,/MA0*%
X116110650Y-64192978D02*
X116110650Y-64958022D01*
%TO.N,/MA8*%
X119514863Y-65079800D02*
X130953066Y-65079800D01*
%TO.N,/MA2*%
X117725114Y-64153650D02*
X119212064Y-65640600D01*
%TO.N,/MA1*%
X119398303Y-65361200D02*
X130839335Y-65361200D01*
%TO.N,/MA0*%
X116211752Y-64091876D02*
X116110650Y-64192978D01*
X116627000Y-60181140D02*
X116627000Y-60770325D01*
X116492150Y-60046290D02*
X116627000Y-60181140D01*
X116110650Y-64958022D02*
X116418978Y-65266350D01*
%TO.N,/MA1*%
X116770551Y-63429008D02*
X117213793Y-63872250D01*
%TO.N,/MA0*%
X116492150Y-59656850D02*
X116492150Y-60046290D01*
X116418978Y-65266350D02*
X118442682Y-65266350D01*
X135260600Y-68480400D02*
X135328000Y-68413000D01*
X116211752Y-61185575D02*
X116211752Y-64091876D01*
%TO.N,/MA1*%
X117909353Y-63872250D02*
X119398303Y-65361200D01*
%TO.N,/MA2*%
X131253968Y-66170965D02*
X132743054Y-66170965D01*
%TO.N,/MA1*%
X133621550Y-65589257D02*
X133966000Y-65933707D01*
%TO.N,/MA2*%
X119212064Y-65640600D02*
X130723603Y-65640600D01*
%TO.N,/MA1*%
X131214700Y-65736565D02*
X131962978Y-65736565D01*
X117213793Y-63872250D02*
X117909353Y-63872250D01*
%TO.N,/MA8*%
X131330431Y-65457165D02*
X131847247Y-65457165D01*
%TO.N,/MA1*%
X117185800Y-60563400D02*
X117185799Y-61001789D01*
X131962978Y-65736565D02*
X132110287Y-65589257D01*
X117830600Y-59918600D02*
X117185800Y-60563400D01*
%TO.N,/MA0*%
X117017800Y-59131200D02*
X116492150Y-59656850D01*
%TO.N,/MA8*%
X131994556Y-65309857D02*
X134014317Y-65309857D01*
%TO.N,/MA0*%
X118442682Y-65266350D02*
X121656732Y-68480400D01*
%TO.N,/MA8*%
X118027913Y-63592850D02*
X119514863Y-65079800D01*
%TO.N,/MA2*%
X116906400Y-60886057D02*
X116491152Y-61301306D01*
X116906400Y-60030000D02*
X116906400Y-60886057D01*
%TO.N,/MA8*%
X117051952Y-61533595D02*
X117051950Y-63315276D01*
X131847247Y-65457165D02*
X131994556Y-65309857D01*
X135749285Y-65114715D02*
X135769000Y-65095000D01*
%TO.N,/MA2*%
X117856000Y-59080400D02*
X116906400Y-60030000D01*
%TO.N,/MA8*%
X118731370Y-59854177D02*
X117051952Y-61533595D01*
%TO.N,/USB_DIR*%
X114700000Y-51289000D02*
X114700000Y-46042000D01*
X114700000Y-46042000D02*
X119292000Y-41450000D01*
%TO.N,/~{IGNNE}*%
X106321516Y-64322700D02*
X107220486Y-64322700D01*
%TO.N,/~{STPCLK}*%
X107336218Y-64602100D02*
X107345317Y-64593000D01*
X107345317Y-64593000D02*
X110436000Y-64593000D01*
%TO.N,/~{IGNNE}*%
X113074000Y-61091000D02*
X113074000Y-60562131D01*
X113147400Y-60488731D02*
X113147400Y-60222268D01*
X92859400Y-64313600D02*
X106312415Y-64313600D01*
X82340000Y-74833000D02*
X92859400Y-64313600D01*
%TO.N,/~{STPCLK}*%
X82870000Y-80683000D02*
X82870000Y-74750000D01*
%TO.N,/~{IGNNE}*%
X113147400Y-60222268D02*
X113074000Y-60148869D01*
X82340000Y-81363000D02*
X82340000Y-74833000D01*
X113074000Y-60562131D02*
X113147400Y-60488731D01*
%TO.N,/~{STPCLK}*%
X106205785Y-64602100D02*
X107336218Y-64602100D01*
%TO.N,/~{IGNNE}*%
X107229585Y-64313600D02*
X109851400Y-64313600D01*
X107220486Y-64322700D02*
X107229585Y-64313600D01*
%TO.N,/~{STPCLK}*%
X82870000Y-74750000D02*
X87275000Y-70345000D01*
X92975132Y-64593000D02*
X106196683Y-64593000D01*
X87275000Y-70293132D02*
X92975132Y-64593000D01*
X87275000Y-70345000D02*
X87275000Y-70293132D01*
%TO.N,/~{IGNNE}*%
X113074000Y-60148869D02*
X113074000Y-59856000D01*
%TO.N,/~{STPCLK}*%
X110436000Y-64593000D02*
X111082000Y-63947000D01*
%TO.N,/~{IGNNE}*%
X109851400Y-64313600D02*
X113074000Y-61091000D01*
%TO.N,/~{STPCLK}*%
X106196683Y-64593000D02*
X106205785Y-64602100D01*
%TO.N,/~{IGNNE}*%
X106312415Y-64313600D02*
X106321516Y-64322700D01*
D24*
%TO.N,GND*%
X113966000Y-59254000D02*
X113966000Y-58605000D01*
X113966000Y-58605000D02*
X113261000Y-57900000D01*
X113741952Y-56880900D02*
X114175024Y-56880900D01*
X113261000Y-57900000D02*
X113261000Y-57361852D01*
X113261000Y-57361852D02*
X113741952Y-56880900D01*
X114175024Y-56880900D02*
X114286924Y-56769000D01*
X114286924Y-56769000D02*
X116179600Y-56769000D01*
D23*
X85100000Y-78402000D02*
X84125000Y-79377000D01*
X84125000Y-79377000D02*
X84125000Y-81137000D01*
D24*
%TO.N,VCC*%
X97716000Y-67262000D02*
X98377000Y-67262000D01*
X98377000Y-67262000D02*
X98679000Y-67564000D01*
%TO.N,GND*%
X97716000Y-65702000D02*
X98509000Y-65702000D01*
X98509000Y-65702000D02*
X98679000Y-65532000D01*
D23*
%TO.N,/~{A20M}*%
X89147000Y-61195000D02*
X105592000Y-61195000D01*
X73181000Y-77161000D02*
X89147000Y-61195000D01*
X105592000Y-61195000D02*
X105999000Y-60788000D01*
X73181000Y-77859000D02*
X73181000Y-77161000D01*
%TO.N,/BREQ*%
X104234195Y-56646800D02*
X104245395Y-56658000D01*
%TO.N,/W{slash}~{R}*%
X111067850Y-56164276D02*
X111067850Y-55503276D01*
%TO.N,/~{BS16}*%
X90366000Y-56584000D02*
X87207029Y-56584000D01*
%TO.N,/~{RDY}*%
X90597463Y-57142800D02*
X94120363Y-53619900D01*
%TO.N,/BREQ*%
X73358000Y-69527000D02*
X77029950Y-69527000D01*
X99797660Y-56646800D02*
X104234195Y-56646800D01*
%TO.N,/HOLD*%
X97873464Y-55688600D02*
X92841928Y-55688600D01*
%TO.N,/~{BS8}*%
X108901000Y-51946000D02*
X95765000Y-51946000D01*
%TO.N,/BREQ*%
X110957776Y-56721250D02*
X111548962Y-56130064D01*
X110281993Y-56721250D02*
X110957776Y-56721250D01*
%TO.N,/~{BE1}*%
X111522000Y-56864000D02*
X111325000Y-57061000D01*
%TO.N,/~{BE3}*%
X73839000Y-71570000D02*
X76172344Y-71570000D01*
%TO.N,/~{BS8}*%
X94575698Y-53135302D02*
X94209830Y-53135302D01*
X87322761Y-56863400D02*
X85769161Y-58417000D01*
%TO.N,/W{slash}~{R}*%
X104032525Y-56329000D02*
X108370737Y-56329000D01*
%TO.N,/~{BE1}*%
X99439029Y-56683300D02*
X98459287Y-56683300D01*
%TO.N,/BREQ*%
X99554760Y-56403900D02*
X99797660Y-56646800D01*
%TO.N,/HLDA*%
X78210687Y-67556000D02*
X73198000Y-67556000D01*
%TO.N,/~{BS8}*%
X90481732Y-56863400D02*
X87322761Y-56863400D01*
%TO.N,/~{BE3}*%
X99150108Y-57242100D02*
X99573008Y-57665000D01*
%TO.N,/~{KEN}*%
X84236425Y-60740000D02*
X72885000Y-60740000D01*
%TO.N,/~{BE2}*%
X72495000Y-70944150D02*
X76403064Y-70944150D01*
X76403064Y-70944150D02*
X88248614Y-59098600D01*
%TO.N,/HLDA*%
X97989195Y-55968000D02*
X92957660Y-55968000D01*
%TO.N,/~{BE2}*%
X88248614Y-59098600D02*
X96439118Y-59098600D01*
%TO.N,/HOLD*%
X90828928Y-57701600D02*
X87669956Y-57701600D01*
%TO.N,/~{BE2}*%
X98575019Y-56962700D02*
X99323298Y-56962700D01*
%TO.N,/~{BS8}*%
X95765000Y-51946000D02*
X94575698Y-53135302D01*
%TO.N,/~{KEN}*%
X110091400Y-53899400D02*
X108176703Y-53899400D01*
%TO.N,/W{slash}~{R}*%
X96091925Y-58260400D02*
X98227826Y-56124500D01*
X103950925Y-56247400D02*
X104032525Y-56329000D01*
%TO.N,/~{BS16}*%
X95418850Y-51531150D02*
X90366000Y-56584000D01*
%TO.N,/~{BS8}*%
X110745000Y-52879000D02*
X109834000Y-52879000D01*
%TO.N,/~{RDY}*%
X72787000Y-59629000D02*
X84952292Y-59629000D01*
%TO.N,/HLDA*%
X99786223Y-55845100D02*
X98112094Y-55845100D01*
%TO.N,/~{BS8}*%
X109834000Y-52879000D02*
X108901000Y-51946000D01*
%TO.N,/~{BE3}*%
X96554850Y-59378000D02*
X98690750Y-57242100D01*
%TO.N,/~{BE1}*%
X111325000Y-57061000D02*
X99816730Y-57061000D01*
%TO.N,/~{RDY}*%
X84952292Y-59629000D02*
X87438493Y-57142800D01*
%TO.N,/~{BE1}*%
X99816730Y-57061000D02*
X99439029Y-56683300D01*
%TO.N,/W{slash}~{R}*%
X72609000Y-68138000D02*
X78023819Y-68138000D01*
%TO.N,/~{BE1}*%
X74108700Y-70569000D02*
X73860000Y-70320300D01*
%TO.N,/~{BE3}*%
X88364345Y-59378000D02*
X96554850Y-59378000D01*
%TO.N,/~{BE1}*%
X88132882Y-58819200D02*
X76383082Y-70569000D01*
%TO.N,/~{KEN}*%
X90713196Y-57422200D02*
X87554224Y-57422200D01*
%TO.N,/~{BE1}*%
X96323387Y-58819200D02*
X88132882Y-58819200D01*
%TO.N,/~{BS16}*%
X85713030Y-58078000D02*
X72277000Y-58078000D01*
%TO.N,/~{BE3}*%
X98690750Y-57242100D02*
X99150108Y-57242100D01*
%TO.N,/~{KEN}*%
X87554224Y-57422200D02*
X84236425Y-60740000D01*
%TO.N,/HOLD*%
X82668556Y-62703000D02*
X74221000Y-62703000D01*
%TO.N,/BREQ*%
X98343557Y-56403900D02*
X99554760Y-56403900D01*
%TO.N,/~{BE2}*%
X99323298Y-56962700D02*
X99744198Y-57383600D01*
%TO.N,/W{slash}~{R}*%
X99670492Y-56124500D02*
X99793392Y-56247400D01*
%TO.N,/BREQ*%
X77029950Y-69527000D02*
X88017151Y-58539800D01*
%TO.N,/~{KEN}*%
X92726196Y-55409200D02*
X90713196Y-57422200D01*
%TO.N,/~{BE2}*%
X96439118Y-59098600D02*
X98575019Y-56962700D01*
%TO.N,/~{KEN}*%
X110686000Y-54494000D02*
X110091400Y-53899400D01*
%TO.N,/~{BE3}*%
X99573008Y-57665000D02*
X112121126Y-57665000D01*
%TO.N,/HOLD*%
X102474657Y-54720300D02*
X101957841Y-54720300D01*
%TO.N,/HLDA*%
X90944660Y-57981000D02*
X87785688Y-57981000D01*
%TO.N,/~{KEN}*%
X108176603Y-53899300D02*
X98338850Y-53899300D01*
%TO.N,/~{RDY}*%
X87438493Y-57142800D02*
X90597463Y-57142800D01*
%TO.N,/HOLD*%
X102983357Y-55229000D02*
X102474657Y-54720300D01*
%TO.N,/~{BE3}*%
X112121126Y-57665000D02*
X112943000Y-56843126D01*
%TO.N,/BREQ*%
X96207657Y-58539800D02*
X98343557Y-56403900D01*
%TO.N,/W{slash}~{R}*%
X108394537Y-56305200D02*
X110261074Y-56305200D01*
X78023819Y-68138000D02*
X87901420Y-58260400D01*
X98227826Y-56124500D02*
X99670492Y-56124500D01*
%TO.N,/BREQ*%
X104245395Y-56658000D02*
X110218743Y-56658000D01*
%TO.N,/HOLD*%
X92841928Y-55688600D02*
X90828928Y-57701600D01*
%TO.N,/HLDA*%
X98112094Y-55845100D02*
X97989195Y-55968000D01*
%TO.N,/HOLD*%
X101112441Y-55565700D02*
X97996362Y-55565700D01*
%TO.N,/~{BS16}*%
X110731000Y-52073000D02*
X110189150Y-51531150D01*
%TO.N,/W{slash}~{R}*%
X111304126Y-55267000D02*
X111536000Y-55267000D01*
%TO.N,/HLDA*%
X92957660Y-55968000D02*
X90944660Y-57981000D01*
%TO.N,/HOLD*%
X110672000Y-55229000D02*
X102983357Y-55229000D01*
%TO.N,/~{RDY}*%
X108292435Y-53620000D02*
X110640000Y-53620000D01*
%TO.N,/W{slash}~{R}*%
X110790276Y-56441850D02*
X111067850Y-56164276D01*
%TO.N,/HLDA*%
X99829123Y-55888000D02*
X99786223Y-55845100D01*
%TO.N,/W{slash}~{R}*%
X87901420Y-58260400D02*
X96091925Y-58260400D01*
%TO.N,/~{BE3}*%
X112943000Y-56843126D02*
X112943000Y-56720000D01*
%TO.N,/HLDA*%
X103366657Y-55888000D02*
X99829123Y-55888000D01*
%TO.N,/W{slash}~{R}*%
X110397724Y-56441850D02*
X110790276Y-56441850D01*
%TO.N,/HLDA*%
X110594000Y-55968000D02*
X103446657Y-55968000D01*
%TO.N,/~{RDY}*%
X108292335Y-53619900D02*
X108292435Y-53620000D01*
X72186000Y-60230000D02*
X72787000Y-59629000D01*
%TO.N,/W{slash}~{R}*%
X99793392Y-56247400D02*
X103950925Y-56247400D01*
%TO.N,/~{BE1}*%
X76383082Y-70569000D02*
X74108700Y-70569000D01*
%TO.N,/~{BS8}*%
X94209830Y-53135302D02*
X90481732Y-56863400D01*
%TO.N,/BREQ*%
X110218743Y-56658000D02*
X110281993Y-56721250D01*
%TO.N,/HOLD*%
X87669956Y-57701600D02*
X82668556Y-62703000D01*
%TO.N,/HLDA*%
X103446657Y-55968000D02*
X103366657Y-55888000D01*
%TO.N,/~{RDY}*%
X94120363Y-53619900D02*
X108292335Y-53619900D01*
%TO.N,/~{BE1}*%
X98459287Y-56683300D02*
X96323387Y-58819200D01*
%TO.N,/~{BS16}*%
X87207029Y-56584000D02*
X85713030Y-58078000D01*
%TO.N,/~{BS8}*%
X73618000Y-58417000D02*
X73441000Y-58594000D01*
%TO.N,/W{slash}~{R}*%
X110261074Y-56305200D02*
X110397724Y-56441850D01*
%TO.N,/~{KEN}*%
X108176703Y-53899400D02*
X108176603Y-53899300D01*
%TO.N,/HOLD*%
X97996362Y-55565700D02*
X97873464Y-55688600D01*
%TO.N,/~{BE2}*%
X111732400Y-57383600D02*
X112274000Y-56842000D01*
%TO.N,/W{slash}~{R}*%
X108370737Y-56329000D02*
X108394537Y-56305200D01*
%TO.N,/~{BS8}*%
X85769161Y-58417000D02*
X73618000Y-58417000D01*
%TO.N,/~{KEN}*%
X96828950Y-55409200D02*
X92726196Y-55409200D01*
%TO.N,/BREQ*%
X88017151Y-58539800D02*
X96207657Y-58539800D01*
%TO.N,/W{slash}~{R}*%
X111067850Y-55503276D02*
X111304126Y-55267000D01*
%TO.N,/HOLD*%
X101957841Y-54720300D02*
X101112441Y-55565700D01*
%TO.N,/~{BE3}*%
X76172344Y-71570000D02*
X88364345Y-59378000D01*
%TO.N,/~{BS16}*%
X110189150Y-51531150D02*
X95418850Y-51531150D01*
%TO.N,/HLDA*%
X87785688Y-57981000D02*
X78210687Y-67556000D01*
%TO.N,/~{KEN}*%
X98338850Y-53899300D02*
X96828950Y-55409200D01*
%TO.N,/~{BE2}*%
X99744198Y-57383600D02*
X111732400Y-57383600D01*
%TO.N,VCC*%
X85090000Y-81153000D02*
X85090000Y-79972000D01*
X85090000Y-79972000D02*
X85100000Y-79962000D01*
D24*
X88103000Y-54275000D02*
X88103000Y-55243000D01*
X88103000Y-55243000D02*
X88014000Y-55332000D01*
%TO.N,GND*%
X86454000Y-55332000D02*
X86454000Y-54516000D01*
X86454000Y-54516000D02*
X86487000Y-54483000D01*
X116179600Y-55168800D02*
X116179600Y-55052852D01*
X116179600Y-55052852D02*
X115482748Y-54356000D01*
X115482748Y-54356000D02*
X115392200Y-54356000D01*
%TO.N,+1V2*%
X112728449Y-55650382D02*
X113565267Y-56487200D01*
X113565267Y-56487200D02*
X114011948Y-56487200D01*
X114011948Y-56487200D02*
X115406548Y-55092600D01*
X115406548Y-55092600D02*
X115468400Y-55092600D01*
X112728449Y-55650382D02*
X113259618Y-55650382D01*
X113259618Y-55650382D02*
X113766600Y-55143400D01*
X115526000Y-59254000D02*
X115526000Y-59022800D01*
X115526000Y-59022800D02*
X116205000Y-58343800D01*
D23*
%TO.N,/MA7*%
X134047592Y-62277052D02*
X134985755Y-62277052D01*
X133543340Y-61772800D02*
X134047592Y-62277052D01*
X134985755Y-62277052D02*
X135357571Y-61905236D01*
X122123200Y-61772800D02*
X133543340Y-61772800D01*
%TO.N,/MA5*%
X119329200Y-60706000D02*
X118902750Y-61132450D01*
X131022896Y-64517000D02*
X131330431Y-64209465D01*
%TO.N,/MA4*%
X130909164Y-64235600D02*
X131214700Y-63930065D01*
X119380000Y-62941200D02*
X120674400Y-64235600D01*
X132442069Y-63930065D02*
X132457972Y-63945968D01*
%TO.N,/MA5*%
X131330431Y-64209465D02*
X131847247Y-64209465D01*
%TO.N,/MA4*%
X131214700Y-63930065D02*
X132442069Y-63930065D01*
X120674400Y-64235600D02*
X130909164Y-64235600D01*
%TO.N,/MA5*%
X120280866Y-64517000D02*
X131022896Y-64517000D01*
X132323789Y-64686007D02*
X133482449Y-64686007D01*
X118902750Y-61132450D02*
X118902750Y-63138884D01*
X131847247Y-64209465D02*
X132323789Y-64686007D01*
X118902750Y-63138884D02*
X120280866Y-64517000D01*
%TO.N,/MA3*%
X118414800Y-63246000D02*
X119967200Y-64798400D01*
X131553924Y-64798400D02*
X131588839Y-64833315D01*
X119967200Y-64798400D02*
X131553924Y-64798400D01*
%TO.N,/MA6*%
X120091200Y-60655200D02*
X133192750Y-60655200D01*
X133192750Y-60655200D02*
X134212958Y-61675408D01*
%TO.N,/MA9*%
X137631641Y-59842400D02*
X138019262Y-59454779D01*
X119519593Y-59842400D02*
X137631641Y-59842400D01*
X119496323Y-59819130D02*
X119519593Y-59842400D01*
%TO.N,/DQM*%
X122980092Y-55100350D02*
X123879155Y-55999413D01*
X120116600Y-55245000D02*
X120261250Y-55100350D01*
X133490238Y-52999064D02*
X140587064Y-52999064D01*
X120261250Y-55100350D02*
X122980092Y-55100350D01*
X140587064Y-52999064D02*
X141652000Y-54064000D01*
X123879155Y-55999413D02*
X130489889Y-55999413D01*
X130489889Y-55999413D02*
X133490238Y-52999064D01*
%TO.N,/MCKE*%
X124263880Y-55375563D02*
X124852240Y-55375563D01*
X123269717Y-54381400D02*
X124263880Y-55375563D01*
X120167400Y-54381400D02*
X123269717Y-54381400D01*
D24*
%TO.N,VCC*%
X114787419Y-54208419D02*
X115401838Y-53594000D01*
X114147600Y-53568600D02*
X114787419Y-54208419D01*
X114298600Y-55449600D02*
X114298600Y-54697238D01*
X117754400Y-57581800D02*
X117779800Y-57556400D01*
X113792000Y-53568600D02*
X114147600Y-53568600D01*
X113792000Y-55956200D02*
X114298600Y-55449600D01*
X113792000Y-57581800D02*
X117754400Y-57581800D01*
X114298600Y-54697238D02*
X114787419Y-54208419D01*
X115401838Y-53594000D02*
X116967000Y-53594000D01*
%TD*%
M02*
