M48
; DRILL file {KiCad 9.0.8-9.0.8~ubuntu24.04.1} date 2026-03-23T18:39:41-0600
; FORMAT={-:-/ absolute / metric / decimal}
; #@! TF.CreationDate,2026-03-23T18:39:41-06:00
; #@! TF.GenerationSoftware,Kicad,Pcbnew,9.0.8-9.0.8~ubuntu24.04.1
; #@! TF.FileFunction,Plated,1,4,PTH
FMAT,2
METRIC
; #@! TA.AperFunction,Plated,PTH,ViaDrill
T1C0.300
; #@! TA.AperFunction,Plated,PTH,ViaDrill
T2C0.305
; #@! TA.AperFunction,Plated,PTH,ComponentDrill
T3C0.950
; #@! TA.AperFunction,Plated,PTH,ComponentDrill
T4C1.000
; #@! TA.AperFunction,Plated,PTH,ComponentDrill
T5C2.300
; #@! TA.AperFunction,Plated,PTH,ComponentDrill
T6C2.700
%
G90
G05
T1
X66.853Y-43.637
X68.834Y-55.626
X68.834Y-59.563
X68.834Y-65.024
X68.834Y-68.58
X68.834Y-80.645
X68.961Y-72.009
X68.961Y-73.533
X68.961Y-76.581
X70.121Y-46.168
X71.986Y-68.538
X72.009Y-72.517
X72.009Y-76.073
X72.114Y-74.911
X72.302Y-73.663
X72.39Y-54.991
X72.39Y-64.516
X72.39Y-67.056
X72.429Y-61.684
X72.495Y-70.944
X72.517Y-59.192
X72.566Y-69.696
X72.609Y-68.138
X72.667Y-75.561
X72.771Y-84.455
X72.907Y-73.059
X73.358Y-69.527
X73.406Y-81.153
X73.58Y-74.329
X73.586Y-61.932
X73.839Y-71.57
X73.86Y-70.32
X74.345Y-54.147
X74.422Y-84.582
X74.724Y-81.153
X76.327Y-81.026
X76.835Y-54.737
X77.089Y-81.153
X77.343Y-51.435
X77.343Y-84.709
X77.851Y-54.61
X81.026Y-81.153
X81.28Y-54.61
X82.169Y-54.483
X82.931Y-54.61
X82.961Y-88.695
X84.328Y-54.61
X84.84Y-88.796
X85.09Y-51.435
X85.09Y-81.153
X85.344Y-84.328
X85.471Y-54.483
X86.487Y-54.483
X86.84Y-81.309
X87.63Y-84.328
X88.103Y-54.275
X89.408Y-81.153
X89.662Y-51.308
X91.059Y-81.153
X91.059Y-84.455
X91.654Y-54.142
X91.948Y-84.48
X92.71Y-51.435
X92.964Y-81.28
X93.853Y-81.28
X94.894Y-34.493
X95.123Y-81.28
X95.199Y-42.748
X95.838Y-54.197
X97.409Y-81.153
X98.425Y-81.28
X98.552Y-75.438
X98.679Y-65.532
X98.679Y-67.564
X98.679Y-73.025
X98.679Y-78.105
X98.83Y-55.033
X98.949Y-57.866
X99.023Y-60.219
X99.314Y-52.832
X102.216Y-55.344
X102.233Y-65.29
X102.235Y-66.167
X102.362Y-76.073
X102.362Y-80.518
X102.489Y-72.644
X102.87Y-79.629
X103.251Y-77.597
X103.607Y-35.433
X103.607Y-38.608
X105.308Y-59.69
X106.731Y-74.219
X106.764Y-65.57
X106.771Y-63.238
X107.137Y-68.123
X107.298Y-59.835
X107.721Y-43.815
X107.918Y-54.523
X108.572Y-42.293
X108.585Y-41.554
X108.585Y-43.815
X108.614Y-40.949
X108.614Y-62.728
X108.737Y-49.251
X108.864Y-42.824
X109.828Y-52.005
X110.439Y-49.276
X110.594Y-55.968
X110.64Y-53.62
X110.669Y-58.262
X110.672Y-55.229
X110.68Y-60.642
X110.686Y-54.494
X110.694Y-59.82
X110.714Y-65.57
X110.731Y-52.073
X110.745Y-52.879
X111.082Y-63.947
X111.455Y-51.232
X111.455Y-52.045
X111.455Y-52.832
X111.492Y-58.259
X111.492Y-59.248
X111.522Y-56.864
X111.536Y-55.267
X111.549Y-56.13
X112.046Y-60.07
X112.116Y-34.493
X112.268Y-52.832
X112.27Y-58.295
X112.274Y-56.842
X112.29Y-59.267
X112.293Y-42.723
X112.307Y-60.617
X112.943Y-56.72
X113.047Y-59.109
X113.055Y-52.705
X113.074Y-59.856
X113.081Y-51.283
X113.449Y-66.666
X113.767Y-55.143
X113.792Y-53.569
X113.792Y-55.956
X113.792Y-57.582
X113.895Y-51.256
X113.93Y-60.655
X114.331Y-64.831
X114.67Y-60.671
X114.7Y-51.289
X114.875Y-42.283
X114.926Y-43.909
X114.975Y-65.886
X115.231Y-63.453
X115.391Y-64.221
X115.392Y-54.356
X115.392Y-55.956
X115.392Y-56.769
X115.417Y-51.19
X115.451Y-59.896
X115.468Y-55.093
X115.926Y-67.005
X116.042Y-60.516
X116.18Y-55.169
X116.18Y-56.769
X116.205Y-58.344
X116.627Y-64.421
X116.819Y-48.564
X116.849Y-51.263
X116.887Y-74.728
X116.939Y-58.404
X116.967Y-53.594
X117.018Y-59.131
X117.123Y-81.762
X117.193Y-64.638
X117.526Y-63.119
X117.576Y-74.959
X117.728Y-51.221
X117.78Y-57.556
X117.831Y-59.919
X117.856Y-59.08
X117.907Y-55.016
X118.054Y-56.937
X118.139Y-48.569
X118.375Y-51.325
X118.462Y-73.36
X118.731Y-56.869
X118.731Y-59.854
X118.821Y-57.707
X119.008Y-73.096
X119.304Y-56.032
X119.329Y-60.706
X119.355Y-58.395
X119.367Y-48.202
X119.38Y-55.169
X119.491Y-56.622
X119.496Y-59.819
X119.531Y-57.67
X119.662Y-72.976
X120.091Y-58.471
X120.091Y-60.655
X120.117Y-55.245
X120.117Y-56.845
X120.167Y-54.381
X120.193Y-59.182
X120.249Y-72.609
X120.471Y-45.43
X120.508Y-43.476
X120.954Y-48.224
X120.955Y-51.994
X122.225Y-55.575
X122.453Y-48.895
X122.455Y-63.042
X122.485Y-45.435
X122.521Y-43.435
X124.395Y-57.809
X124.467Y-53.626
X124.852Y-55.376
X125.832Y-57.766
X128.66Y-52.538
X128.778Y-69.723
X130.803Y-62.381
X130.928Y-46.035
X131.589Y-64.833
X131.757Y-73.758
X131.773Y-44.692
X132.129Y-55.638
X132.331Y-48.123
X132.45Y-62.324
X132.458Y-63.946
X132.568Y-70.729
X132.663Y-59.071
X132.743Y-66.171
X132.903Y-55.638
X133.17Y-47.965
X133.343Y-73.805
X133.482Y-64.686
X133.576Y-62.688
X133.794Y-44.413
X133.925Y-58.812
X133.966Y-65.934
X134.119Y-70.716
X134.213Y-61.675
X134.468Y-48.001
X134.989Y-55.638
X135.006Y-73.88
X135.254Y-58.939
X135.328Y-68.413
X135.358Y-61.905
X135.607Y-62.608
X135.707Y-70.741
X135.769Y-65.095
X135.814Y-44.593
X135.995Y-58.924
X136.237Y-55.638
X136.581Y-48.001
X136.595Y-63.336
X136.595Y-73.742
X136.614Y-53.623
X137.159Y-86.428
X137.357Y-70.766
X137.394Y-44.662
X137.413Y-62.186
X137.522Y-58.896
X137.735Y-54.111
X137.749Y-55.638
X137.925Y-64.358
X138.019Y-59.455
X138.145Y-73.78
X138.2Y-47.942
X138.481Y-55.858
X138.933Y-70.741
X138.982Y-54.229
X139.112Y-47.914
X139.274Y-55.662
X139.438Y-63.061
X139.734Y-59.344
X139.771Y-73.68
X139.863Y-62.083
X139.901Y-47.914
X139.976Y-55.285
X140.255Y-56.445
X140.509Y-54.039
X140.534Y-70.704
X140.585Y-44.588
X140.738Y-78.924
X140.936Y-63.397
X141.54Y-59.309
X141.652Y-54.064
X141.702Y-52.258
X141.728Y-56.187
X142.103Y-55.154
X142.139Y-73.728
X142.145Y-62.325
X142.151Y-44.633
X143.715Y-73.669
X143.736Y-44.641
X144.383Y-52.132
X144.386Y-56.235
X144.436Y-70.716
X144.715Y-48.082
X145.06Y-62.188
X145.228Y-52.538
X145.815Y-55.339
X146.111Y-44.739
X146.138Y-73.659
X146.362Y-51.098
X146.439Y-56.52
X146.921Y-86.416
X146.951Y-47.872
X147.037Y-73.692
X147.296Y-62.128
X147.386Y-53.096
X148.543Y-44.622
X148.567Y-62.276
X148.601Y-73.709
X148.62Y-55.054
X149.243Y-51.731
X149.375Y-56.185
X149.438Y-73.617
X149.562Y-48.397
X149.892Y-53.112
X149.892Y-62.263
X150.727Y-62.289
X150.784Y-55.185
X150.905Y-73.64
X150.933Y-44.68
X151.393Y-53.719
X151.393Y-63.433
X151.764Y-73.842
X151.873Y-47.977
X151.99Y-50.425
X152.062Y-56.272
X152.393Y-44.792
X152.58Y-73.58
X152.609Y-55.152
X152.707Y-62.35
X155.378Y-45.13
T2
X72.186Y-60.23
X72.277Y-58.078
X72.299Y-79.537
X72.383Y-78.484
X72.484Y-77.234
X72.885Y-60.74
X72.901Y-57.568
X73.08Y-80.039
X73.092Y-79.042
X73.181Y-77.859
X73.198Y-67.556
X73.441Y-58.594
X74.221Y-62.703
X76.131Y-80.175
X78.82Y-80.755
X79.384Y-81.542
X82.34Y-81.363
X82.87Y-80.683
X84.125Y-81.137
X105.999Y-60.788
X106.557Y-61.584
X112.587Y-62.757
X116.332Y-42.621
X117.856Y-35.41
X118.11Y-40.335
X118.415Y-63.246
X118.444Y-41.283
X119.292Y-41.45
X119.38Y-62.941
X120.733Y-41.265
X121.809Y-41.481
X122.123Y-61.773
X122.46Y-41.213
X124.751Y-44.653
X126.742Y-39.495
X127.773Y-41.786
T3
X133.423Y-39.261
X135.923Y-39.261
X137.923Y-39.261
X140.423Y-39.261
T4
X114.912Y-77.613
X115.113Y-86.765
X117.452Y-77.613
X117.653Y-86.765
X119.992Y-77.613
X120.193Y-86.765
X122.532Y-77.613
X122.733Y-86.765
X125.072Y-77.613
X125.273Y-86.765
X127.612Y-77.613
X127.813Y-86.765
X130.152Y-77.613
X130.353Y-86.765
X132.692Y-77.613
X132.893Y-86.765
T5
X130.353Y-36.551
X143.493Y-36.551
T6
X55.88Y-38.1
X55.88Y-85.09
X154.94Y-38.1
X154.94Y-85.09
M30
