%TF.GenerationSoftware,KiCad,Pcbnew,9.0.8-9.0.8~ubuntu24.04.1*%
%TF.CreationDate,2026-03-23T18:39:46-06:00*%
%TF.ProjectId,Neo486FPGA,4e656f34-3836-4465-9047-412e6b696361,rev?*%
%TF.SameCoordinates,Original*%
%TF.FileFunction,Paste,Top*%
%TF.FilePolarity,Positive*%
%FSLAX46Y46*%
G04 Gerber Fmt 4.6, Leading zero omitted, Abs format (unit mm)*
G04 Created by KiCad (PCBNEW 9.0.8-9.0.8~ubuntu24.04.1) date 2026-03-23 18:39:46*
%MOMM*%
%LPD*%
G01*
G04 APERTURE LIST*
G04 Aperture macros list*
%AMRoundRect*
0 Rectangle with rounded corners*
0 $1 Rounding radius*
0 $2 $3 $4 $5 $6 $7 $8 $9 X,Y pos of 4 corners*
0 Add a 4 corners polygon primitive as box body*
4,1,4,$2,$3,$4,$5,$6,$7,$8,$9,$2,$3,0*
0 Add four circle primitives for the rounded corners*
1,1,$1+$1,$2,$3*
1,1,$1+$1,$4,$5*
1,1,$1+$1,$6,$7*
1,1,$1+$1,$8,$9*
0 Add four rect primitives between the rounded corners*
20,1,$1+$1,$2,$3,$4,$5,0*
20,1,$1+$1,$4,$5,$6,$7,0*
20,1,$1+$1,$6,$7,$8,$9,0*
20,1,$1+$1,$8,$9,$2,$3,0*%
G04 Aperture macros list end*
%ADD10RoundRect,0.200000X0.200000X0.275000X-0.200000X0.275000X-0.200000X-0.275000X0.200000X-0.275000X0*%
%ADD11RoundRect,0.200000X-0.200000X-0.275000X0.200000X-0.275000X0.200000X0.275000X-0.200000X0.275000X0*%
%ADD12RoundRect,0.225000X0.250000X-0.225000X0.250000X0.225000X-0.250000X0.225000X-0.250000X-0.225000X0*%
%ADD13RoundRect,0.243750X0.456250X-0.243750X0.456250X0.243750X-0.456250X0.243750X-0.456250X-0.243750X0*%
%ADD14RoundRect,0.200000X0.275000X-0.200000X0.275000X0.200000X-0.275000X0.200000X-0.275000X-0.200000X0*%
%ADD15RoundRect,0.200000X-0.053033X0.335876X-0.335876X0.053033X0.053033X-0.335876X0.335876X-0.053033X0*%
%ADD16RoundRect,0.250000X-0.650000X-0.750000X0.650000X-0.750000X0.650000X0.750000X-0.650000X0.750000X0*%
%ADD17RoundRect,0.250000X-0.275000X-0.275000X0.275000X-0.275000X0.275000X0.275000X-0.275000X0.275000X0*%
%ADD18RoundRect,0.062500X-0.350000X-0.062500X0.350000X-0.062500X0.350000X0.062500X-0.350000X0.062500X0*%
%ADD19RoundRect,0.062500X-0.062500X-0.350000X0.062500X-0.350000X0.062500X0.350000X-0.062500X0.350000X0*%
%ADD20RoundRect,0.225000X0.225000X0.250000X-0.225000X0.250000X-0.225000X-0.250000X0.225000X-0.250000X0*%
%ADD21RoundRect,0.225000X-0.225000X-0.250000X0.225000X-0.250000X0.225000X0.250000X-0.225000X0.250000X0*%
%ADD22RoundRect,0.225000X-0.250000X0.225000X-0.250000X-0.225000X0.250000X-0.225000X0.250000X0.225000X0*%
%ADD23R,0.600000X1.295000*%
%ADD24RoundRect,0.075000X-0.662500X-0.075000X0.662500X-0.075000X0.662500X0.075000X-0.662500X0.075000X0*%
%ADD25RoundRect,0.075000X-0.075000X-0.662500X0.075000X-0.662500X0.075000X0.662500X-0.075000X0.662500X0*%
%ADD26C,0.320000*%
G04 APERTURE END LIST*
D10*
%TO.C,R9*%
X126666000Y-41798000D03*
X125016000Y-41798000D03*
%TD*%
%TO.C,R8*%
X145950000Y-86375000D03*
X144310000Y-86375000D03*
%TD*%
D11*
%TO.C,R7*%
X138265000Y-86380000D03*
X139905000Y-86380000D03*
%TD*%
D12*
%TO.C,C17*%
X128088000Y-40325000D03*
X128088000Y-38765000D03*
%TD*%
D13*
%TO.C,D2*%
X127508000Y-69771500D03*
X127508000Y-67896500D03*
%TD*%
%TO.C,D1*%
X125476000Y-69771500D03*
X125476000Y-67896500D03*
%TD*%
D14*
%TO.C,R6*%
X128905000Y-61785000D03*
X128905000Y-60135000D03*
%TD*%
%TO.C,R5*%
X127127000Y-61785000D03*
X127127000Y-60135000D03*
%TD*%
D11*
%TO.C,R4*%
X83000000Y-87630000D03*
X84640000Y-87630000D03*
%TD*%
D15*
%TO.C,R3*%
X106040628Y-74959772D03*
X104880972Y-76119428D03*
%TD*%
%TO.C,R2*%
X106345428Y-68863772D03*
X105185772Y-70023428D03*
%TD*%
D10*
%TO.C,R1*%
X104452000Y-60248800D03*
X102812000Y-60248800D03*
%TD*%
D16*
%TO.C,Y1*%
X119994500Y-39502000D03*
X125074500Y-39502000D03*
X125074500Y-35502000D03*
X119994500Y-35502000D03*
%TD*%
D17*
%TO.C,U3*%
X120859500Y-43792000D03*
X120859500Y-45092000D03*
X122159500Y-43792000D03*
X122159500Y-45092000D03*
D18*
X119572000Y-43192000D03*
X119572000Y-43692000D03*
X119572000Y-44192000D03*
X119572000Y-44692000D03*
X119572000Y-45192000D03*
X119572000Y-45692000D03*
D19*
X120259500Y-46379500D03*
X120759500Y-46379500D03*
X121259500Y-46379500D03*
X121759500Y-46379500D03*
X122259500Y-46379500D03*
X122759500Y-46379500D03*
D18*
X123447000Y-45692000D03*
X123447000Y-45192000D03*
X123447000Y-44692000D03*
X123447000Y-44192000D03*
X123447000Y-43692000D03*
X123447000Y-43192000D03*
D19*
X122759500Y-42504500D03*
X122259500Y-42504500D03*
X121759500Y-42504500D03*
X121259500Y-42504500D03*
X120759500Y-42504500D03*
X120259500Y-42504500D03*
%TD*%
D20*
%TO.C,C3*%
X67444000Y-55581000D03*
X65884000Y-55581000D03*
%TD*%
D21*
%TO.C,C4*%
X65734000Y-59527000D03*
X67294000Y-59527000D03*
%TD*%
D22*
%TO.C,C5*%
X129514600Y-44482800D03*
X129514600Y-46042800D03*
%TD*%
D21*
%TO.C,C12*%
X116120000Y-65838000D03*
X117680000Y-65838000D03*
%TD*%
D22*
%TO.C,C7*%
X129358000Y-65531000D03*
X129358000Y-67091000D03*
%TD*%
%TO.C,C1*%
X155115000Y-65862000D03*
X155115000Y-67422000D03*
%TD*%
D20*
%TO.C,C8*%
X150529000Y-43142000D03*
X148969000Y-43142000D03*
%TD*%
D22*
%TO.C,C2*%
X155177000Y-51455000D03*
X155177000Y-53015000D03*
%TD*%
D12*
%TO.C,C9*%
X113808000Y-43876000D03*
X113808000Y-42316000D03*
%TD*%
D23*
%TO.C,IC2*%
X152538400Y-60566000D03*
X151738400Y-60566000D03*
X150938400Y-60566000D03*
X150138400Y-60566000D03*
X149338400Y-60566000D03*
X148538400Y-60566000D03*
X147738400Y-60566000D03*
X146938400Y-60566000D03*
X146138400Y-60566000D03*
X145338400Y-60566000D03*
X144538400Y-60566000D03*
X143738400Y-60566000D03*
X142938400Y-60566000D03*
X142138400Y-60566000D03*
X141338400Y-60566000D03*
X140538400Y-60566000D03*
X139738400Y-60566000D03*
X138938400Y-60566000D03*
X138138400Y-60566000D03*
X137338400Y-60566000D03*
X136538400Y-60566000D03*
X135738400Y-60566000D03*
X134938400Y-60566000D03*
X134138400Y-60566000D03*
X133338400Y-60566000D03*
X132538400Y-60566000D03*
X131738400Y-60566000D03*
X131738400Y-72022000D03*
X132538400Y-72022000D03*
X133338400Y-72022000D03*
X134138400Y-72022000D03*
X134938400Y-72022000D03*
X135738400Y-72022000D03*
X136538400Y-72022000D03*
X137338400Y-72022000D03*
X138138400Y-72022000D03*
X138938400Y-72022000D03*
X139738400Y-72022000D03*
X140538400Y-72022000D03*
X141338400Y-72022000D03*
X142138400Y-72022000D03*
X142938400Y-72022000D03*
X143738400Y-72022000D03*
X144538400Y-72022000D03*
X145338400Y-72022000D03*
X146138400Y-72022000D03*
X146938400Y-72022000D03*
X147738400Y-72022000D03*
X148538400Y-72022000D03*
X149338400Y-72022000D03*
X150138400Y-72022000D03*
X150938400Y-72022000D03*
X151738400Y-72022000D03*
X152538400Y-72022000D03*
%TD*%
D21*
%TO.C,C6*%
X148986000Y-75410000D03*
X150546000Y-75410000D03*
%TD*%
D24*
%TO.C,U1*%
X70635500Y-55068000D03*
X70635500Y-55568000D03*
X70635500Y-56068000D03*
X70635500Y-56568000D03*
X70635500Y-57068000D03*
X70635500Y-57568000D03*
X70635500Y-58068000D03*
X70635500Y-58568000D03*
X70635500Y-59068000D03*
X70635500Y-59568000D03*
X70635500Y-60068000D03*
X70635500Y-60568000D03*
X70635500Y-61068000D03*
X70635500Y-61568000D03*
X70635500Y-62068000D03*
X70635500Y-62568000D03*
X70635500Y-63068000D03*
X70635500Y-63568000D03*
X70635500Y-64068000D03*
X70635500Y-64568000D03*
X70635500Y-65068000D03*
X70635500Y-65568000D03*
X70635500Y-66068000D03*
X70635500Y-66568000D03*
X70635500Y-67068000D03*
X70635500Y-67568000D03*
X70635500Y-68068000D03*
X70635500Y-68568000D03*
X70635500Y-69068000D03*
X70635500Y-69568000D03*
X70635500Y-70068000D03*
X70635500Y-70568000D03*
X70635500Y-71068000D03*
X70635500Y-71568000D03*
X70635500Y-72068000D03*
X70635500Y-72568000D03*
X70635500Y-73068000D03*
X70635500Y-73568000D03*
X70635500Y-74068000D03*
X70635500Y-74568000D03*
X70635500Y-75068000D03*
X70635500Y-75568000D03*
X70635500Y-76068000D03*
X70635500Y-76568000D03*
X70635500Y-77068000D03*
X70635500Y-77568000D03*
X70635500Y-78068000D03*
X70635500Y-78568000D03*
X70635500Y-79068000D03*
X70635500Y-79568000D03*
X70635500Y-80068000D03*
X70635500Y-80568000D03*
D25*
X72848000Y-82780500D03*
X73348000Y-82780500D03*
X73848000Y-82780500D03*
X74348000Y-82780500D03*
X74848000Y-82780500D03*
X75348000Y-82780500D03*
X75848000Y-82780500D03*
X76348000Y-82780500D03*
X76848000Y-82780500D03*
X77348000Y-82780500D03*
X77848000Y-82780500D03*
X78348000Y-82780500D03*
X78848000Y-82780500D03*
X79348000Y-82780500D03*
X79848000Y-82780500D03*
X80348000Y-82780500D03*
X80848000Y-82780500D03*
X81348000Y-82780500D03*
X81848000Y-82780500D03*
X82348000Y-82780500D03*
X82848000Y-82780500D03*
X83348000Y-82780500D03*
X83848000Y-82780500D03*
X84348000Y-82780500D03*
X84848000Y-82780500D03*
X85348000Y-82780500D03*
X85848000Y-82780500D03*
X86348000Y-82780500D03*
X86848000Y-82780500D03*
X87348000Y-82780500D03*
X87848000Y-82780500D03*
X88348000Y-82780500D03*
X88848000Y-82780500D03*
X89348000Y-82780500D03*
X89848000Y-82780500D03*
X90348000Y-82780500D03*
X90848000Y-82780500D03*
X91348000Y-82780500D03*
X91848000Y-82780500D03*
X92348000Y-82780500D03*
X92848000Y-82780500D03*
X93348000Y-82780500D03*
X93848000Y-82780500D03*
X94348000Y-82780500D03*
X94848000Y-82780500D03*
X95348000Y-82780500D03*
X95848000Y-82780500D03*
X96348000Y-82780500D03*
X96848000Y-82780500D03*
X97348000Y-82780500D03*
X97848000Y-82780500D03*
X98348000Y-82780500D03*
D24*
X100560500Y-80568000D03*
X100560500Y-80068000D03*
X100560500Y-79568000D03*
X100560500Y-79068000D03*
X100560500Y-78568000D03*
X100560500Y-78068000D03*
X100560500Y-77568000D03*
X100560500Y-77068000D03*
X100560500Y-76568000D03*
X100560500Y-76068000D03*
X100560500Y-75568000D03*
X100560500Y-75068000D03*
X100560500Y-74568000D03*
X100560500Y-74068000D03*
X100560500Y-73568000D03*
X100560500Y-73068000D03*
X100560500Y-72568000D03*
X100560500Y-72068000D03*
X100560500Y-71568000D03*
X100560500Y-71068000D03*
X100560500Y-70568000D03*
X100560500Y-70068000D03*
X100560500Y-69568000D03*
X100560500Y-69068000D03*
X100560500Y-68568000D03*
X100560500Y-68068000D03*
X100560500Y-67568000D03*
X100560500Y-67068000D03*
X100560500Y-66568000D03*
X100560500Y-66068000D03*
X100560500Y-65568000D03*
X100560500Y-65068000D03*
X100560500Y-64568000D03*
X100560500Y-64068000D03*
X100560500Y-63568000D03*
X100560500Y-63068000D03*
X100560500Y-62568000D03*
X100560500Y-62068000D03*
X100560500Y-61568000D03*
X100560500Y-61068000D03*
X100560500Y-60568000D03*
X100560500Y-60068000D03*
X100560500Y-59568000D03*
X100560500Y-59068000D03*
X100560500Y-58568000D03*
X100560500Y-58068000D03*
X100560500Y-57568000D03*
X100560500Y-57068000D03*
X100560500Y-56568000D03*
X100560500Y-56068000D03*
X100560500Y-55568000D03*
X100560500Y-55068000D03*
D25*
X98348000Y-52855500D03*
X97848000Y-52855500D03*
X97348000Y-52855500D03*
X96848000Y-52855500D03*
X96348000Y-52855500D03*
X95848000Y-52855500D03*
X95348000Y-52855500D03*
X94848000Y-52855500D03*
X94348000Y-52855500D03*
X93848000Y-52855500D03*
X93348000Y-52855500D03*
X92848000Y-52855500D03*
X92348000Y-52855500D03*
X91848000Y-52855500D03*
X91348000Y-52855500D03*
X90848000Y-52855500D03*
X90348000Y-52855500D03*
X89848000Y-52855500D03*
X89348000Y-52855500D03*
X88848000Y-52855500D03*
X88348000Y-52855500D03*
X87848000Y-52855500D03*
X87348000Y-52855500D03*
X86848000Y-52855500D03*
X86348000Y-52855500D03*
X85848000Y-52855500D03*
X85348000Y-52855500D03*
X84848000Y-52855500D03*
X84348000Y-52855500D03*
X83848000Y-52855500D03*
X83348000Y-52855500D03*
X82848000Y-52855500D03*
X82348000Y-52855500D03*
X81848000Y-52855500D03*
X81348000Y-52855500D03*
X80848000Y-52855500D03*
X80348000Y-52855500D03*
X79848000Y-52855500D03*
X79348000Y-52855500D03*
X78848000Y-52855500D03*
X78348000Y-52855500D03*
X77848000Y-52855500D03*
X77348000Y-52855500D03*
X76848000Y-52855500D03*
X76348000Y-52855500D03*
X75848000Y-52855500D03*
X75348000Y-52855500D03*
X74848000Y-52855500D03*
X74348000Y-52855500D03*
X73848000Y-52855500D03*
X73348000Y-52855500D03*
X72848000Y-52855500D03*
%TD*%
D26*
%TO.C,U2*%
X109388500Y-49962000D03*
X110188500Y-49962000D03*
X110988500Y-49962000D03*
X111788500Y-49962000D03*
X112588500Y-49962000D03*
X113388500Y-49962000D03*
X114188500Y-49962000D03*
X114988500Y-49962000D03*
X115788500Y-49962000D03*
X116588500Y-49962000D03*
X117388500Y-49962000D03*
X118188500Y-49962000D03*
X118988500Y-49962000D03*
X119788500Y-49962000D03*
X120588500Y-49962000D03*
X121388500Y-49962000D03*
X109388500Y-50762000D03*
X110188500Y-50762000D03*
X110988500Y-50762000D03*
X111788500Y-50762000D03*
X112588500Y-50762000D03*
X113388500Y-50762000D03*
X114188500Y-50762000D03*
X114988500Y-50762000D03*
X115788500Y-50762000D03*
X116588500Y-50762000D03*
X117388500Y-50762000D03*
X118188500Y-50762000D03*
X118988500Y-50762000D03*
X119788500Y-50762000D03*
X120588500Y-50762000D03*
X121388500Y-50762000D03*
X109388500Y-51562000D03*
X110188500Y-51562000D03*
X110988500Y-51562000D03*
X111788500Y-51562000D03*
X112588500Y-51562000D03*
X113388500Y-51562000D03*
X114188500Y-51562000D03*
X114988500Y-51562000D03*
X115788500Y-51562000D03*
X116588500Y-51562000D03*
X117388500Y-51562000D03*
X118188500Y-51562000D03*
X118988500Y-51562000D03*
X119788500Y-51562000D03*
X120588500Y-51562000D03*
X121388500Y-51562000D03*
X109388500Y-52362000D03*
X110188500Y-52362000D03*
X110988500Y-52362000D03*
X111788500Y-52362000D03*
X112588500Y-52362000D03*
X113388500Y-52362000D03*
X114188500Y-52362000D03*
X114988500Y-52362000D03*
X115788500Y-52362000D03*
X116588500Y-52362000D03*
X117388500Y-52362000D03*
X118188500Y-52362000D03*
X118988500Y-52362000D03*
X119788500Y-52362000D03*
X120588500Y-52362000D03*
X121388500Y-52362000D03*
X109388500Y-53162000D03*
X110188500Y-53162000D03*
X110988500Y-53162000D03*
X111788500Y-53162000D03*
X112588500Y-53162000D03*
X113388500Y-53162000D03*
X114188500Y-53162000D03*
X114988500Y-53162000D03*
X115788500Y-53162000D03*
X116588500Y-53162000D03*
X117388500Y-53162000D03*
X118188500Y-53162000D03*
X118988500Y-53162000D03*
X119788500Y-53162000D03*
X120588500Y-53162000D03*
X121388500Y-53162000D03*
X109388500Y-53962000D03*
X110188500Y-53962000D03*
X110988500Y-53962000D03*
X111788500Y-53962000D03*
X112588500Y-53962000D03*
X113388500Y-53962000D03*
X114188500Y-53962000D03*
X114988500Y-53962000D03*
X115788500Y-53962000D03*
X116588500Y-53962000D03*
X117388500Y-53962000D03*
X118188500Y-53962000D03*
X118988500Y-53962000D03*
X119788500Y-53962000D03*
X120588500Y-53962000D03*
X121388500Y-53962000D03*
X109388500Y-54762000D03*
X110188500Y-54762000D03*
X110988500Y-54762000D03*
X111788500Y-54762000D03*
X112588500Y-54762000D03*
X113388500Y-54762000D03*
X114188500Y-54762000D03*
X114988500Y-54762000D03*
X115788500Y-54762000D03*
X116588500Y-54762000D03*
X117388500Y-54762000D03*
X118188500Y-54762000D03*
X118988500Y-54762000D03*
X119788500Y-54762000D03*
X120588500Y-54762000D03*
X121388500Y-54762000D03*
X109388500Y-55562000D03*
X110188500Y-55562000D03*
X110988500Y-55562000D03*
X111788500Y-55562000D03*
X112588500Y-55562000D03*
X113388500Y-55562000D03*
X114188500Y-55562000D03*
X114988500Y-55562000D03*
X115788500Y-55562000D03*
X116588500Y-55562000D03*
X117388500Y-55562000D03*
X118188500Y-55562000D03*
X118988500Y-55562000D03*
X119788500Y-55562000D03*
X120588500Y-55562000D03*
X121388500Y-55562000D03*
X109388500Y-56362000D03*
X110188500Y-56362000D03*
X110988500Y-56362000D03*
X111788500Y-56362000D03*
X112588500Y-56362000D03*
X113388500Y-56362000D03*
X114188500Y-56362000D03*
X114988500Y-56362000D03*
X115788500Y-56362000D03*
X116588500Y-56362000D03*
X117388500Y-56362000D03*
X118188500Y-56362000D03*
X118988500Y-56362000D03*
X119788500Y-56362000D03*
X120588500Y-56362000D03*
X121388500Y-56362000D03*
X109388500Y-57162000D03*
X110188500Y-57162000D03*
X110988500Y-57162000D03*
X111788500Y-57162000D03*
X112588500Y-57162000D03*
X113388500Y-57162000D03*
X114188500Y-57162000D03*
X114988500Y-57162000D03*
X115788500Y-57162000D03*
X116588500Y-57162000D03*
X117388500Y-57162000D03*
X118188500Y-57162000D03*
X118988500Y-57162000D03*
X119788500Y-57162000D03*
X120588500Y-57162000D03*
X121388500Y-57162000D03*
X109388500Y-57962000D03*
X110188500Y-57962000D03*
X110988500Y-57962000D03*
X111788500Y-57962000D03*
X112588500Y-57962000D03*
X113388500Y-57962000D03*
X114188500Y-57962000D03*
X114988500Y-57962000D03*
X115788500Y-57962000D03*
X116588500Y-57962000D03*
X117388500Y-57962000D03*
X118188500Y-57962000D03*
X118988500Y-57962000D03*
X119788500Y-57962000D03*
X120588500Y-57962000D03*
X121388500Y-57962000D03*
X109388500Y-58762000D03*
X110188500Y-58762000D03*
X110988500Y-58762000D03*
X111788500Y-58762000D03*
X112588500Y-58762000D03*
X113388500Y-58762000D03*
X114188500Y-58762000D03*
X114988500Y-58762000D03*
X115788500Y-58762000D03*
X116588500Y-58762000D03*
X117388500Y-58762000D03*
X118188500Y-58762000D03*
X118988500Y-58762000D03*
X119788500Y-58762000D03*
X120588500Y-58762000D03*
X121388500Y-58762000D03*
X109388500Y-59562000D03*
X110188500Y-59562000D03*
X110988500Y-59562000D03*
X111788500Y-59562000D03*
X112588500Y-59562000D03*
X113388500Y-59562000D03*
X114188500Y-59562000D03*
X114988500Y-59562000D03*
X115788500Y-59562000D03*
X116588500Y-59562000D03*
X117388500Y-59562000D03*
X118188500Y-59562000D03*
X118988500Y-59562000D03*
X119788500Y-59562000D03*
X120588500Y-59562000D03*
X121388500Y-59562000D03*
X109388500Y-60362000D03*
X110188500Y-60362000D03*
X110988500Y-60362000D03*
X111788500Y-60362000D03*
X112588500Y-60362000D03*
X113388500Y-60362000D03*
X114188500Y-60362000D03*
X114988500Y-60362000D03*
X115788500Y-60362000D03*
X116588500Y-60362000D03*
X117388500Y-60362000D03*
X118188500Y-60362000D03*
X118988500Y-60362000D03*
X119788500Y-60362000D03*
X120588500Y-60362000D03*
X121388500Y-60362000D03*
X109388500Y-61162000D03*
X110188500Y-61162000D03*
X110988500Y-61162000D03*
X111788500Y-61162000D03*
X112588500Y-61162000D03*
X113388500Y-61162000D03*
X114188500Y-61162000D03*
X114988500Y-61162000D03*
X115788500Y-61162000D03*
X116588500Y-61162000D03*
X117388500Y-61162000D03*
X118188500Y-61162000D03*
X118988500Y-61162000D03*
X119788500Y-61162000D03*
X120588500Y-61162000D03*
X121388500Y-61162000D03*
X109388500Y-61962000D03*
X110188500Y-61962000D03*
X110988500Y-61962000D03*
X111788500Y-61962000D03*
X112588500Y-61962000D03*
X113388500Y-61962000D03*
X114188500Y-61962000D03*
X114988500Y-61962000D03*
X115788500Y-61962000D03*
X116588500Y-61962000D03*
X117388500Y-61962000D03*
X118188500Y-61962000D03*
X118988500Y-61962000D03*
X119788500Y-61962000D03*
X120588500Y-61962000D03*
X121388500Y-61962000D03*
%TD*%
D23*
%TO.C,IC1*%
X152538400Y-46266000D03*
X151738400Y-46266000D03*
X150938400Y-46266000D03*
X150138400Y-46266000D03*
X149338400Y-46266000D03*
X148538400Y-46266000D03*
X147738400Y-46266000D03*
X146938400Y-46266000D03*
X146138400Y-46266000D03*
X145338400Y-46266000D03*
X144538400Y-46266000D03*
X143738400Y-46266000D03*
X142938400Y-46266000D03*
X142138400Y-46266000D03*
X141338400Y-46266000D03*
X140538400Y-46266000D03*
X139738400Y-46266000D03*
X138938400Y-46266000D03*
X138138400Y-46266000D03*
X137338400Y-46266000D03*
X136538400Y-46266000D03*
X135738400Y-46266000D03*
X134938400Y-46266000D03*
X134138400Y-46266000D03*
X133338400Y-46266000D03*
X132538400Y-46266000D03*
X131738400Y-46266000D03*
X131738400Y-57722000D03*
X132538400Y-57722000D03*
X133338400Y-57722000D03*
X134138400Y-57722000D03*
X134938400Y-57722000D03*
X135738400Y-57722000D03*
X136538400Y-57722000D03*
X137338400Y-57722000D03*
X138138400Y-57722000D03*
X138938400Y-57722000D03*
X139738400Y-57722000D03*
X140538400Y-57722000D03*
X141338400Y-57722000D03*
X142138400Y-57722000D03*
X142938400Y-57722000D03*
X143738400Y-57722000D03*
X144538400Y-57722000D03*
X145338400Y-57722000D03*
X146138400Y-57722000D03*
X146938400Y-57722000D03*
X147738400Y-57722000D03*
X148538400Y-57722000D03*
X149338400Y-57722000D03*
X150138400Y-57722000D03*
X150938400Y-57722000D03*
X151738400Y-57722000D03*
X152538400Y-57722000D03*
%TD*%
M02*
