%TF.GenerationSoftware,KiCad,Pcbnew,9.0.8-9.0.8~ubuntu24.04.1*%
%TF.CreationDate,2026-03-23T18:39:47-06:00*%
%TF.ProjectId,Neo486FPGA,4e656f34-3836-4465-9047-412e6b696361,rev?*%
%TF.SameCoordinates,Original*%
%TF.FileFunction,Legend,Bot*%
%TF.FilePolarity,Positive*%
%FSLAX46Y46*%
G04 Gerber Fmt 4.6, Leading zero omitted, Abs format (unit mm)*
G04 Created by KiCad (PCBNEW 9.0.8-9.0.8~ubuntu24.04.1) date 2026-03-23 18:39:47*
%MOMM*%
%LPD*%
G01*
G04 APERTURE LIST*
%ADD10C,0.150000*%
%ADD11C,0.120000*%
G04 APERTURE END LIST*
D10*
X104033133Y-30063019D02*
X104033133Y-30777304D01*
X104033133Y-30777304D02*
X104080752Y-30920161D01*
X104080752Y-30920161D02*
X104175990Y-31015400D01*
X104175990Y-31015400D02*
X104318847Y-31063019D01*
X104318847Y-31063019D02*
X104414085Y-31063019D01*
X103509323Y-31063019D02*
X103318847Y-31063019D01*
X103318847Y-31063019D02*
X103223609Y-31015400D01*
X103223609Y-31015400D02*
X103175990Y-30967780D01*
X103175990Y-30967780D02*
X103080752Y-30824923D01*
X103080752Y-30824923D02*
X103033133Y-30634447D01*
X103033133Y-30634447D02*
X103033133Y-30253495D01*
X103033133Y-30253495D02*
X103080752Y-30158257D01*
X103080752Y-30158257D02*
X103128371Y-30110638D01*
X103128371Y-30110638D02*
X103223609Y-30063019D01*
X103223609Y-30063019D02*
X103414085Y-30063019D01*
X103414085Y-30063019D02*
X103509323Y-30110638D01*
X103509323Y-30110638D02*
X103556942Y-30158257D01*
X103556942Y-30158257D02*
X103604561Y-30253495D01*
X103604561Y-30253495D02*
X103604561Y-30491590D01*
X103604561Y-30491590D02*
X103556942Y-30586828D01*
X103556942Y-30586828D02*
X103509323Y-30634447D01*
X103509323Y-30634447D02*
X103414085Y-30682066D01*
X103414085Y-30682066D02*
X103223609Y-30682066D01*
X103223609Y-30682066D02*
X103128371Y-30634447D01*
X103128371Y-30634447D02*
X103080752Y-30586828D01*
X103080752Y-30586828D02*
X103033133Y-30491590D01*
D11*
%TO.C,J9*%
X110609800Y-32788200D02*
X110609800Y-33188200D01*
X110609800Y-32788200D02*
X96789800Y-32788200D01*
X110609800Y-35708200D02*
X110609800Y-41488200D01*
X110609800Y-44008200D02*
X110609800Y-46708200D01*
X109199800Y-31888200D02*
X108399800Y-32088200D01*
X109199800Y-32788200D02*
X109199800Y-31788200D01*
X108699800Y-31288200D02*
X98699800Y-31288200D01*
X108399800Y-32088200D02*
X106699800Y-32388200D01*
X106699800Y-32388200D02*
X105899800Y-32488200D01*
X105899800Y-32488200D02*
X104599800Y-32588200D01*
X104599800Y-32588200D02*
X102799800Y-32588200D01*
X102799800Y-32588200D02*
X101499800Y-32488200D01*
X101499800Y-32488200D02*
X99999800Y-32288200D01*
X99999800Y-32288200D02*
X98699800Y-31988200D01*
X98699800Y-31988200D02*
X98199800Y-31888200D01*
X98199800Y-32788200D02*
X98199800Y-31788200D01*
X96789800Y-32788200D02*
X96789800Y-33188200D01*
X96789800Y-35708200D02*
X96789800Y-41488200D01*
X96789800Y-44008200D02*
X96789800Y-46708200D01*
X96789800Y-46708200D02*
X110609800Y-46708200D01*
X108699800Y-31288200D02*
G75*
G02*
X109199800Y-31788200I-1J-500001D01*
G01*
X98199800Y-31788200D02*
G75*
G02*
X98699800Y-31288200I500000J0D01*
G01*
%TD*%
M02*
