%TF.GenerationSoftware,KiCad,Pcbnew,9.0.8-9.0.8~ubuntu24.04.1*%
%TF.CreationDate,2026-03-23T18:39:45-06:00*%
%TF.ProjectId,Neo486FPGA,4e656f34-3836-4465-9047-412e6b696361,rev?*%
%TF.SameCoordinates,Original*%
%TF.FileFunction,Copper,L1,Top*%
%TF.FilePolarity,Positive*%
%FSLAX46Y46*%
G04 Gerber Fmt 4.6, Leading zero omitted, Abs format (unit mm)*
G04 Created by KiCad (PCBNEW 9.0.8-9.0.8~ubuntu24.04.1) date 2026-03-23 18:39:45*
%MOMM*%
%LPD*%
G01*
G04 APERTURE LIST*
G04 Aperture macros list*
%AMRoundRect*
0 Rectangle with rounded corners*
0 $1 Rounding radius*
0 $2 $3 $4 $5 $6 $7 $8 $9 X,Y pos of 4 corners*
0 Add a 4 corners polygon primitive as box body*
4,1,4,$2,$3,$4,$5,$6,$7,$8,$9,$2,$3,0*
0 Add four circle primitives for the rounded corners*
1,1,$1+$1,$2,$3*
1,1,$1+$1,$4,$5*
1,1,$1+$1,$6,$7*
1,1,$1+$1,$8,$9*
0 Add four rect primitives between the rounded corners*
20,1,$1+$1,$2,$3,$4,$5,0*
20,1,$1+$1,$4,$5,$6,$7,0*
20,1,$1+$1,$6,$7,$8,$9,0*
20,1,$1+$1,$8,$9,$2,$3,0*%
G04 Aperture macros list end*
%TA.AperFunction,SMDPad,CuDef*%
%ADD10RoundRect,0.200000X0.200000X0.275000X-0.200000X0.275000X-0.200000X-0.275000X0.200000X-0.275000X0*%
%TD*%
%TA.AperFunction,SMDPad,CuDef*%
%ADD11RoundRect,0.200000X-0.200000X-0.275000X0.200000X-0.275000X0.200000X0.275000X-0.200000X0.275000X0*%
%TD*%
%TA.AperFunction,SMDPad,CuDef*%
%ADD12RoundRect,0.225000X0.250000X-0.225000X0.250000X0.225000X-0.250000X0.225000X-0.250000X-0.225000X0*%
%TD*%
%TA.AperFunction,SMDPad,CuDef*%
%ADD13RoundRect,0.243750X0.456250X-0.243750X0.456250X0.243750X-0.456250X0.243750X-0.456250X-0.243750X0*%
%TD*%
%TA.AperFunction,SMDPad,CuDef*%
%ADD14RoundRect,0.200000X0.275000X-0.200000X0.275000X0.200000X-0.275000X0.200000X-0.275000X-0.200000X0*%
%TD*%
%TA.AperFunction,ComponentPad*%
%ADD15C,4.700000*%
%TD*%
%TA.AperFunction,ComponentPad*%
%ADD16R,1.600000X1.500000*%
%TD*%
%TA.AperFunction,ComponentPad*%
%ADD17C,1.600000*%
%TD*%
%TA.AperFunction,ComponentPad*%
%ADD18C,3.000000*%
%TD*%
%TA.AperFunction,SMDPad,CuDef*%
%ADD19RoundRect,0.200000X-0.053033X0.335876X-0.335876X0.053033X0.053033X-0.335876X0.335876X-0.053033X0*%
%TD*%
%TA.AperFunction,ComponentPad*%
%ADD20R,1.700000X1.700000*%
%TD*%
%TA.AperFunction,ComponentPad*%
%ADD21C,1.700000*%
%TD*%
%TA.AperFunction,SMDPad,CuDef*%
%ADD22RoundRect,0.250000X-0.650000X-0.750000X0.650000X-0.750000X0.650000X0.750000X-0.650000X0.750000X0*%
%TD*%
%TA.AperFunction,SMDPad,CuDef*%
%ADD23RoundRect,0.062500X-0.350000X-0.062500X0.350000X-0.062500X0.350000X0.062500X-0.350000X0.062500X0*%
%TD*%
%TA.AperFunction,SMDPad,CuDef*%
%ADD24RoundRect,0.062500X-0.062500X-0.350000X0.062500X-0.350000X0.062500X0.350000X-0.062500X0.350000X0*%
%TD*%
%TA.AperFunction,HeatsinkPad*%
%ADD25R,2.600000X2.600000*%
%TD*%
%TA.AperFunction,SMDPad,CuDef*%
%ADD26RoundRect,0.225000X0.225000X0.250000X-0.225000X0.250000X-0.225000X-0.250000X0.225000X-0.250000X0*%
%TD*%
%TA.AperFunction,SMDPad,CuDef*%
%ADD27RoundRect,0.225000X-0.225000X-0.250000X0.225000X-0.250000X0.225000X0.250000X-0.225000X0.250000X0*%
%TD*%
%TA.AperFunction,SMDPad,CuDef*%
%ADD28RoundRect,0.375000X-0.375000X-1.125000X0.375000X-1.125000X0.375000X1.125000X-0.375000X1.125000X0*%
%TD*%
%TA.AperFunction,SMDPad,CuDef*%
%ADD29RoundRect,0.225000X-0.250000X0.225000X-0.250000X-0.225000X0.250000X-0.225000X0.250000X0.225000X0*%
%TD*%
%TA.AperFunction,SMDPad,CuDef*%
%ADD30R,0.600000X1.295000*%
%TD*%
%TA.AperFunction,SMDPad,CuDef*%
%ADD31RoundRect,0.075000X-0.662500X-0.075000X0.662500X-0.075000X0.662500X0.075000X-0.662500X0.075000X0*%
%TD*%
%TA.AperFunction,SMDPad,CuDef*%
%ADD32RoundRect,0.075000X-0.075000X-0.662500X0.075000X-0.662500X0.075000X0.662500X-0.075000X0.662500X0*%
%TD*%
%TA.AperFunction,BGAPad,CuDef*%
%ADD33C,0.320000*%
%TD*%
%TA.AperFunction,ViaPad*%
%ADD34C,0.508000*%
%TD*%
%TA.AperFunction,ViaPad*%
%ADD35C,0.405000*%
%TD*%
%TA.AperFunction,ViaPad*%
%ADD36C,0.600000*%
%TD*%
%TA.AperFunction,Conductor*%
%ADD37C,0.139700*%
%TD*%
%TA.AperFunction,Conductor*%
%ADD38C,0.254000*%
%TD*%
%TA.AperFunction,Conductor*%
%ADD39C,0.200000*%
%TD*%
G04 APERTURE END LIST*
D10*
%TO.P,R9,1*%
%TO.N,GND*%
X126666000Y-41798000D03*
%TO.P,R9,2*%
%TO.N,Net-(U3-RBIAS)*%
X125016000Y-41798000D03*
%TD*%
%TO.P,R8,1*%
%TO.N,VCC*%
X145950000Y-86375000D03*
%TO.P,R8,2*%
%TO.N,/UART_TX*%
X144310000Y-86375000D03*
%TD*%
D11*
%TO.P,R7,1*%
%TO.N,VCC*%
X138265000Y-86380000D03*
%TO.P,R7,2*%
%TO.N,/UART_RX*%
X139905000Y-86380000D03*
%TD*%
D12*
%TO.P,C17,1*%
%TO.N,Net-(U3-VDD18)*%
X128088000Y-40325000D03*
%TO.P,C17,2*%
%TO.N,GND*%
X128088000Y-38765000D03*
%TD*%
D13*
%TO.P,D2,1,K*%
%TO.N,GND*%
X127508000Y-69771500D03*
%TO.P,D2,2,A*%
%TO.N,Net-(D2-A)*%
X127508000Y-67896500D03*
%TD*%
%TO.P,D1,1,K*%
%TO.N,GND*%
X125476000Y-69771500D03*
%TO.P,D1,2,A*%
%TO.N,Net-(D1-A)*%
X125476000Y-67896500D03*
%TD*%
D14*
%TO.P,R6,1*%
%TO.N,Net-(D2-A)*%
X128905000Y-61785000D03*
%TO.P,R6,2*%
%TO.N,/LED2*%
X128905000Y-60135000D03*
%TD*%
%TO.P,R5,1*%
%TO.N,Net-(D1-A)*%
X127127000Y-61785000D03*
%TO.P,R5,2*%
%TO.N,/LED1*%
X127127000Y-60135000D03*
%TD*%
D15*
%TO.P,H4,1*%
%TO.N,N/C*%
X154940000Y-38100000D03*
%TD*%
%TO.P,H3,1*%
%TO.N,N/C*%
X154940000Y-85090000D03*
%TD*%
%TO.P,H2,1*%
%TO.N,N/C*%
X55880000Y-38100000D03*
%TD*%
%TO.P,H1,1*%
%TO.N,N/C*%
X55880000Y-85090000D03*
%TD*%
D16*
%TO.P,J10,1,VBUS*%
%TO.N,unconnected-(J10-VBUS-Pad1)*%
X140422800Y-39260600D03*
D17*
%TO.P,J10,2,D-*%
%TO.N,Net-(J10-D-)*%
X137922800Y-39260600D03*
%TO.P,J10,3,D+*%
%TO.N,Net-(J10-D+)*%
X135922800Y-39260600D03*
%TO.P,J10,4,GND*%
%TO.N,GND*%
X133422800Y-39260600D03*
D18*
%TO.P,J10,5,Shield*%
X143492800Y-36550600D03*
X130352800Y-36550600D03*
%TD*%
D11*
%TO.P,R4,1*%
%TO.N,GND*%
X83000000Y-87630000D03*
%TO.P,R4,2*%
%TO.N,/DP3*%
X84640000Y-87630000D03*
%TD*%
D19*
%TO.P,R3,1*%
%TO.N,GND*%
X106040628Y-74959772D03*
%TO.P,R3,2*%
%TO.N,/DP2*%
X104880972Y-76119428D03*
%TD*%
%TO.P,R2,1*%
%TO.N,GND*%
X106345428Y-68863772D03*
%TO.P,R2,2*%
%TO.N,/DP1*%
X105185772Y-70023428D03*
%TD*%
D10*
%TO.P,R1,1*%
%TO.N,GND*%
X104452000Y-60248800D03*
%TO.P,R1,2*%
%TO.N,/DP0*%
X102812000Y-60248800D03*
%TD*%
D20*
%TO.P,J8,1,Pin_1*%
%TO.N,/INIT*%
X115113000Y-86765000D03*
D21*
%TO.P,J8,2,Pin_2*%
%TO.N,/CCLK*%
X117653000Y-86765000D03*
%TO.P,J8,3,Pin_3*%
%TO.N,/PROGRAM*%
X120193000Y-86765000D03*
%TO.P,J8,4,Pin_4*%
%TO.N,unconnected-(J8-Pin_4-Pad4)*%
X122733000Y-86765000D03*
%TO.P,J8,5,Pin_5*%
%TO.N,/UART_RX*%
X125273000Y-86765000D03*
%TO.P,J8,6,Pin_6*%
%TO.N,/UART_TX*%
X127813000Y-86765000D03*
%TO.P,J8,7,Pin_7*%
%TO.N,GND*%
X130353000Y-86765000D03*
%TO.P,J8,8,Pin_8*%
%TO.N,VCC*%
X132893000Y-86765000D03*
%TD*%
D20*
%TO.P,J7,1,Pin_1*%
%TO.N,VCC*%
X132692000Y-77613000D03*
D21*
%TO.P,J7,2,Pin_2*%
%TO.N,GND*%
X130152000Y-77613000D03*
%TO.P,J7,3,Pin_3*%
%TO.N,/TDO*%
X127612000Y-77613000D03*
%TO.P,J7,4,Pin_4*%
%TO.N,/TCK*%
X125072000Y-77613000D03*
%TO.P,J7,5,Pin_5*%
%TO.N,/TDI*%
X122532000Y-77613000D03*
%TO.P,J7,6,Pin_6*%
%TO.N,/TMS*%
X119992000Y-77613000D03*
%TO.P,J7,7,Pin_7*%
%TO.N,/DONE*%
X117452000Y-77613000D03*
%TO.P,J7,8,Pin_8*%
%TO.N,unconnected-(J7-Pin_8-Pad8)*%
X114912000Y-77613000D03*
%TD*%
D22*
%TO.P,Y1,1,EN*%
%TO.N,VCC*%
X119994500Y-39502000D03*
%TO.P,Y1,2,GND*%
%TO.N,GND*%
X125074500Y-39502000D03*
%TO.P,Y1,3,OUT*%
%TO.N,/CLK_50M*%
X125074500Y-35502000D03*
%TO.P,Y1,4,Vdd*%
%TO.N,VCC*%
X119994500Y-35502000D03*
%TD*%
D23*
%TO.P,U3,1,CLKOUT*%
%TO.N,/USB_CLK*%
X119572000Y-43192000D03*
%TO.P,U3,2,NXT*%
%TO.N,/USB_NXT*%
X119572000Y-43692000D03*
%TO.P,U3,3,DATA0*%
%TO.N,/USB_D0*%
X119572000Y-44192000D03*
%TO.P,U3,4,DATA1*%
%TO.N,/USB_D1*%
X119572000Y-44692000D03*
%TO.P,U3,5,DATA2*%
%TO.N,/USB_D2*%
X119572000Y-45192000D03*
%TO.P,U3,6,DATA3*%
%TO.N,/USB_D3*%
X119572000Y-45692000D03*
D24*
%TO.P,U3,7,DATA4*%
%TO.N,/USB_D4*%
X120259500Y-46379500D03*
%TO.P,U3,8,DATA5*%
%TO.N,/USB_D5*%
X120759500Y-46379500D03*
%TO.P,U3,9,DATA6*%
%TO.N,/USB_D6*%
X121259500Y-46379500D03*
%TO.P,U3,10,DATA7*%
%TO.N,/USB_D7*%
X121759500Y-46379500D03*
%TO.P,U3,11,SPK_L*%
%TO.N,unconnected-(U3-SPK_L-Pad11)*%
X122259500Y-46379500D03*
%TO.P,U3,12,SPK_R*%
%TO.N,unconnected-(U3-SPK_R-Pad12)*%
X122759500Y-46379500D03*
D23*
%TO.P,U3,13,DP*%
%TO.N,Net-(J10-D+)*%
X123447000Y-45692000D03*
%TO.P,U3,14,DM*%
%TO.N,Net-(J10-D-)*%
X123447000Y-45192000D03*
%TO.P,U3,15,VDD33*%
%TO.N,VCC*%
X123447000Y-44692000D03*
%TO.P,U3,16,VBAT*%
X123447000Y-44192000D03*
%TO.P,U3,17,VBUS*%
%TO.N,unconnected-(U3-VBUS-Pad17)*%
X123447000Y-43692000D03*
%TO.P,U3,18,ID*%
%TO.N,unconnected-(U3-ID-Pad18)*%
X123447000Y-43192000D03*
D24*
%TO.P,U3,19,RBIAS*%
%TO.N,Net-(U3-RBIAS)*%
X122759500Y-42504500D03*
%TO.P,U3,20,REFCLK*%
%TO.N,/USB_REFCLK*%
X122259500Y-42504500D03*
%TO.P,U3,21,~{RESETB}*%
%TO.N,/~{USB_RST}*%
X121759500Y-42504500D03*
%TO.P,U3,22,VDD18*%
%TO.N,Net-(U3-VDD18)*%
X121259500Y-42504500D03*
%TO.P,U3,23,STP*%
%TO.N,/USB_STP*%
X120759500Y-42504500D03*
%TO.P,U3,24,DIR*%
%TO.N,/USB_DIR*%
X120259500Y-42504500D03*
D25*
%TO.P,U3,25,GND*%
%TO.N,GND*%
X121509500Y-44442000D03*
%TD*%
D26*
%TO.P,C3,1*%
%TO.N,VCC*%
X67444000Y-55581000D03*
%TO.P,C3,2*%
%TO.N,GND*%
X65884000Y-55581000D03*
%TD*%
D27*
%TO.P,C4,1*%
%TO.N,VCC*%
X65734000Y-59527000D03*
%TO.P,C4,2*%
%TO.N,GND*%
X67294000Y-59527000D03*
%TD*%
D28*
%TO.P,J3,1,Pin_1*%
%TO.N,GND*%
X68159000Y-84798000D03*
%TD*%
D29*
%TO.P,C5,1*%
%TO.N,VCC*%
X129514600Y-44482800D03*
%TO.P,C5,2*%
%TO.N,GND*%
X129514600Y-46042800D03*
%TD*%
D28*
%TO.P,J1,1,Pin_1*%
%TO.N,VCC*%
X70051000Y-43757000D03*
%TD*%
D27*
%TO.P,C12,1*%
%TO.N,+1V2*%
X116120000Y-65838000D03*
%TO.P,C12,2*%
%TO.N,GND*%
X117680000Y-65838000D03*
%TD*%
D28*
%TO.P,J4,1,Pin_1*%
%TO.N,GND*%
X118661000Y-81723000D03*
%TD*%
D29*
%TO.P,C7,1*%
%TO.N,VCC*%
X129358000Y-65531000D03*
%TO.P,C7,2*%
%TO.N,GND*%
X129358000Y-67091000D03*
%TD*%
%TO.P,C1,1*%
%TO.N,VCC*%
X155115000Y-65862000D03*
%TO.P,C1,2*%
%TO.N,GND*%
X155115000Y-67422000D03*
%TD*%
D28*
%TO.P,J5,1,Pin_1*%
%TO.N,GND*%
X156862000Y-45098000D03*
%TD*%
D26*
%TO.P,C8,1*%
%TO.N,VCC*%
X150529000Y-43142000D03*
%TO.P,C8,2*%
%TO.N,GND*%
X148969000Y-43142000D03*
%TD*%
D28*
%TO.P,J2,1,Pin_1*%
%TO.N,GND*%
X65196800Y-43716200D03*
%TD*%
%TO.P,J6,1,Pin_1*%
%TO.N,VCC*%
X142630000Y-79042000D03*
%TD*%
D29*
%TO.P,C2,1*%
%TO.N,VCC*%
X155177000Y-51455000D03*
%TO.P,C2,2*%
%TO.N,GND*%
X155177000Y-53015000D03*
%TD*%
D12*
%TO.P,C9,1*%
%TO.N,+1V2*%
X113808000Y-43876000D03*
%TO.P,C9,2*%
%TO.N,GND*%
X113808000Y-42316000D03*
%TD*%
D30*
%TO.P,IC2,1,VDD_1*%
%TO.N,VCC*%
X152538400Y-60566000D03*
%TO.P,IC2,2,DQ0*%
%TO.N,/MDQ0*%
X151738400Y-60566000D03*
%TO.P,IC2,3,VDDQ_1*%
%TO.N,VCC*%
X150938400Y-60566000D03*
%TO.P,IC2,4,NC_1*%
%TO.N,unconnected-(IC2-NC_1-Pad4)*%
X150138400Y-60566000D03*
%TO.P,IC2,5,DQ1*%
%TO.N,/MDQ1*%
X149338400Y-60566000D03*
%TO.P,IC2,6,VSSQ_1*%
%TO.N,GND*%
X148538400Y-60566000D03*
%TO.P,IC2,7,NC_2*%
%TO.N,unconnected-(IC2-NC_2-Pad7)*%
X147738400Y-60566000D03*
%TO.P,IC2,8,DQ2*%
%TO.N,/MDQ2*%
X146938400Y-60566000D03*
%TO.P,IC2,9,VDDQ_2*%
%TO.N,VCC*%
X146138400Y-60566000D03*
%TO.P,IC2,10,NC_3*%
%TO.N,unconnected-(IC2-NC_3-Pad10)*%
X145338400Y-60566000D03*
%TO.P,IC2,11,DQ3*%
%TO.N,/MDQ3*%
X144538400Y-60566000D03*
%TO.P,IC2,12,VSSQ_2*%
%TO.N,GND*%
X143738400Y-60566000D03*
%TO.P,IC2,13,NC_4*%
%TO.N,unconnected-(IC2-NC_4-Pad13)*%
X142938400Y-60566000D03*
%TO.P,IC2,14,VDD_2*%
%TO.N,VCC*%
X142138400Y-60566000D03*
%TO.P,IC2,15,NC_5*%
%TO.N,unconnected-(IC2-NC_5-Pad15)*%
X141338400Y-60566000D03*
%TO.P,IC2,16,WE#*%
%TO.N,/~{MWE}*%
X140538400Y-60566000D03*
%TO.P,IC2,17,CAS#*%
%TO.N,/~{MCAS}*%
X139738400Y-60566000D03*
%TO.P,IC2,18,RAS#*%
%TO.N,/~{MRAS}*%
X138938400Y-60566000D03*
%TO.P,IC2,19,CS#*%
%TO.N,/~{MCS2}*%
X138138400Y-60566000D03*
%TO.P,IC2,20,BA0*%
%TO.N,/~{MBA0}*%
X137338400Y-60566000D03*
%TO.P,IC2,21,BA1*%
%TO.N,/~{MBA1}*%
X136538400Y-60566000D03*
%TO.P,IC2,22,A10*%
%TO.N,/MA10*%
X135738400Y-60566000D03*
%TO.P,IC2,23,A0*%
%TO.N,/MA0*%
X134938400Y-60566000D03*
%TO.P,IC2,24,A1*%
%TO.N,/MA1*%
X134138400Y-60566000D03*
%TO.P,IC2,25,A2*%
%TO.N,/MA2*%
X133338400Y-60566000D03*
%TO.P,IC2,26,A3*%
%TO.N,/MA3*%
X132538400Y-60566000D03*
%TO.P,IC2,27,VDD_3*%
%TO.N,VCC*%
X131738400Y-60566000D03*
%TO.P,IC2,28,VSS_1*%
%TO.N,GND*%
X131738400Y-72022000D03*
%TO.P,IC2,29,A4*%
%TO.N,/MA4*%
X132538400Y-72022000D03*
%TO.P,IC2,30,A5*%
%TO.N,/MA5*%
X133338400Y-72022000D03*
%TO.P,IC2,31,A6*%
%TO.N,/MA6*%
X134138400Y-72022000D03*
%TO.P,IC2,32,A7*%
%TO.N,/MA7*%
X134938400Y-72022000D03*
%TO.P,IC2,33,A8*%
%TO.N,/MA8*%
X135738400Y-72022000D03*
%TO.P,IC2,34,A9*%
%TO.N,/MA9*%
X136538400Y-72022000D03*
%TO.P,IC2,35,A11*%
%TO.N,/MA11*%
X137338400Y-72022000D03*
%TO.P,IC2,36,A12*%
%TO.N,/MA12*%
X138138400Y-72022000D03*
%TO.P,IC2,37,CKE*%
%TO.N,/MCKE*%
X138938400Y-72022000D03*
%TO.P,IC2,38,CLK*%
%TO.N,/MCLK*%
X139738400Y-72022000D03*
%TO.P,IC2,39,DQM*%
%TO.N,/DQM*%
X140538400Y-72022000D03*
%TO.P,IC2,40,NC_6*%
%TO.N,unconnected-(IC2-NC_6-Pad40)*%
X141338400Y-72022000D03*
%TO.P,IC2,41,VSS_2*%
%TO.N,GND*%
X142138400Y-72022000D03*
%TO.P,IC2,42,NC_7*%
%TO.N,unconnected-(IC2-NC_7-Pad42)*%
X142938400Y-72022000D03*
%TO.P,IC2,43,VDDQ_3*%
%TO.N,VCC*%
X143738400Y-72022000D03*
%TO.P,IC2,44,DQ4*%
%TO.N,/MDQ4*%
X144538400Y-72022000D03*
%TO.P,IC2,45,NC_8*%
%TO.N,unconnected-(IC2-NC_8-Pad45)*%
X145338400Y-72022000D03*
%TO.P,IC2,46,VSSQ_3*%
%TO.N,GND*%
X146138400Y-72022000D03*
%TO.P,IC2,47,DQ5*%
%TO.N,/MDQ5*%
X146938400Y-72022000D03*
%TO.P,IC2,48,NC_9*%
%TO.N,unconnected-(IC2-NC_9-Pad48)*%
X147738400Y-72022000D03*
%TO.P,IC2,49,VDDQ_4*%
%TO.N,VCC*%
X148538400Y-72022000D03*
%TO.P,IC2,50,DQ6*%
%TO.N,/MDQ6*%
X149338400Y-72022000D03*
%TO.P,IC2,51,NC_10*%
%TO.N,unconnected-(IC2-NC_10-Pad51)*%
X150138400Y-72022000D03*
%TO.P,IC2,52,VSSQ_4*%
%TO.N,GND*%
X150938400Y-72022000D03*
%TO.P,IC2,53,DQ7*%
%TO.N,/MDQ7*%
X151738400Y-72022000D03*
%TO.P,IC2,54,VSS_3*%
%TO.N,GND*%
X152538400Y-72022000D03*
%TD*%
D27*
%TO.P,C6,1*%
%TO.N,VCC*%
X148986000Y-75410000D03*
%TO.P,C6,2*%
%TO.N,GND*%
X150546000Y-75410000D03*
%TD*%
D31*
%TO.P,U1,1,VSS*%
%TO.N,GND*%
X70635500Y-55068000D03*
%TO.P,U1,2,VCC*%
%TO.N,VCC*%
X70635500Y-55568000D03*
%TO.P,U1,3,VCC*%
X70635500Y-56068000D03*
%TO.P,U1,4,~{PCHK}*%
%TO.N,/~{PCHK}*%
X70635500Y-56568000D03*
%TO.P,U1,5,~{BRDY}*%
%TO.N,/~{BRDY}*%
X70635500Y-57068000D03*
%TO.P,U1,6,~{BOFF}*%
%TO.N,/~{BOFF}*%
X70635500Y-57568000D03*
%TO.P,U1,7,~{BS16}*%
%TO.N,/~{BS16}*%
X70635500Y-58068000D03*
%TO.P,U1,8,~{BS8}*%
%TO.N,/~{BS8}*%
X70635500Y-58568000D03*
%TO.P,U1,9,VCC*%
%TO.N,VCC*%
X70635500Y-59068000D03*
%TO.P,U1,10,VSS*%
%TO.N,GND*%
X70635500Y-59568000D03*
%TO.P,U1,11,INC*%
%TO.N,unconnected-(U1E-INC-Pad11)*%
X70635500Y-60068000D03*
%TO.P,U1,12,~{RDY}*%
%TO.N,/~{RDY}*%
X70635500Y-60568000D03*
%TO.P,U1,13,~{KEN}*%
%TO.N,/~{KEN}*%
X70635500Y-61068000D03*
%TO.P,U1,14,VCC*%
%TO.N,VCC*%
X70635500Y-61568000D03*
%TO.P,U1,15,VSS*%
%TO.N,GND*%
X70635500Y-62068000D03*
%TO.P,U1,16,HOLD*%
%TO.N,/HOLD*%
X70635500Y-62568000D03*
%TO.P,U1,17,AHOLD*%
%TO.N,/AHOLD*%
X70635500Y-63068000D03*
%TO.P,U1,18,TCK*%
%TO.N,unconnected-(U1E-TCK-Pad18)*%
X70635500Y-63568000D03*
%TO.P,U1,19,VCC*%
%TO.N,VCC*%
X70635500Y-64068000D03*
%TO.P,U1,20,VCC*%
X70635500Y-64568000D03*
%TO.P,U1,21,VSS*%
%TO.N,GND*%
X70635500Y-65068000D03*
%TO.P,U1,22,VCC*%
%TO.N,VCC*%
X70635500Y-65568000D03*
%TO.P,U1,23,VCC*%
X70635500Y-66068000D03*
%TO.P,U1,24,CLK*%
%TO.N,/CLK*%
X70635500Y-66568000D03*
%TO.P,U1,25,VCC*%
%TO.N,VCC*%
X70635500Y-67068000D03*
%TO.P,U1,26,HLDA*%
%TO.N,/HLDA*%
X70635500Y-67568000D03*
%TO.P,U1,27,W/~{R}*%
%TO.N,/W{slash}~{R}*%
X70635500Y-68068000D03*
%TO.P,U1,28,VSS*%
%TO.N,GND*%
X70635500Y-68568000D03*
%TO.P,U1,29,VCC*%
%TO.N,VCC*%
X70635500Y-69068000D03*
%TO.P,U1,30,BREQ*%
%TO.N,/BREQ*%
X70635500Y-69568000D03*
%TO.P,U1,31,~{BE0}*%
%TO.N,/~{BE0}*%
X70635500Y-70068000D03*
%TO.P,U1,32,~{BE1}*%
%TO.N,/~{BE1}*%
X70635500Y-70568000D03*
%TO.P,U1,33,~{BE2}*%
%TO.N,/~{BE2}*%
X70635500Y-71068000D03*
%TO.P,U1,34,~{BE3}*%
%TO.N,/~{BE3}*%
X70635500Y-71568000D03*
%TO.P,U1,35,VCC*%
%TO.N,VCC*%
X70635500Y-72068000D03*
%TO.P,U1,36,VSS*%
%TO.N,GND*%
X70635500Y-72568000D03*
%TO.P,U1,37,M/~{IO}*%
%TO.N,/M{slash}~{IO}*%
X70635500Y-73068000D03*
%TO.P,U1,38,VCC*%
%TO.N,VCC*%
X70635500Y-73568000D03*
%TO.P,U1,39,D/~{C}*%
%TO.N,/D{slash}~{C}*%
X70635500Y-74068000D03*
%TO.P,U1,40,PWT*%
%TO.N,/PWT*%
X70635500Y-74568000D03*
%TO.P,U1,41,PCD*%
%TO.N,/PCD*%
X70635500Y-75068000D03*
%TO.P,U1,42,VCC*%
%TO.N,VCC*%
X70635500Y-75568000D03*
%TO.P,U1,43,VSS*%
%TO.N,GND*%
X70635500Y-76068000D03*
%TO.P,U1,44,VCC*%
%TO.N,VCC*%
X70635500Y-76568000D03*
%TO.P,U1,45,VCC*%
X70635500Y-77068000D03*
%TO.P,U1,46,~{EADS}*%
%TO.N,/~{EADS}*%
X70635500Y-77568000D03*
%TO.P,U1,47,~{A20M}*%
%TO.N,/~{A20M}*%
X70635500Y-78068000D03*
%TO.P,U1,48,RESET*%
%TO.N,/RESET*%
X70635500Y-78568000D03*
%TO.P,U1,49,~{FLUSH}*%
%TO.N,/~{FLUSH}*%
X70635500Y-79068000D03*
%TO.P,U1,50,INTR*%
%TO.N,/INTR*%
X70635500Y-79568000D03*
%TO.P,U1,51,NMI*%
%TO.N,/NMI*%
X70635500Y-80068000D03*
%TO.P,U1,52,VSS*%
%TO.N,GND*%
X70635500Y-80568000D03*
D32*
%TO.P,U1,53,VSS*%
X72848000Y-82780500D03*
%TO.P,U1,54,VCC*%
%TO.N,VCC*%
X73348000Y-82780500D03*
%TO.P,U1,55,VSS*%
%TO.N,GND*%
X73848000Y-82780500D03*
%TO.P,U1,56,VCC*%
%TO.N,VCC*%
X74348000Y-82780500D03*
%TO.P,U1,57,VSS*%
%TO.N,GND*%
X74848000Y-82780500D03*
%TO.P,U1,58,SRESET*%
%TO.N,/SRESET*%
X75348000Y-82780500D03*
%TO.P,U1,59,~{SMIACT}*%
%TO.N,/~{SMIACT}*%
X75848000Y-82780500D03*
%TO.P,U1,60,VCC*%
%TO.N,VCC*%
X76348000Y-82780500D03*
%TO.P,U1,61,VSS*%
%TO.N,GND*%
X76848000Y-82780500D03*
%TO.P,U1,62,VCC*%
%TO.N,VCC*%
X77348000Y-82780500D03*
%TO.P,U1,63,INC*%
%TO.N,unconnected-(U1E-INC-Pad63)*%
X77848000Y-82780500D03*
%TO.P,U1,64,INC*%
%TO.N,unconnected-(U1E-INC-Pad64)*%
X78348000Y-82780500D03*
%TO.P,U1,65,~{SMI}*%
%TO.N,/~{SMI}*%
X78848000Y-82780500D03*
%TO.P,U1,66,~{FERR}*%
%TO.N,/~{FERR}*%
X79348000Y-82780500D03*
%TO.P,U1,67,NC*%
%TO.N,unconnected-(U1E-NC-Pad67)*%
X79848000Y-82780500D03*
%TO.P,U1,68,TDO*%
%TO.N,unconnected-(U1E-TDO-Pad68)*%
X80348000Y-82780500D03*
%TO.P,U1,69,VCC*%
%TO.N,VCC*%
X80848000Y-82780500D03*
%TO.P,U1,70,INC*%
%TO.N,unconnected-(U1E-INC-Pad70)*%
X81348000Y-82780500D03*
%TO.P,U1,71,INC*%
%TO.N,unconnected-(U1E-INC-Pad71)*%
X81848000Y-82780500D03*
%TO.P,U1,72,~{IGNNE}*%
%TO.N,/~{IGNNE}*%
X82348000Y-82780500D03*
%TO.P,U1,73,~{STPCLK}*%
%TO.N,/~{STPCLK}*%
X82848000Y-82780500D03*
%TO.P,U1,74,D31*%
%TO.N,/D31*%
X83348000Y-82780500D03*
%TO.P,U1,75,D30*%
%TO.N,/D30*%
X83848000Y-82780500D03*
%TO.P,U1,76,VSS*%
%TO.N,GND*%
X84348000Y-82780500D03*
%TO.P,U1,77,VCC*%
%TO.N,VCC*%
X84848000Y-82780500D03*
%TO.P,U1,78,D29*%
%TO.N,/D29*%
X85348000Y-82780500D03*
%TO.P,U1,79,D28*%
%TO.N,/D28*%
X85848000Y-82780500D03*
%TO.P,U1,80,VCC*%
%TO.N,VCC*%
X86348000Y-82780500D03*
%TO.P,U1,81,VSS*%
%TO.N,GND*%
X86848000Y-82780500D03*
%TO.P,U1,82,VCC*%
%TO.N,VCC*%
X87348000Y-82780500D03*
%TO.P,U1,83,D27*%
%TO.N,/D27*%
X87848000Y-82780500D03*
%TO.P,U1,84,D26*%
%TO.N,/D26*%
X88348000Y-82780500D03*
%TO.P,U1,85,D25*%
%TO.N,/D25*%
X88848000Y-82780500D03*
%TO.P,U1,86,VCC*%
%TO.N,VCC*%
X89348000Y-82780500D03*
%TO.P,U1,87,D24*%
%TO.N,/D24*%
X89848000Y-82780500D03*
%TO.P,U1,88,VSS*%
%TO.N,GND*%
X90348000Y-82780500D03*
%TO.P,U1,89,VCC*%
%TO.N,VCC*%
X90848000Y-82780500D03*
%TO.P,U1,90,DP3*%
%TO.N,/DP3*%
X91348000Y-82780500D03*
%TO.P,U1,91,D23*%
%TO.N,/D23*%
X91848000Y-82780500D03*
%TO.P,U1,92,D22*%
%TO.N,/D22*%
X92348000Y-82780500D03*
%TO.P,U1,93,D21*%
%TO.N,/D21*%
X92848000Y-82780500D03*
%TO.P,U1,94,VSS*%
%TO.N,GND*%
X93348000Y-82780500D03*
%TO.P,U1,95,VCC*%
%TO.N,VCC*%
X93848000Y-82780500D03*
%TO.P,U1,96,NC*%
%TO.N,unconnected-(U1E-NC-Pad96)*%
X94348000Y-82780500D03*
%TO.P,U1,97,VSS*%
%TO.N,GND*%
X94848000Y-82780500D03*
%TO.P,U1,98,VCC*%
%TO.N,VCC*%
X95348000Y-82780500D03*
%TO.P,U1,99,D20*%
%TO.N,/D20*%
X95848000Y-82780500D03*
%TO.P,U1,100,D19*%
%TO.N,/D19*%
X96348000Y-82780500D03*
%TO.P,U1,101,D18*%
%TO.N,/D18*%
X96848000Y-82780500D03*
%TO.P,U1,102,VCC*%
%TO.N,VCC*%
X97348000Y-82780500D03*
%TO.P,U1,103,D17*%
%TO.N,/D17*%
X97848000Y-82780500D03*
%TO.P,U1,104,VSS*%
%TO.N,GND*%
X98348000Y-82780500D03*
D31*
%TO.P,U1,105,VSS*%
X100560500Y-80568000D03*
%TO.P,U1,106,VCC*%
%TO.N,VCC*%
X100560500Y-80068000D03*
%TO.P,U1,107,VSS*%
%TO.N,GND*%
X100560500Y-79568000D03*
%TO.P,U1,108,D16*%
%TO.N,/D16*%
X100560500Y-79068000D03*
%TO.P,U1,109,DP2*%
%TO.N,/DP2*%
X100560500Y-78568000D03*
%TO.P,U1,110,VSS*%
%TO.N,GND*%
X100560500Y-78068000D03*
%TO.P,U1,111,VCC*%
%TO.N,VCC*%
X100560500Y-77568000D03*
%TO.P,U1,112,D15*%
%TO.N,/D15*%
X100560500Y-77068000D03*
%TO.P,U1,113,D14*%
%TO.N,/D14*%
X100560500Y-76568000D03*
%TO.P,U1,114,VCC*%
%TO.N,VCC*%
X100560500Y-76068000D03*
%TO.P,U1,115,VSS*%
%TO.N,GND*%
X100560500Y-75568000D03*
%TO.P,U1,116,D13*%
%TO.N,/D13*%
X100560500Y-75068000D03*
%TO.P,U1,117,D12*%
%TO.N,/D12*%
X100560500Y-74568000D03*
%TO.P,U1,118,D11*%
%TO.N,/D11*%
X100560500Y-74068000D03*
%TO.P,U1,119,D10*%
%TO.N,/D10*%
X100560500Y-73568000D03*
%TO.P,U1,120,VSS*%
%TO.N,GND*%
X100560500Y-73068000D03*
%TO.P,U1,121,VCC*%
%TO.N,VCC*%
X100560500Y-72568000D03*
%TO.P,U1,122,VSS*%
%TO.N,GND*%
X100560500Y-72068000D03*
%TO.P,U1,123,D9*%
%TO.N,/D9*%
X100560500Y-71568000D03*
%TO.P,U1,124,D8*%
%TO.N,/D8*%
X100560500Y-71068000D03*
%TO.P,U1,125,DP1*%
%TO.N,/DP1*%
X100560500Y-70568000D03*
%TO.P,U1,126,D7*%
%TO.N,/D7*%
X100560500Y-70068000D03*
%TO.P,U1,127,NC*%
%TO.N,unconnected-(U1E-NC-Pad127)*%
X100560500Y-69568000D03*
%TO.P,U1,128,VCC*%
%TO.N,VCC*%
X100560500Y-69068000D03*
%TO.P,U1,129,D6*%
%TO.N,/D6*%
X100560500Y-68568000D03*
%TO.P,U1,130,D5*%
%TO.N,/D5*%
X100560500Y-68068000D03*
%TO.P,U1,131,VCC*%
%TO.N,VCC*%
X100560500Y-67568000D03*
%TO.P,U1,132,VSS*%
%TO.N,GND*%
X100560500Y-67068000D03*
%TO.P,U1,133,VCC*%
%TO.N,VCC*%
X100560500Y-66568000D03*
%TO.P,U1,134,VCC*%
X100560500Y-66068000D03*
%TO.P,U1,135,VSS*%
%TO.N,GND*%
X100560500Y-65568000D03*
%TO.P,U1,136,VCC*%
%TO.N,VCC*%
X100560500Y-65068000D03*
%TO.P,U1,137,VCC*%
X100560500Y-64568000D03*
%TO.P,U1,138,VSS*%
%TO.N,GND*%
X100560500Y-64068000D03*
%TO.P,U1,139,VCC*%
%TO.N,VCC*%
X100560500Y-63568000D03*
%TO.P,U1,140,D4*%
%TO.N,/D4*%
X100560500Y-63068000D03*
%TO.P,U1,141,D3*%
%TO.N,/D3*%
X100560500Y-62568000D03*
%TO.P,U1,142,D2*%
%TO.N,/D2*%
X100560500Y-62068000D03*
%TO.P,U1,143,D1*%
%TO.N,/D1*%
X100560500Y-61568000D03*
%TO.P,U1,144,D0*%
%TO.N,/D0*%
X100560500Y-61068000D03*
%TO.P,U1,145,DP0*%
%TO.N,/DP0*%
X100560500Y-60568000D03*
%TO.P,U1,146,VSS*%
%TO.N,GND*%
X100560500Y-60068000D03*
%TO.P,U1,147,A31*%
%TO.N,/A31*%
X100560500Y-59568000D03*
%TO.P,U1,148,A30*%
%TO.N,/A30*%
X100560500Y-59068000D03*
%TO.P,U1,149,A29*%
%TO.N,/A29*%
X100560500Y-58568000D03*
%TO.P,U1,150,VCC*%
%TO.N,VCC*%
X100560500Y-58068000D03*
%TO.P,U1,151,A28*%
%TO.N,/A28*%
X100560500Y-57568000D03*
%TO.P,U1,152,A27*%
%TO.N,/A27*%
X100560500Y-57068000D03*
%TO.P,U1,153,A26*%
%TO.N,/A26*%
X100560500Y-56568000D03*
%TO.P,U1,154,A25*%
%TO.N,/A25*%
X100560500Y-56068000D03*
%TO.P,U1,155,VCC*%
%TO.N,VCC*%
X100560500Y-55568000D03*
%TO.P,U1,156,VSS*%
%TO.N,GND*%
X100560500Y-55068000D03*
D32*
%TO.P,U1,157,VSS*%
X98348000Y-52855500D03*
%TO.P,U1,158,A24*%
%TO.N,/A24*%
X97848000Y-52855500D03*
%TO.P,U1,159,A23*%
%TO.N,/A23*%
X97348000Y-52855500D03*
%TO.P,U1,160,A22*%
%TO.N,/A22*%
X96848000Y-52855500D03*
%TO.P,U1,161,A21*%
%TO.N,/A21*%
X96348000Y-52855500D03*
%TO.P,U1,162,VCC*%
%TO.N,VCC*%
X95848000Y-52855500D03*
%TO.P,U1,163,VCC*%
X95348000Y-52855500D03*
%TO.P,U1,164,A20*%
%TO.N,/A20*%
X94848000Y-52855500D03*
%TO.P,U1,165,A19*%
%TO.N,/A19*%
X94348000Y-52855500D03*
%TO.P,U1,166,A18*%
%TO.N,/A18*%
X93848000Y-52855500D03*
%TO.P,U1,167,TMS*%
%TO.N,unconnected-(U1E-TMS-Pad167)*%
X93348000Y-52855500D03*
%TO.P,U1,168,TDI*%
%TO.N,unconnected-(U1E-TDI-Pad168)*%
X92848000Y-52855500D03*
%TO.P,U1,169,VCC*%
%TO.N,VCC*%
X92348000Y-52855500D03*
%TO.P,U1,170,VSS*%
%TO.N,GND*%
X91848000Y-52855500D03*
%TO.P,U1,171,A17*%
%TO.N,/A17*%
X91348000Y-52855500D03*
%TO.P,U1,172,VCC*%
%TO.N,VCC*%
X90848000Y-52855500D03*
%TO.P,U1,173,A16*%
%TO.N,/A16*%
X90348000Y-52855500D03*
%TO.P,U1,174,A15*%
%TO.N,/A15*%
X89848000Y-52855500D03*
%TO.P,U1,175,VSS*%
%TO.N,GND*%
X89348000Y-52855500D03*
%TO.P,U1,176,VCC*%
%TO.N,VCC*%
X88848000Y-52855500D03*
%TO.P,U1,177,A14*%
%TO.N,/A14*%
X88348000Y-52855500D03*
%TO.P,U1,178,A13*%
%TO.N,/A13*%
X87848000Y-52855500D03*
%TO.P,U1,179,VCC*%
%TO.N,VCC*%
X87348000Y-52855500D03*
%TO.P,U1,180,A12*%
%TO.N,/A12*%
X86848000Y-52855500D03*
%TO.P,U1,181,VSS*%
%TO.N,GND*%
X86348000Y-52855500D03*
%TO.P,U1,182,A11*%
%TO.N,/A11*%
X85848000Y-52855500D03*
%TO.P,U1,183,VCC*%
%TO.N,VCC*%
X85348000Y-52855500D03*
%TO.P,U1,184,VSS*%
%TO.N,GND*%
X84848000Y-52855500D03*
%TO.P,U1,185,VCC*%
%TO.N,VCC*%
X84348000Y-52855500D03*
%TO.P,U1,186,A10*%
%TO.N,/A10*%
X83848000Y-52855500D03*
%TO.P,U1,187,A9*%
%TO.N,/A9*%
X83348000Y-52855500D03*
%TO.P,U1,188,VCC*%
%TO.N,VCC*%
X82848000Y-52855500D03*
%TO.P,U1,189,VSS*%
%TO.N,GND*%
X82348000Y-52855500D03*
%TO.P,U1,190,A8*%
%TO.N,/A8*%
X81848000Y-52855500D03*
%TO.P,U1,191,VCC*%
%TO.N,VCC*%
X81348000Y-52855500D03*
%TO.P,U1,192,A7*%
%TO.N,/A7*%
X80848000Y-52855500D03*
%TO.P,U1,193,A6*%
%TO.N,/A6*%
X80348000Y-52855500D03*
%TO.P,U1,194,RSVD*%
%TO.N,/RSVD*%
X79848000Y-52855500D03*
%TO.P,U1,195,A5*%
%TO.N,/A5*%
X79348000Y-52855500D03*
%TO.P,U1,196,A4*%
%TO.N,/A4*%
X78848000Y-52855500D03*
%TO.P,U1,197,A3*%
%TO.N,/A3*%
X78348000Y-52855500D03*
%TO.P,U1,198,VCC*%
%TO.N,VCC*%
X77848000Y-52855500D03*
%TO.P,U1,199,VSS*%
%TO.N,GND*%
X77348000Y-52855500D03*
%TO.P,U1,200,VCC*%
%TO.N,VCC*%
X76848000Y-52855500D03*
%TO.P,U1,201,VSS*%
%TO.N,GND*%
X76348000Y-52855500D03*
%TO.P,U1,202,A2*%
%TO.N,/A2*%
X75848000Y-52855500D03*
%TO.P,U1,203,~{ADS}*%
%TO.N,/~{ADS}*%
X75348000Y-52855500D03*
%TO.P,U1,204,~{BLAST}*%
%TO.N,/~{BLAST}*%
X74848000Y-52855500D03*
%TO.P,U1,205,VCC*%
%TO.N,VCC*%
X74348000Y-52855500D03*
%TO.P,U1,206,~{PLOCK}*%
%TO.N,/~{PLOCK}*%
X73848000Y-52855500D03*
%TO.P,U1,207,~{LOCK}*%
%TO.N,/~{LOCK}*%
X73348000Y-52855500D03*
%TO.P,U1,208,VSS*%
%TO.N,GND*%
X72848000Y-52855500D03*
%TD*%
D33*
%TO.P,U2,A1,GND*%
%TO.N,GND*%
X109388500Y-49962000D03*
%TO.P,U2,A2,PT4A*%
%TO.N,/A11*%
X110188500Y-49962000D03*
%TO.P,U2,A3,PT6A*%
%TO.N,/A10*%
X110988500Y-49962000D03*
%TO.P,U2,A4,PT6B*%
%TO.N,/A8*%
X111788500Y-49962000D03*
%TO.P,U2,A5,PT18A*%
%TO.N,/A6*%
X112588500Y-49962000D03*
%TO.P,U2,A6,PT18B*%
%TO.N,/A4*%
X113388500Y-49962000D03*
%TO.P,U2,A7,PT29A_PCLKT0_0*%
%TO.N,/A2*%
X114188500Y-49962000D03*
%TO.P,U2,A8,PT29B*%
%TO.N,/~{BLAST}*%
X114988500Y-49962000D03*
%TO.P,U2,A9,PT42A*%
%TO.N,/~{LOCK}*%
X115788500Y-49962000D03*
%TO.P,U2,A10,PT42B*%
%TO.N,/~{BRDY}*%
X116588500Y-49962000D03*
%TO.P,U2,A11,PT53A*%
%TO.N,/USB_D0*%
X117388500Y-49962000D03*
%TO.P,U2,A12,PT53B*%
%TO.N,/USB_D3*%
X118188500Y-49962000D03*
%TO.P,U2,A13,PT65A*%
%TO.N,/USB_D6*%
X118988500Y-49962000D03*
%TO.P,U2,A14,PT65B*%
%TO.N,/USB_STP*%
X119788500Y-49962000D03*
%TO.P,U2,A15,PT67B*%
%TO.N,/UART_RX*%
X120588500Y-49962000D03*
%TO.P,U2,A16,GND*%
%TO.N,GND*%
X121388500Y-49962000D03*
%TO.P,U2,B1,PL2A*%
%TO.N,/A13*%
X109388500Y-50762000D03*
%TO.P,U2,B2,PL2B*%
%TO.N,/A12*%
X110188500Y-50762000D03*
%TO.P,U2,B3,PT4B*%
%TO.N,/A9*%
X110988500Y-50762000D03*
%TO.P,U2,B4,PT11B*%
%TO.N,/A7*%
X111788500Y-50762000D03*
%TO.P,U2,B5,PT15B*%
%TO.N,/A5*%
X112588500Y-50762000D03*
%TO.P,U2,B6,PT22B*%
%TO.N,/A3*%
X113388500Y-50762000D03*
%TO.P,U2,B7,PT27B*%
%TO.N,/~{ADS}*%
X114188500Y-50762000D03*
%TO.P,U2,B8,PT35B*%
%TO.N,/~{PLOCK}*%
X114988500Y-50762000D03*
%TO.P,U2,B9,PT38A_GR_PCLK1_0*%
%TO.N,/~{PCHK}*%
X115788500Y-50762000D03*
%TO.P,U2,B10,PT44A*%
%TO.N,/USB_CLK*%
X116588500Y-50762000D03*
%TO.P,U2,B11,PT49A*%
%TO.N,/USB_D1*%
X117388500Y-50762000D03*
%TO.P,U2,B12,PT56A*%
%TO.N,/USB_D4*%
X118188500Y-50762000D03*
%TO.P,U2,B13,PT60A*%
%TO.N,/USB_D7*%
X118988500Y-50762000D03*
%TO.P,U2,B14,PT67A*%
%TO.N,/UART_TX*%
X119788500Y-50762000D03*
%TO.P,U2,B15,PR2B_S0_IN*%
%TO.N,/MDQ7*%
X120588500Y-50762000D03*
%TO.P,U2,B16,PR2A*%
%TO.N,unconnected-(U2C-PR2A-PadB16)*%
X121388500Y-50762000D03*
%TO.P,U2,C1,PL5A*%
%TO.N,/A15*%
X109388500Y-51562000D03*
%TO.P,U2,C2,PL5B*%
%TO.N,/A14*%
X110188500Y-51562000D03*
%TO.P,U2,C3,PL2C*%
%TO.N,/~{BOFF}*%
X110988500Y-51562000D03*
%TO.P,U2,C4,PT11A*%
%TO.N,/SD_DAT1*%
X111788500Y-51562000D03*
%TO.P,U2,C5,PT15A*%
%TO.N,unconnected-(U2D-PT15A-PadC5)*%
X112588500Y-51562000D03*
%TO.P,U2,C6,PT22A*%
%TO.N,/SD_DAT2*%
X113388500Y-51562000D03*
%TO.P,U2,C7,PT27A_PCLKT0_1*%
%TO.N,/~{USB_RST}*%
X114188500Y-51562000D03*
%TO.P,U2,C8,PT35A_PCLKT1_0*%
%TO.N,/USB_DIR*%
X114988500Y-51562000D03*
%TO.P,U2,C9,PT38B_GR_PCLK1_1*%
%TO.N,/USB_REFCLK*%
X115788500Y-51562000D03*
%TO.P,U2,C10,PT44B*%
%TO.N,/USB_NXT*%
X116588500Y-51562000D03*
%TO.P,U2,C11,PT49B*%
%TO.N,/USB_D2*%
X117388500Y-51562000D03*
%TO.P,U2,C12,PT56B*%
%TO.N,/USB_D5*%
X118188500Y-51562000D03*
%TO.P,U2,C13,PT60B*%
%TO.N,unconnected-(U2C-PT60B-PadC13)*%
X118988500Y-51562000D03*
%TO.P,U2,C14,PR2C*%
%TO.N,unconnected-(U2C-PR2C-PadC14)*%
X119788500Y-51562000D03*
%TO.P,U2,C15,PR5B_S1_IN*%
%TO.N,/MDQ5*%
X120588500Y-51562000D03*
%TO.P,U2,C16,PR5A_S0_OUT*%
%TO.N,/MDQ6*%
X121388500Y-51562000D03*
%TO.P,U2,D1,PL8A*%
%TO.N,/A16*%
X109388500Y-52362000D03*
%TO.P,U2,D2,GND*%
%TO.N,GND*%
X110188500Y-52362000D03*
%TO.P,U2,D3,PL2D*%
%TO.N,/~{BS16}*%
X110988500Y-52362000D03*
%TO.P,U2,D4,PT9B*%
%TO.N,/SD_DAT0*%
X111788500Y-52362000D03*
%TO.P,U2,D5,PT13B*%
%TO.N,unconnected-(U2D-PT13B-PadD5)*%
X112588500Y-52362000D03*
%TO.P,U2,D6,PT20B*%
%TO.N,/SD_DAT3*%
X113388500Y-52362000D03*
%TO.P,U2,D7,PT24B_GR_PCLK0_0*%
%TO.N,unconnected-(U2D-PT24B_GR_PCLK0_0-PadD7)*%
X114188500Y-52362000D03*
%TO.P,U2,D8,PT33B*%
%TO.N,unconnected-(U2D-PT33B-PadD8)*%
X114988500Y-52362000D03*
%TO.P,U2,D9,PT40A*%
%TO.N,unconnected-(U2D-PT40A-PadD9)*%
X115788500Y-52362000D03*
%TO.P,U2,D10,PT47A*%
%TO.N,unconnected-(U2C-PT47A-PadD10)*%
X116588500Y-52362000D03*
%TO.P,U2,D11,PT51A*%
%TO.N,unconnected-(U2C-PT51A-PadD11)*%
X117388500Y-52362000D03*
%TO.P,U2,D12,PT58A*%
%TO.N,unconnected-(U2C-PT58A-PadD12)*%
X118188500Y-52362000D03*
%TO.P,U2,D13,PT62A*%
%TO.N,unconnected-(U2C-PT62A-PadD13)*%
X118988500Y-52362000D03*
%TO.P,U2,D14,PR2D*%
%TO.N,unconnected-(U2C-PR2D-PadD14)*%
X119788500Y-52362000D03*
%TO.P,U2,D15,GND*%
%TO.N,GND*%
X120588500Y-52362000D03*
%TO.P,U2,D16,PR8A*%
%TO.N,/MDQ4*%
X121388500Y-52362000D03*
%TO.P,U2,E1,PL11D*%
%TO.N,/A18*%
X109388500Y-53162000D03*
%TO.P,U2,E2,PL8B*%
%TO.N,/A17*%
X110188500Y-53162000D03*
%TO.P,U2,E3,PL5C*%
%TO.N,/~{BS8}*%
X110988500Y-53162000D03*
%TO.P,U2,E4,PT9A*%
%TO.N,/SD_CLK*%
X111788500Y-53162000D03*
%TO.P,U2,E5,PT13A*%
%TO.N,/SD_CMD*%
X112588500Y-53162000D03*
%TO.P,U2,E6,PT20A*%
%TO.N,unconnected-(U2D-PT20A-PadE6)*%
X113388500Y-53162000D03*
%TO.P,U2,E7,PT24A_GR_PCLK0_1*%
%TO.N,unconnected-(U2D-PT24A_GR_PCLK0_1-PadE7)*%
X114188500Y-53162000D03*
%TO.P,U2,E8,PT33A_PCLKT1_1*%
%TO.N,unconnected-(U2D-PT33A_PCLKT1_1-PadE8)*%
X114988500Y-53162000D03*
%TO.P,U2,E9,PT40B*%
%TO.N,unconnected-(U2D-PT40B-PadE9)*%
X115788500Y-53162000D03*
%TO.P,U2,E10,PT47B*%
%TO.N,unconnected-(U2C-PT47B-PadE10)*%
X116588500Y-53162000D03*
%TO.P,U2,E11,PT51B*%
%TO.N,unconnected-(U2C-PT51B-PadE11)*%
X117388500Y-53162000D03*
%TO.P,U2,E12,PT58B*%
%TO.N,unconnected-(U2C-PT58B-PadE12)*%
X118188500Y-53162000D03*
%TO.P,U2,E13,PT62B*%
%TO.N,unconnected-(U2C-PT62B-PadE13)*%
X118988500Y-53162000D03*
%TO.P,U2,E14,PR5C*%
%TO.N,unconnected-(U2C-PR5C-PadE14)*%
X119788500Y-53162000D03*
%TO.P,U2,E15,PR8B*%
%TO.N,/MDQ3*%
X120588500Y-53162000D03*
%TO.P,U2,E16,PR11D*%
%TO.N,/MDQ1*%
X121388500Y-53162000D03*
%TO.P,U2,F1,PL14A*%
%TO.N,/A20*%
X109388500Y-53962000D03*
%TO.P,U2,F2,PL11C*%
%TO.N,/A19*%
X110188500Y-53962000D03*
%TO.P,U2,F3,PL5D*%
%TO.N,/~{RDY}*%
X110988500Y-53962000D03*
%TO.P,U2,F4,PL8C*%
%TO.N,unconnected-(U2A-PL8C-PadF4)*%
X111788500Y-53962000D03*
%TO.P,U2,F5,PL8D*%
%TO.N,unconnected-(U2A-PL8D-PadF5)*%
X112588500Y-53962000D03*
%TO.P,U2,F6,VCCIO0*%
%TO.N,VCC*%
X113388500Y-53962000D03*
%TO.P,U2,F7,VCCIO0*%
X114188500Y-53962000D03*
%TO.P,U2,F8,GND*%
%TO.N,GND*%
X114988500Y-53962000D03*
%TO.P,U2,F9,GND*%
X115788500Y-53962000D03*
%TO.P,U2,F10,VCCIO1*%
%TO.N,VCC*%
X116588500Y-53962000D03*
%TO.P,U2,F11,VCCIO1*%
X117388500Y-53962000D03*
%TO.P,U2,F12,PR8D*%
%TO.N,unconnected-(U2C-PR8D-PadF12)*%
X118188500Y-53962000D03*
%TO.P,U2,F13,PR8C*%
%TO.N,unconnected-(U2C-PR8C-PadF13)*%
X118988500Y-53962000D03*
%TO.P,U2,F14,PR5D*%
%TO.N,unconnected-(U2C-PR5D-PadF14)*%
X119788500Y-53962000D03*
%TO.P,U2,F15,PR11C*%
%TO.N,/MDQ2*%
X120588500Y-53962000D03*
%TO.P,U2,F16,PR14A_S1_OUT*%
%TO.N,/MDQ0*%
X121388500Y-53962000D03*
%TO.P,U2,G1,PL20A_GR_PCLK7_1*%
%TO.N,/A22*%
X109388500Y-54762000D03*
%TO.P,U2,G2,PL14B*%
%TO.N,/A21*%
X110188500Y-54762000D03*
%TO.P,U2,G3,PL14C_VREF1_7*%
%TO.N,/~{KEN}*%
X110988500Y-54762000D03*
%TO.P,U2,G4,PL11B*%
%TO.N,unconnected-(U2A-PL11B-PadG4)*%
X111788500Y-54762000D03*
%TO.P,U2,G5,PL11A*%
%TO.N,unconnected-(U2A-PL11A-PadG5)*%
X112588500Y-54762000D03*
%TO.P,U2,G6,VCC*%
%TO.N,+1V2*%
X113388500Y-54762000D03*
%TO.P,U2,G7,VCC*%
X114188500Y-54762000D03*
%TO.P,U2,G8,GND*%
%TO.N,GND*%
X114988500Y-54762000D03*
%TO.P,U2,G9,VCC*%
%TO.N,+1V2*%
X115788500Y-54762000D03*
%TO.P,U2,G10,GND*%
%TO.N,GND*%
X116588500Y-54762000D03*
%TO.P,U2,G11,VCCAUX*%
%TO.N,VCC*%
X117388500Y-54762000D03*
%TO.P,U2,G12,PR11A*%
%TO.N,/CLK_50M*%
X118188500Y-54762000D03*
%TO.P,U2,G13,PR11B*%
%TO.N,unconnected-(U2C-PR11B-PadG13)*%
X118988500Y-54762000D03*
%TO.P,U2,G14,PR14C_VREF1_2*%
%TO.N,/MCKE*%
X119788500Y-54762000D03*
%TO.P,U2,G15,PR14B_S2_IN*%
%TO.N,/MCLK*%
X120588500Y-54762000D03*
%TO.P,U2,G16,PR20A_GR_PCLK2_1*%
%TO.N,/~{MBA0}*%
X121388500Y-54762000D03*
%TO.P,U2,H1,GND*%
%TO.N,GND*%
X109388500Y-55562000D03*
%TO.P,U2,H2,PL20B*%
%TO.N,/A23*%
X110188500Y-55562000D03*
%TO.P,U2,H3,PL14D*%
%TO.N,/HOLD*%
X110988500Y-55562000D03*
%TO.P,U2,H4,PL17B*%
%TO.N,/W{slash}~{R}*%
X111788500Y-55562000D03*
%TO.P,U2,H5,PL17A*%
%TO.N,unconnected-(U2A-PL17A-PadH5)*%
X112588500Y-55562000D03*
%TO.P,U2,H6,VCCIO7*%
%TO.N,VCC*%
X113388500Y-55562000D03*
%TO.P,U2,H7,VCCIO7*%
X114188500Y-55562000D03*
%TO.P,U2,H8,GND*%
%TO.N,GND*%
X114988500Y-55562000D03*
%TO.P,U2,H9,GND*%
X115788500Y-55562000D03*
%TO.P,U2,H10,GND*%
X116588500Y-55562000D03*
%TO.P,U2,H11,VCCIO2*%
%TO.N,VCC*%
X117388500Y-55562000D03*
%TO.P,U2,H12,PR17A*%
%TO.N,unconnected-(U2C-PR17A-PadH12)*%
X118188500Y-55562000D03*
%TO.P,U2,H13,PR17B*%
%TO.N,/~{MBA1}*%
X118988500Y-55562000D03*
%TO.P,U2,H14,PR14D*%
%TO.N,/DQM*%
X119788500Y-55562000D03*
%TO.P,U2,H15,PR20B*%
%TO.N,/~{MRAS}*%
X120588500Y-55562000D03*
%TO.P,U2,H16,GND*%
%TO.N,GND*%
X121388500Y-55562000D03*
%TO.P,U2,J1,PL23A_PCLKT7_1*%
%TO.N,/A25*%
X109388500Y-56362000D03*
%TO.P,U2,J2,PL23B_PCLKC7_1*%
%TO.N,/A24*%
X110188500Y-56362000D03*
%TO.P,U2,J3,PL20C_GR_PCLK7_0*%
%TO.N,/HLDA*%
X110988500Y-56362000D03*
%TO.P,U2,J4,PL17C*%
%TO.N,/BREQ*%
X111788500Y-56362000D03*
%TO.P,U2,J5,PL17D*%
%TO.N,/~{BE3}*%
X112588500Y-56362000D03*
%TO.P,U2,J6,VCCIO6*%
%TO.N,VCC*%
X113388500Y-56362000D03*
%TO.P,U2,J7,VCCIO6*%
X114188500Y-56362000D03*
%TO.P,U2,J8,GND*%
%TO.N,GND*%
X114988500Y-56362000D03*
%TO.P,U2,J9,GND*%
X115788500Y-56362000D03*
%TO.P,U2,J10,GND*%
X116588500Y-56362000D03*
%TO.P,U2,J11,VCCIO2*%
%TO.N,VCC*%
X117388500Y-56362000D03*
%TO.P,U2,J12,PR17D*%
%TO.N,unconnected-(U2C-PR17D-PadJ12)*%
X118188500Y-56362000D03*
%TO.P,U2,J13,PR17C*%
%TO.N,/~{MCS1}*%
X118988500Y-56362000D03*
%TO.P,U2,J14,PR20C_GR_PCLK2_0*%
%TO.N,/~{MCS2}*%
X119788500Y-56362000D03*
%TO.P,U2,J15,PR23B_PCLKC2_1*%
%TO.N,/D31*%
X120588500Y-56362000D03*
%TO.P,U2,J16,PR23A_PCLKT2_1_S2_OUT*%
%TO.N,/D30*%
X121388500Y-56362000D03*
%TO.P,U2,K1,PL23C_PCLKT7_0*%
%TO.N,/A27*%
X109388500Y-57162000D03*
%TO.P,U2,K2,PL23D_PCLKC7_0*%
%TO.N,/A26*%
X110188500Y-57162000D03*
%TO.P,U2,K3,PL20D*%
%TO.N,unconnected-(U2A-PL20D-PadK3)*%
X110988500Y-57162000D03*
%TO.P,U2,K4,PL29A_GR_PCLK6_0*%
%TO.N,/~{BE1}*%
X111788500Y-57162000D03*
%TO.P,U2,K5,PL29B*%
%TO.N,/~{BE2}*%
X112588500Y-57162000D03*
%TO.P,U2,K6,GND*%
%TO.N,GND*%
X113388500Y-57162000D03*
%TO.P,U2,K7,GND*%
X114188500Y-57162000D03*
%TO.P,U2,K8,GND*%
X114988500Y-57162000D03*
%TO.P,U2,K9,GND*%
X115788500Y-57162000D03*
%TO.P,U2,K10,GND*%
X116588500Y-57162000D03*
%TO.P,U2,K11,VCCIO3*%
%TO.N,VCC*%
X117388500Y-57162000D03*
%TO.P,U2,K12,PR29B*%
%TO.N,/LED2*%
X118188500Y-57162000D03*
%TO.P,U2,K13,PR29A_GR_PCLK3_0*%
%TO.N,/~{MWE}*%
X118988500Y-57162000D03*
%TO.P,U2,K14,PR20D*%
%TO.N,/~{MCAS}*%
X119788500Y-57162000D03*
%TO.P,U2,K15,PR23D_PCLKC2_0*%
%TO.N,/D29*%
X120588500Y-57162000D03*
%TO.P,U2,K16,PR23C_PCLKT2_0_S3_IN*%
%TO.N,/D28*%
X121388500Y-57162000D03*
%TO.P,U2,L1,PL26A_PCLKT6_1*%
%TO.N,/A29*%
X109388500Y-57962000D03*
%TO.P,U2,L2,PL26B_PCLKC6_1*%
%TO.N,/A28*%
X110188500Y-57962000D03*
%TO.P,U2,L3,PL32C*%
%TO.N,/M{slash}~{IO}*%
X110988500Y-57962000D03*
%TO.P,U2,L4,PL29C_GR_PCLK6_1*%
%TO.N,/D{slash}~{C}*%
X111788500Y-57962000D03*
%TO.P,U2,L5,PL29D*%
%TO.N,/PWT*%
X112588500Y-57962000D03*
%TO.P,U2,L6,VCCIO8*%
%TO.N,VCC*%
X113388500Y-57962000D03*
%TO.P,U2,L7,VCCAUX*%
X114188500Y-57962000D03*
%TO.P,U2,L8,VCC*%
%TO.N,+1V2*%
X114988500Y-57962000D03*
%TO.P,U2,L9,VCC*%
X115788500Y-57962000D03*
%TO.P,U2,L10,VCC*%
X116588500Y-57962000D03*
%TO.P,U2,L11,VCCIO3*%
%TO.N,VCC*%
X117388500Y-57962000D03*
%TO.P,U2,L12,PR29D*%
%TO.N,unconnected-(U2B-PR29D-PadL12)*%
X118188500Y-57962000D03*
%TO.P,U2,L13,PR29C_GR_PCLK3_1*%
%TO.N,/LED1*%
X118988500Y-57962000D03*
%TO.P,U2,L14,PR32C*%
%TO.N,/MA12*%
X119788500Y-57962000D03*
%TO.P,U2,L15,PR26B_PCLKC3_1*%
%TO.N,/D27*%
X120588500Y-57962000D03*
%TO.P,U2,L16,PR26A_PCLKT3_1_S3_OUT*%
%TO.N,/D26*%
X121388500Y-57962000D03*
%TO.P,U2,M1,PL26C_PCLKT6_0*%
%TO.N,/A31*%
X109388500Y-58762000D03*
%TO.P,U2,M2,PL26D_PCLKC6_0*%
%TO.N,/A30*%
X110188500Y-58762000D03*
%TO.P,U2,M3,PL32D*%
%TO.N,unconnected-(U2A-PL32D-PadM3)*%
X110988500Y-58762000D03*
%TO.P,U2,M4,PL35C*%
%TO.N,unconnected-(U2A-PL35C-PadM4)*%
X111788500Y-58762000D03*
%TO.P,U2,M5,PL44C_D9_IO9*%
%TO.N,unconnected-(U2A-PL44C_D9_IO9-PadM5)*%
X112588500Y-58762000D03*
%TO.P,U2,M6,PL47A_LLC_GPLL0T_MFGOUT1*%
%TO.N,/~{FERR}*%
X113388500Y-58762000D03*
%TO.P,U2,M7,PB9B_D2_IO2*%
%TO.N,unconnected-(U2B-PB9B_D2_IO2-PadM7)*%
X114188500Y-58762000D03*
%TO.P,U2,M8,PB15B_DOUT_CSON_ATB_FORCE*%
%TO.N,unconnected-(U2B-PB15B_DOUT_CSON_ATB_FORCE-PadM8)*%
X114988500Y-58762000D03*
%TO.P,U2,M9,PB18A_WRITEN_ATB_SENSE*%
%TO.N,unconnected-(U2B-PB18A_WRITEN_ATB_SENSE-PadM9)*%
X115788500Y-58762000D03*
%TO.P,U2,M10,TDO*%
%TO.N,/TDO*%
X116588500Y-58762000D03*
%TO.P,U2,M11,PR47A_LRC_GPLL0T_MFGOUT1*%
%TO.N,/MA0*%
X117388500Y-58762000D03*
%TO.P,U2,M12,PR44C_LRC_GPLL0T_MFGOUT2*%
%TO.N,/MA2*%
X118188500Y-58762000D03*
%TO.P,U2,M13,PR35C_S5_IN*%
%TO.N,/MA10*%
X118988500Y-58762000D03*
%TO.P,U2,M14,PR32D*%
%TO.N,/MA11*%
X119788500Y-58762000D03*
%TO.P,U2,M15,PR26D_PCLKC3_0*%
%TO.N,/D25*%
X120588500Y-58762000D03*
%TO.P,U2,M16,PR26C_PCLKT3_0_S4_IN*%
%TO.N,/D24*%
X121388500Y-58762000D03*
%TO.P,U2,N1,PL32A*%
%TO.N,/D0*%
X109388500Y-59562000D03*
%TO.P,U2,N2,GND*%
%TO.N,GND*%
X110188500Y-59562000D03*
%TO.P,U2,N3,PL35D*%
%TO.N,/~{EADS}*%
X110988500Y-59562000D03*
%TO.P,U2,N4,PL38A*%
%TO.N,/PCD*%
X111788500Y-59562000D03*
%TO.P,U2,N5,PL44D_D8_IO8*%
%TO.N,/INTR*%
X112588500Y-59562000D03*
%TO.P,U2,N6,PL47B_LLC_GPLL0C_MFGOUT1*%
%TO.N,/~{IGNNE}*%
X113388500Y-59562000D03*
%TO.P,U2,N7,PB9A_D3_IO3*%
%TO.N,unconnected-(U2B-PB9A_D3_IO3-PadN7)*%
X114188500Y-59562000D03*
%TO.P,U2,N8,PB15A_HOLDN_DI_BUSY_CSSPIN_CEN*%
%TO.N,unconnected-(U2B-PB15A_HOLDN_DI_BUSY_CSSPIN_CEN-PadN8)*%
X114988500Y-59562000D03*
%TO.P,U2,N9,CCLK_MCLK_SCK*%
%TO.N,/CCLK*%
X115788500Y-59562000D03*
%TO.P,U2,N10,CFG_0*%
%TO.N,unconnected-(U2B-CFG_0-PadN10)*%
X116588500Y-59562000D03*
%TO.P,U2,N11,PR47B_LRC_GPLL0C_MFGOUT1*%
%TO.N,unconnected-(U2B-PR47B_LRC_GPLL0C_MFGOUT1-PadN11)*%
X117388500Y-59562000D03*
%TO.P,U2,N12,PR44D_LRC_GPLL0C_MFGOUT2*%
%TO.N,/MA1*%
X118188500Y-59562000D03*
%TO.P,U2,N13,PR38A_S5_OUT*%
%TO.N,/MA8*%
X118988500Y-59562000D03*
%TO.P,U2,N14,PR35D*%
%TO.N,/MA9*%
X119788500Y-59562000D03*
%TO.P,U2,N15,GND*%
%TO.N,GND*%
X120588500Y-59562000D03*
%TO.P,U2,N16,PR32A*%
%TO.N,/D23*%
X121388500Y-59562000D03*
%TO.P,U2,P1,PL35A*%
%TO.N,/D1*%
X109388500Y-60362000D03*
%TO.P,U2,P2,PL32B*%
%TO.N,/~{A20M}*%
X110188500Y-60362000D03*
%TO.P,U2,P3,PL38B*%
%TO.N,/~{FLUSH}*%
X110988500Y-60362000D03*
%TO.P,U2,P4,PL41A_D13_IO13*%
%TO.N,/NMI*%
X111788500Y-60362000D03*
%TO.P,U2,P5,PL47D_LLC_GPLL0C_IN*%
%TO.N,/~{SMI}*%
X112588500Y-60362000D03*
%TO.P,U2,P6,PL47C_LLC_GPLL0T_IN*%
%TO.N,unconnected-(U2B-PL47C_LLC_GPLL0T_IN-PadP6)*%
X113388500Y-60362000D03*
%TO.P,U2,P7,PB6B_D4_MOSI2_IO4*%
%TO.N,/D15*%
X114188500Y-60362000D03*
%TO.P,U2,P8,PB13B_CS1N*%
%TO.N,/D13*%
X114988500Y-60362000D03*
%TO.P,U2,P9,DONE*%
%TO.N,/DONE*%
X115788500Y-60362000D03*
%TO.P,U2,P10,CFG_1*%
%TO.N,unconnected-(U2B-CFG_1-PadP10)*%
X116588500Y-60362000D03*
%TO.P,U2,P11,PR47C_LRC_GPLL0T_IN*%
%TO.N,/D14*%
X117388500Y-60362000D03*
%TO.P,U2,P12,PR47D_LRC_GPLL0C_IN_S7_OUT*%
%TO.N,unconnected-(U2B-PR47D_LRC_GPLL0C_IN_S7_OUT-PadP12)*%
X118188500Y-60362000D03*
%TO.P,U2,P13,PR41A_S6_OUT*%
%TO.N,/MA5*%
X118988500Y-60362000D03*
%TO.P,U2,P14,PR38B_S6_IN*%
%TO.N,/MA6*%
X119788500Y-60362000D03*
%TO.P,U2,P15,PR32B*%
%TO.N,/D21*%
X120588500Y-60362000D03*
%TO.P,U2,P16,PR35A_S4_OUT*%
%TO.N,/D22*%
X121388500Y-60362000D03*
%TO.P,U2,R1,PL35B_VREF1_6*%
%TO.N,/D2*%
X109388500Y-61162000D03*
%TO.P,U2,R2,PL38C_D15_IO15*%
%TO.N,/RESET*%
X110188500Y-61162000D03*
%TO.P,U2,R3,PL41B_D12_IO12*%
%TO.N,/D4*%
X110988500Y-61162000D03*
%TO.P,U2,R4,PL41C_D11_IO11*%
%TO.N,/D6*%
X111788500Y-61162000D03*
%TO.P,U2,R5,PL44A_LLC_GPLL0T_MFGOUT2*%
%TO.N,/~{STPCLK}*%
X112588500Y-61162000D03*
%TO.P,U2,R6,PB4B_D6_IO6*%
%TO.N,/D8*%
X113388500Y-61162000D03*
%TO.P,U2,R7,PB6A_D5_MISO2_IO5*%
%TO.N,/D10*%
X114188500Y-61162000D03*
%TO.P,U2,R8,PB13A_SN_CSN_SCAN_SHFT_EN*%
%TO.N,/D12*%
X114988500Y-61162000D03*
%TO.P,U2,R9,PROGRAMN*%
%TO.N,/PROGRAM*%
X115788500Y-61162000D03*
%TO.P,U2,R10,CFG_2*%
%TO.N,unconnected-(U2B-CFG_2-PadR10)*%
X116588500Y-61162000D03*
%TO.P,U2,R11,TDI*%
%TO.N,/TDI*%
X117388500Y-61162000D03*
%TO.P,U2,R12,PR44A*%
%TO.N,/MA3*%
X118188500Y-61162000D03*
%TO.P,U2,R13,PR41C*%
%TO.N,/MA4*%
X118988500Y-61162000D03*
%TO.P,U2,R14,PR41B_S7_IN*%
%TO.N,/D18*%
X119788500Y-61162000D03*
%TO.P,U2,R15,PR38C*%
%TO.N,/MA7*%
X120588500Y-61162000D03*
%TO.P,U2,R16,PR35B_VREF1_3*%
%TO.N,/D20*%
X121388500Y-61162000D03*
%TO.P,U2,T1,GND*%
%TO.N,GND*%
X109388500Y-61962000D03*
%TO.P,U2,T2,PL38D_D14_IO14*%
%TO.N,/D3*%
X110188500Y-61962000D03*
%TO.P,U2,T3,PL41D_D10_IO10*%
%TO.N,/D5*%
X110988500Y-61962000D03*
%TO.P,U2,T4,PL44B_LLC_GPLL0C_MFGOUT2*%
%TO.N,/D7*%
X111788500Y-61962000D03*
%TO.P,U2,T5,GND*%
%TO.N,GND*%
X112588500Y-61962000D03*
%TO.P,U2,T6,PB4A_D7_IO7*%
%TO.N,/SRESET*%
X113388500Y-61962000D03*
%TO.P,U2,T7,PB11A_D1_MISO_IO1*%
%TO.N,/D9*%
X114188500Y-61962000D03*
%TO.P,U2,T8,PB11B_D0_MOSI_IO0*%
%TO.N,/D11*%
X114988500Y-61962000D03*
%TO.P,U2,T9,INITN*%
%TO.N,/INIT*%
X115788500Y-61962000D03*
%TO.P,U2,T10,TCK_TEST_CLK*%
%TO.N,/TCK*%
X116588500Y-61962000D03*
%TO.P,U2,T11,TMS*%
%TO.N,/TMS*%
X117388500Y-61962000D03*
%TO.P,U2,T12,GND*%
%TO.N,GND*%
X118188500Y-61962000D03*
%TO.P,U2,T13,PR44B*%
%TO.N,/D16*%
X118988500Y-61962000D03*
%TO.P,U2,T14,PR41D*%
%TO.N,/D17*%
X119788500Y-61962000D03*
%TO.P,U2,T15,PR38D*%
%TO.N,/D19*%
X120588500Y-61962000D03*
%TO.P,U2,T16,GND*%
%TO.N,GND*%
X121388500Y-61962000D03*
%TD*%
D30*
%TO.P,IC1,1,VDD_1*%
%TO.N,VCC*%
X152538400Y-46266000D03*
%TO.P,IC1,2,DQ0*%
%TO.N,/MDQ0*%
X151738400Y-46266000D03*
%TO.P,IC1,3,VDDQ_1*%
%TO.N,VCC*%
X150938400Y-46266000D03*
%TO.P,IC1,4,NC_1*%
%TO.N,unconnected-(IC1-NC_1-Pad4)*%
X150138400Y-46266000D03*
%TO.P,IC1,5,DQ1*%
%TO.N,/MDQ1*%
X149338400Y-46266000D03*
%TO.P,IC1,6,VSSQ_1*%
%TO.N,GND*%
X148538400Y-46266000D03*
%TO.P,IC1,7,NC_2*%
%TO.N,unconnected-(IC1-NC_2-Pad7)*%
X147738400Y-46266000D03*
%TO.P,IC1,8,DQ2*%
%TO.N,/MDQ2*%
X146938400Y-46266000D03*
%TO.P,IC1,9,VDDQ_2*%
%TO.N,VCC*%
X146138400Y-46266000D03*
%TO.P,IC1,10,NC_3*%
%TO.N,unconnected-(IC1-NC_3-Pad10)*%
X145338400Y-46266000D03*
%TO.P,IC1,11,DQ3*%
%TO.N,/MDQ3*%
X144538400Y-46266000D03*
%TO.P,IC1,12,VSSQ_2*%
%TO.N,GND*%
X143738400Y-46266000D03*
%TO.P,IC1,13,NC_4*%
%TO.N,unconnected-(IC1-NC_4-Pad13)*%
X142938400Y-46266000D03*
%TO.P,IC1,14,VDD_2*%
%TO.N,VCC*%
X142138400Y-46266000D03*
%TO.P,IC1,15,NC_5*%
%TO.N,unconnected-(IC1-NC_5-Pad15)*%
X141338400Y-46266000D03*
%TO.P,IC1,16,WE#*%
%TO.N,/~{MWE}*%
X140538400Y-46266000D03*
%TO.P,IC1,17,CAS#*%
%TO.N,/~{MCAS}*%
X139738400Y-46266000D03*
%TO.P,IC1,18,RAS#*%
%TO.N,/~{MRAS}*%
X138938400Y-46266000D03*
%TO.P,IC1,19,CS#*%
%TO.N,/~{MCS1}*%
X138138400Y-46266000D03*
%TO.P,IC1,20,BA0*%
%TO.N,/~{MBA0}*%
X137338400Y-46266000D03*
%TO.P,IC1,21,BA1*%
%TO.N,/~{MBA1}*%
X136538400Y-46266000D03*
%TO.P,IC1,22,A10*%
%TO.N,/MA10*%
X135738400Y-46266000D03*
%TO.P,IC1,23,A0*%
%TO.N,/MA0*%
X134938400Y-46266000D03*
%TO.P,IC1,24,A1*%
%TO.N,/MA1*%
X134138400Y-46266000D03*
%TO.P,IC1,25,A2*%
%TO.N,/MA2*%
X133338400Y-46266000D03*
%TO.P,IC1,26,A3*%
%TO.N,/MA3*%
X132538400Y-46266000D03*
%TO.P,IC1,27,VDD_3*%
%TO.N,VCC*%
X131738400Y-46266000D03*
%TO.P,IC1,28,VSS_1*%
%TO.N,GND*%
X131738400Y-57722000D03*
%TO.P,IC1,29,A4*%
%TO.N,/MA4*%
X132538400Y-57722000D03*
%TO.P,IC1,30,A5*%
%TO.N,/MA5*%
X133338400Y-57722000D03*
%TO.P,IC1,31,A6*%
%TO.N,/MA6*%
X134138400Y-57722000D03*
%TO.P,IC1,32,A7*%
%TO.N,/MA7*%
X134938400Y-57722000D03*
%TO.P,IC1,33,A8*%
%TO.N,/MA8*%
X135738400Y-57722000D03*
%TO.P,IC1,34,A9*%
%TO.N,/MA9*%
X136538400Y-57722000D03*
%TO.P,IC1,35,A11*%
%TO.N,/MA11*%
X137338400Y-57722000D03*
%TO.P,IC1,36,A12*%
%TO.N,/MA12*%
X138138400Y-57722000D03*
%TO.P,IC1,37,CKE*%
%TO.N,/MCKE*%
X138938400Y-57722000D03*
%TO.P,IC1,38,CLK*%
%TO.N,/MCLK*%
X139738400Y-57722000D03*
%TO.P,IC1,39,DQM*%
%TO.N,/DQM*%
X140538400Y-57722000D03*
%TO.P,IC1,40,NC_6*%
%TO.N,unconnected-(IC1-NC_6-Pad40)*%
X141338400Y-57722000D03*
%TO.P,IC1,41,VSS_2*%
%TO.N,GND*%
X142138400Y-57722000D03*
%TO.P,IC1,42,NC_7*%
%TO.N,unconnected-(IC1-NC_7-Pad42)*%
X142938400Y-57722000D03*
%TO.P,IC1,43,VDDQ_3*%
%TO.N,VCC*%
X143738400Y-57722000D03*
%TO.P,IC1,44,DQ4*%
%TO.N,/MDQ4*%
X144538400Y-57722000D03*
%TO.P,IC1,45,NC_8*%
%TO.N,unconnected-(IC1-NC_8-Pad45)*%
X145338400Y-57722000D03*
%TO.P,IC1,46,VSSQ_3*%
%TO.N,GND*%
X146138400Y-57722000D03*
%TO.P,IC1,47,DQ5*%
%TO.N,/MDQ5*%
X146938400Y-57722000D03*
%TO.P,IC1,48,NC_9*%
%TO.N,unconnected-(IC1-NC_9-Pad48)*%
X147738400Y-57722000D03*
%TO.P,IC1,49,VDDQ_4*%
%TO.N,VCC*%
X148538400Y-57722000D03*
%TO.P,IC1,50,DQ6*%
%TO.N,/MDQ6*%
X149338400Y-57722000D03*
%TO.P,IC1,51,NC_10*%
%TO.N,unconnected-(IC1-NC_10-Pad51)*%
X150138400Y-57722000D03*
%TO.P,IC1,52,VSSQ_4*%
%TO.N,GND*%
X150938400Y-57722000D03*
%TO.P,IC1,53,DQ7*%
%TO.N,/MDQ7*%
X151738400Y-57722000D03*
%TO.P,IC1,54,VSS_3*%
%TO.N,GND*%
X152538400Y-57722000D03*
%TD*%
D34*
%TO.N,/~{USB_RST}*%
X121809000Y-41481000D03*
%TO.N,GND*%
X127773000Y-41786000D03*
D35*
%TO.N,VCC*%
X137159000Y-86428000D03*
X146921000Y-86416000D03*
%TO.N,/LED2*%
X125832000Y-57766000D03*
X118054000Y-56937000D03*
%TO.N,/LED1*%
X124395000Y-57809000D03*
X118821000Y-57707000D03*
D36*
%TO.N,GND*%
X128778000Y-69723000D03*
%TO.N,VCC*%
X103606600Y-35433000D03*
X103606600Y-38608000D03*
%TO.N,GND*%
X112293400Y-42722800D03*
X112115600Y-34493200D03*
X94894400Y-34493200D03*
D35*
X95199200Y-42748200D03*
%TO.N,/SD_DAT2*%
X113080800Y-51282600D03*
X108613848Y-40948584D03*
%TO.N,/SD_DAT3*%
X113055400Y-52705000D03*
X108585000Y-41554400D03*
%TO.N,/SD_CMD*%
X112268000Y-52832000D03*
X108572115Y-42292973D03*
%TO.N,/SD_CLK*%
X111455200Y-52832000D03*
X108864400Y-42824400D03*
%TO.N,/SD_DAT1*%
X107721400Y-43815000D03*
%TO.N,/SD_DAT0*%
X108585000Y-43815000D03*
%TO.N,/~{BOFF}*%
X110439200Y-49276000D03*
%TO.N,/SD_DAT1*%
X111455200Y-51231800D03*
%TO.N,/SD_DAT0*%
X111455200Y-52044600D03*
D34*
%TO.N,VCC*%
X118110000Y-40335200D03*
%TO.N,/CLK_50M*%
X116332000Y-42621200D03*
D35*
X117906800Y-55016400D03*
D36*
%TO.N,GND*%
X105308400Y-59690000D03*
X107137200Y-68122800D03*
X82960600Y-88694600D03*
%TO.N,/DP3*%
X91948000Y-84480400D03*
X84840200Y-88796200D03*
%TO.N,GND*%
X106730800Y-74218800D03*
D34*
%TO.N,VCC*%
X117856000Y-35410000D03*
%TO.N,GND*%
X126742000Y-39495000D03*
D35*
%TO.N,/INIT*%
X116887000Y-74728000D03*
%TO.N,/PROGRAM*%
X117576000Y-74959000D03*
%TO.N,/TCK*%
X114975000Y-65886000D03*
%TO.N,/PROGRAM*%
X115391000Y-64221000D03*
%TO.N,/INIT*%
X115231000Y-63453000D03*
%TO.N,/DONE*%
X118461966Y-73359992D03*
%TO.N,/TDO*%
X119008000Y-73096000D03*
%TO.N,/TDI*%
X120249000Y-72609000D03*
X117193320Y-64638089D03*
%TO.N,/TMS*%
X119662000Y-72976000D03*
X116627000Y-64421000D03*
%TO.N,/D13*%
X114331500Y-64830500D03*
X114670000Y-60671000D03*
%TO.N,/D15*%
X113449000Y-66666000D03*
X113930000Y-60655000D03*
%TO.N,/DONE*%
X116042000Y-60516000D03*
%TO.N,/CCLK*%
X115451000Y-59896000D03*
%TO.N,/TDO*%
X116939000Y-58404000D03*
D34*
%TO.N,/~{USB_RST}*%
X118444000Y-41283000D03*
D35*
X113895000Y-51256000D03*
D34*
%TO.N,VCC*%
X124751000Y-44653000D03*
D35*
%TO.N,GND*%
X120508000Y-43476000D03*
X120471000Y-45430000D03*
X122521000Y-43435000D03*
X122485000Y-45435000D03*
D34*
%TO.N,/USB_DIR*%
X119292000Y-41450000D03*
D35*
X114700000Y-51289000D03*
D34*
%TO.N,/USB_STP*%
X120733000Y-41265000D03*
D35*
X120954000Y-48224000D03*
%TO.N,/USB_D5*%
X118375000Y-51325000D03*
X119367000Y-48202000D03*
%TO.N,/USB_D2*%
X118139000Y-48569000D03*
X117728000Y-51221000D03*
%TO.N,/USB_NXT*%
X116819000Y-48564000D03*
X116849000Y-51263000D03*
D34*
%TO.N,/USB_REFCLK*%
X122460000Y-41213000D03*
D35*
X115417000Y-51190000D03*
%TO.N,VCC*%
X70121000Y-46168000D03*
%TO.N,GND*%
X155378000Y-45130000D03*
%TO.N,VCC*%
X140738000Y-78924000D03*
%TO.N,GND*%
X117123000Y-81762000D03*
X66852800Y-43637200D03*
%TO.N,/~{FLUSH}*%
X110680000Y-60642000D03*
%TO.N,/NMI*%
X112045987Y-60069536D03*
%TO.N,/INTR*%
X112290000Y-59267000D03*
%TO.N,/SRESET*%
X106771000Y-63237550D03*
X110714000Y-65570000D03*
X106764000Y-65570000D03*
%TO.N,/~{SMI}*%
X112307000Y-60617000D03*
%TO.N,/~{FERR}*%
X113047000Y-59109000D03*
%TO.N,/~{IGNNE}*%
X113074000Y-59856000D03*
%TO.N,/~{STPCLK}*%
X111082000Y-63947000D03*
D34*
%TO.N,GND*%
X84125000Y-81137000D03*
%TO.N,/RESET*%
X106557000Y-61584000D03*
%TO.N,/~{A20M}*%
X105999000Y-60788000D03*
D35*
%TO.N,/PCD*%
X111492000Y-59248000D03*
%TO.N,/~{EADS}*%
X110694000Y-59820000D03*
D34*
%TO.N,/~{STPCLK}*%
X82870000Y-80683000D03*
%TO.N,/~{IGNNE}*%
X82340000Y-81363000D03*
%TO.N,/~{FERR}*%
X79384000Y-81542000D03*
%TO.N,/~{SMI}*%
X78820000Y-80755000D03*
%TO.N,/SRESET*%
X76131000Y-80175000D03*
%TO.N,/NMI*%
X73080000Y-80039000D03*
%TO.N,/INTR*%
X72299000Y-79537000D03*
%TO.N,/~{FLUSH}*%
X73092000Y-79042000D03*
%TO.N,/RESET*%
X72383000Y-78484000D03*
%TO.N,/~{A20M}*%
X73181000Y-77859000D03*
%TO.N,/~{EADS}*%
X72484000Y-77234000D03*
D35*
%TO.N,/PWT*%
X112270000Y-58295000D03*
%TO.N,/D{slash}~{C}*%
X111492000Y-58259000D03*
%TO.N,/M{slash}~{IO}*%
X110669000Y-58262000D03*
%TO.N,/~{BE3}*%
X112943000Y-56720000D03*
%TO.N,/~{BE2}*%
X112274000Y-56842000D03*
%TO.N,/~{BE1}*%
X111522000Y-56864000D03*
%TO.N,/BREQ*%
X111548962Y-56130064D03*
%TO.N,/W{slash}~{R}*%
X111536000Y-55267000D03*
D36*
%TO.N,/PCD*%
X72114000Y-74911000D03*
%TO.N,/PWT*%
X73580000Y-74329000D03*
%TO.N,/D{slash}~{C}*%
X72302030Y-73663300D03*
%TO.N,/M{slash}~{IO}*%
X72907000Y-73059000D03*
%TO.N,/~{BE3}*%
X73839000Y-71570000D03*
%TO.N,/~{BE2}*%
X72495000Y-70944150D03*
%TO.N,/~{BE1}*%
X73860000Y-70320300D03*
%TO.N,/~{BE0}*%
X72565522Y-69696450D03*
%TO.N,/BREQ*%
X73358000Y-69527000D03*
%TO.N,/W{slash}~{R}*%
X72609000Y-68138000D03*
D34*
%TO.N,/HLDA*%
X73198000Y-67556000D03*
%TO.N,/HOLD*%
X74221000Y-62703000D03*
%TO.N,/~{KEN}*%
X72885000Y-60740000D03*
%TO.N,/~{RDY}*%
X72186000Y-60230000D03*
D35*
%TO.N,/HLDA*%
X110594000Y-55968000D03*
%TO.N,/HOLD*%
X110672000Y-55229000D03*
%TO.N,/~{KEN}*%
X110686000Y-54494000D03*
%TO.N,/~{RDY}*%
X110640000Y-53620000D03*
D34*
%TO.N,/~{BS8}*%
X73441000Y-58594000D03*
%TO.N,/~{BS16}*%
X72277000Y-58078000D03*
%TO.N,/~{BOFF}*%
X72901000Y-57568000D03*
D35*
%TO.N,/~{BS8}*%
X110745000Y-52879000D03*
%TO.N,/~{BS16}*%
X110731000Y-52073000D03*
D36*
%TO.N,GND*%
X130927600Y-46034800D03*
D35*
X109828000Y-52005000D03*
D36*
X73586000Y-61932000D03*
%TO.N,/MA0*%
X135328000Y-68413000D03*
%TO.N,/MA8*%
X135769000Y-65095000D03*
%TO.N,/MA1*%
X133966000Y-65933707D03*
%TO.N,/MA2*%
X132743054Y-66170965D03*
%TO.N,/MA5*%
X133482449Y-64686007D03*
%TO.N,/MA4*%
X132457972Y-63945968D03*
%TO.N,/MA6*%
X134212958Y-61675408D03*
%TO.N,/MA7*%
X135357571Y-61905236D03*
%TO.N,/MA11*%
X137521684Y-58895780D03*
%TO.N,/MA10*%
X135994584Y-58923502D03*
%TO.N,/~{MCAS}*%
X140255394Y-56445394D03*
%TO.N,/DQM*%
X141652000Y-54064000D03*
%TO.N,/~{MRAS}*%
X139975806Y-55285194D03*
%TO.N,/MCKE*%
X124852240Y-55375563D03*
%TO.N,/~{MBA0}*%
X137735477Y-54110650D03*
%TO.N,/MCLK*%
X140509278Y-54039023D03*
%TO.N,/MDQ0*%
X151393000Y-53719000D03*
%TO.N,/~{MBA1}*%
X124467273Y-53626167D03*
X136614087Y-53622914D03*
%TO.N,/MDQ2*%
X147385838Y-53095750D03*
%TO.N,/MDQ1*%
X149892000Y-53112000D03*
%TO.N,/~{MWE}*%
X128659869Y-52538150D03*
X141701624Y-52257500D03*
%TO.N,/MDQ3*%
X145228353Y-52538150D03*
%TO.N,/MDQ4*%
X144382718Y-52131950D03*
%TO.N,/MDQ6*%
X149243000Y-51731000D03*
%TO.N,/MDQ5*%
X146362000Y-51098150D03*
%TO.N,/MDQ7*%
X151990000Y-50425000D03*
%TO.N,/~{MWE}*%
X140585000Y-44588000D03*
X140935683Y-63396961D03*
%TO.N,/MDQ0*%
X151873000Y-47977000D03*
X151393000Y-63433000D03*
%TO.N,/MDQ1*%
X149562000Y-48397000D03*
X149892000Y-62263000D03*
%TO.N,/MDQ2*%
X147296000Y-62128000D03*
X146951000Y-47872000D03*
%TO.N,/MDQ3*%
X145060000Y-62188000D03*
X144715000Y-48082000D03*
%TO.N,/~{MCAS}*%
X139901150Y-47914000D03*
X139863000Y-62083000D03*
%TO.N,/~{MRAS}*%
X139112000Y-47914000D03*
X139437949Y-63060963D03*
%TO.N,/~{MCS1}*%
X138200000Y-47942000D03*
X138982178Y-54229150D03*
%TO.N,/~{MCS2}*%
X138481183Y-55857544D03*
X137925000Y-64358000D03*
%TO.N,/~{MBA0}*%
X137413189Y-62186016D03*
X137394000Y-44662000D03*
%TO.N,/~{MBA1}*%
X136581000Y-48001000D03*
X136595000Y-63336000D03*
%TO.N,/MA10*%
X135606689Y-62608345D03*
X135814000Y-44593000D03*
%TO.N,/MA0*%
X133925206Y-58812461D03*
X134468000Y-48001000D03*
%TO.N,/MA1*%
X133794000Y-44413000D03*
X133576025Y-62687743D03*
%TO.N,/MA2*%
X132449802Y-62324056D03*
X133170150Y-47965000D03*
%TO.N,/MA3*%
X131588839Y-64833315D03*
X132330883Y-48122959D03*
%TO.N,/MDQ7*%
X152061850Y-56272000D03*
X151764000Y-73842000D03*
%TO.N,/MDQ6*%
X149438000Y-73617000D03*
X149375000Y-56185000D03*
%TO.N,/MDQ5*%
X147037000Y-73692000D03*
X146439018Y-56520499D03*
%TO.N,/MDQ4*%
X144436000Y-70716000D03*
X144386000Y-56235000D03*
%TO.N,/DQM*%
X141728494Y-56187096D03*
X140534000Y-70704000D03*
%TO.N,/MCLK*%
X139771000Y-73680000D03*
X141540242Y-59309394D03*
%TO.N,/MCKE*%
X138933000Y-70741000D03*
X139273851Y-55662421D03*
%TO.N,/MA12*%
X138145000Y-73780000D03*
X139733742Y-59344149D03*
%TO.N,/MA11*%
X137749499Y-55637750D03*
X137357000Y-70766000D03*
%TO.N,/MA9*%
X136595000Y-73742000D03*
X138019262Y-59454779D03*
%TO.N,/MA8*%
X136236824Y-55637750D03*
X135707000Y-70741000D03*
%TO.N,/MA7*%
X135006000Y-73880000D03*
X135253585Y-58939150D03*
%TO.N,/MA6*%
X134989124Y-55637750D03*
X134119000Y-70716000D03*
%TO.N,/MA5*%
X133343000Y-73805000D03*
X132663026Y-59070989D03*
%TO.N,/MA4*%
X132568000Y-70729000D03*
X132903224Y-55637750D03*
%TO.N,GND*%
X131757000Y-73758000D03*
X148543000Y-44622000D03*
X152609000Y-55152000D03*
X98679000Y-65532000D03*
X68834000Y-65024000D03*
X72771000Y-84455000D03*
D35*
X122453400Y-48895000D03*
D36*
X142139000Y-73728000D03*
D35*
X120954800Y-51993800D03*
D36*
X107297689Y-59834750D03*
X150905000Y-73640000D03*
X99314000Y-52832000D03*
X98679000Y-73025000D03*
D35*
X120192800Y-59182000D03*
D36*
X92710000Y-51435000D03*
X152580000Y-73580000D03*
X132128941Y-55637750D03*
X87630000Y-84328000D03*
X142103000Y-55154000D03*
X92964000Y-81280000D03*
X86487000Y-54483000D03*
X148567000Y-62276000D03*
D35*
X116179600Y-55168800D03*
D36*
X89662000Y-51308000D03*
X98425000Y-81280000D03*
X95123000Y-81280000D03*
D35*
X115392200Y-55956200D03*
D36*
X68834000Y-80645000D03*
X102870000Y-79629000D03*
X72009000Y-72517000D03*
X143736000Y-44641000D03*
X77343000Y-51435000D03*
X72009000Y-76073000D03*
X114874800Y-42283200D03*
X98830000Y-55033000D03*
X68834000Y-59563000D03*
X82169000Y-54483000D03*
X85344000Y-84328000D03*
D35*
X117525800Y-63119000D03*
D36*
X74724150Y-81153000D03*
X98552000Y-75438000D03*
X85090000Y-51435000D03*
X77089000Y-81153000D03*
X145815168Y-55339426D03*
D35*
X115392200Y-54356000D03*
D34*
X112587000Y-62757000D03*
D36*
X107918195Y-54523150D03*
X91059000Y-84455000D03*
D35*
X108737400Y-49250600D03*
D36*
X150784150Y-55185000D03*
X108614000Y-62728000D03*
X68834000Y-68580000D03*
X146138000Y-73659000D03*
D35*
X115392200Y-56769000D03*
D36*
X72390000Y-54991000D03*
X99022629Y-60218850D03*
D35*
X116179600Y-56769000D03*
X122224800Y-55575200D03*
D36*
X98679000Y-78105000D03*
X122455300Y-63042000D03*
%TO.N,VCC*%
X97409000Y-81153000D03*
X72667427Y-75561414D03*
D35*
X113792000Y-57581800D03*
D36*
X148620000Y-55054000D03*
X68961000Y-76581000D03*
X102362000Y-80518000D03*
X93853000Y-81280000D03*
X76327000Y-81026000D03*
X143715000Y-73669000D03*
X131773000Y-44692000D03*
X130802708Y-62380951D03*
X152706880Y-62350054D03*
X74422000Y-84582000D03*
X86840000Y-81309000D03*
D35*
X113792000Y-55956200D03*
D36*
X102489000Y-72644000D03*
X72390000Y-67056000D03*
X85471000Y-54483000D03*
X77343000Y-84709000D03*
X148601000Y-73709000D03*
X73406000Y-81153000D03*
X88103000Y-54275000D03*
X68834000Y-55626000D03*
X84328000Y-54610000D03*
X150933000Y-44680000D03*
X71986057Y-68537706D03*
X68961000Y-72009000D03*
X146111000Y-44739000D03*
X102233000Y-65290000D03*
X81280000Y-54610000D03*
X74345000Y-54147000D03*
X85090000Y-81153000D03*
X89408000Y-81153000D03*
X72429459Y-61683545D03*
X95838000Y-54197000D03*
X91059000Y-81153000D03*
X98679000Y-67564000D03*
X68961000Y-73533000D03*
X72517000Y-59191850D03*
X72390000Y-64516000D03*
D35*
X116967000Y-53594000D03*
D36*
X77851000Y-54610000D03*
X91654000Y-54142000D03*
X142151000Y-44633000D03*
X81026000Y-81153000D03*
X150726928Y-62288580D03*
D35*
X113792000Y-53568600D03*
D36*
X76835000Y-54737000D03*
X82931000Y-54610000D03*
X152392762Y-44792238D03*
X142145000Y-62325000D03*
X103251000Y-77597000D03*
D35*
X117779800Y-57556400D03*
D36*
X98949158Y-57865950D03*
X102235000Y-66167000D03*
X102362000Y-76073000D03*
X102216249Y-55344150D03*
%TO.N,+1V2*%
X115925600Y-67005200D03*
D35*
X116205000Y-58343800D03*
X113766600Y-55143400D03*
X115468400Y-55092600D03*
D36*
X114925600Y-43908800D03*
D35*
%TO.N,/MA2*%
X117856000Y-59080400D03*
%TO.N,/MA9*%
X119496323Y-59819130D03*
%TO.N,/~{MCS1}*%
X119303800Y-56032400D03*
%TO.N,/MA0*%
X117017800Y-59131200D03*
%TO.N,/~{MBA1}*%
X119380000Y-55168800D03*
D34*
%TO.N,/MA7*%
X122123200Y-61772800D03*
D35*
%TO.N,/MA8*%
X118731370Y-59854177D03*
D34*
%TO.N,/MA4*%
X119380000Y-62941200D03*
D35*
%TO.N,/MA11*%
X120091200Y-58470800D03*
%TO.N,/DQM*%
X120116600Y-55245000D03*
%TO.N,/MA10*%
X119354600Y-58394600D03*
%TO.N,/~{MCAS}*%
X120116600Y-56845200D03*
%TO.N,/MA1*%
X117830600Y-59918600D03*
%TO.N,/MA5*%
X119329200Y-60706000D03*
%TO.N,/MA12*%
X119531370Y-57669822D03*
D34*
%TO.N,/MA3*%
X118414800Y-63246000D03*
D35*
%TO.N,/~{MWE}*%
X118730781Y-56868731D03*
%TO.N,/MCKE*%
X120167400Y-54381400D03*
%TO.N,/MA6*%
X120091200Y-60655200D03*
%TO.N,/~{MCS2}*%
X119490676Y-56622207D03*
%TD*%
D37*
%TO.N,VCC*%
X123447000Y-44192000D02*
X123447000Y-44692000D01*
%TO.N,/USB_REFCLK*%
X122460000Y-41647204D02*
X122460000Y-41213000D01*
%TO.N,Net-(U3-VDD18)*%
X121259500Y-41213296D02*
X121837646Y-40635150D01*
X121837646Y-40635150D02*
X122699354Y-40635150D01*
X122699354Y-40635150D02*
X122978204Y-40914000D01*
X122978204Y-40914000D02*
X127499000Y-40914000D01*
X121259500Y-42504500D02*
X121259500Y-41213296D01*
%TO.N,/USB_REFCLK*%
X122259500Y-42504500D02*
X122259500Y-41847704D01*
X122259500Y-41847704D02*
X122460000Y-41647204D01*
%TO.N,/~{USB_RST}*%
X121759500Y-41530500D02*
X121809000Y-41481000D01*
X121759500Y-42504500D02*
X121759500Y-41530500D01*
%TO.N,Net-(U3-VDD18)*%
X127499000Y-40914000D02*
X128088000Y-40325000D01*
%TO.N,GND*%
X128088000Y-38765000D02*
X128138400Y-38765000D01*
X128138400Y-38765000D02*
X130352800Y-36550600D01*
%TO.N,Net-(J10-D-)*%
X123447000Y-45192000D02*
X126819000Y-45192000D01*
X134329450Y-40270150D02*
X134594600Y-40005000D01*
X126819000Y-45192000D02*
X127991850Y-44019150D01*
X131446074Y-40270150D02*
X134329450Y-40270150D01*
X127991850Y-44019150D02*
X127991852Y-43724372D01*
X127991852Y-43724372D02*
X131446074Y-40270150D01*
X134594600Y-40005000D02*
X134594600Y-39161080D01*
X136913250Y-38251050D02*
X137922800Y-39260600D01*
X134594600Y-39161080D02*
X135504630Y-38251050D01*
X135504630Y-38251050D02*
X136913250Y-38251050D01*
%TO.N,/UART_RX*%
X129078368Y-43823250D02*
X129373143Y-43823250D01*
X155861550Y-72352450D02*
X141361000Y-86853000D01*
X155861550Y-47263550D02*
X155861550Y-72352450D01*
X128830050Y-44071568D02*
X129078368Y-43823250D01*
%TO.N,/UART_TX*%
X156338000Y-72464000D02*
X142856500Y-85945500D01*
X124054200Y-45973400D02*
X124498685Y-45973400D01*
X124498685Y-45973400D02*
X124719286Y-45752800D01*
X124719286Y-45752800D02*
X127048462Y-45752800D01*
X130623212Y-42178050D02*
X151171182Y-42178050D01*
%TO.N,Net-(J10-D+)*%
X124382126Y-45692000D02*
X124602726Y-45471400D01*
%TO.N,/UART_RX*%
X129373143Y-43823250D02*
X130738943Y-42457450D01*
X124835017Y-46032200D02*
X127164194Y-46032200D01*
%TO.N,/UART_TX*%
X119788500Y-50762000D02*
X120158050Y-50392450D01*
X128550650Y-44250612D02*
X128550650Y-43955836D01*
X151171182Y-42178050D02*
X156140950Y-47147819D01*
%TO.N,Net-(J10-D+)*%
X124602726Y-45471400D02*
X126934732Y-45471400D01*
X134633850Y-40549550D02*
X135922800Y-39260600D01*
X131856581Y-40549550D02*
X134633850Y-40549550D01*
X129141681Y-43264450D02*
X131856581Y-40549550D01*
X128846906Y-43264450D02*
X129141681Y-43264450D01*
%TO.N,/UART_TX*%
X128962637Y-43543850D02*
X129257411Y-43543850D01*
%TO.N,/UART_RX*%
X127164194Y-46032200D02*
X128830050Y-44366344D01*
%TO.N,Net-(J10-D+)*%
X128271251Y-43840104D02*
X128846906Y-43264450D01*
X128271250Y-44134882D02*
X128271251Y-43840104D01*
X126934732Y-45471400D02*
X128271250Y-44134882D01*
X123447000Y-45692000D02*
X124382126Y-45692000D01*
%TO.N,/UART_TX*%
X128550650Y-43955836D02*
X128962637Y-43543850D01*
X156338000Y-47855218D02*
X156338000Y-72464000D01*
X156140950Y-47147819D02*
X156140950Y-47658168D01*
X129257411Y-43543850D02*
X130623212Y-42178050D01*
X127048462Y-45752800D02*
X128550650Y-44250612D01*
%TO.N,/UART_RX*%
X120588500Y-49962000D02*
X124041100Y-46509400D01*
X124357817Y-46509400D02*
X124835017Y-46032200D01*
X130738943Y-42457450D02*
X151055450Y-42457450D01*
%TO.N,/UART_TX*%
X120158050Y-49869550D02*
X124054200Y-45973400D01*
%TO.N,/UART_RX*%
X151055450Y-42457450D02*
X155861550Y-47263550D01*
X124041100Y-46509400D02*
X124357817Y-46509400D01*
%TO.N,/UART_TX*%
X120158050Y-50392450D02*
X120158050Y-49869550D01*
X156140950Y-47658168D02*
X156338000Y-47855218D01*
%TO.N,/UART_RX*%
X128830050Y-44366344D02*
X128830050Y-44071568D01*
%TO.N,GND*%
X126666000Y-41798000D02*
X127761000Y-41798000D01*
X127761000Y-41798000D02*
X127773000Y-41786000D01*
%TO.N,Net-(U3-RBIAS)*%
X122759500Y-42504500D02*
X123790500Y-42504500D01*
X123790500Y-42504500D02*
X124497000Y-41798000D01*
X124497000Y-41798000D02*
X125016000Y-41798000D01*
%TO.N,VCC*%
X138265000Y-86380000D02*
X137207000Y-86380000D01*
X137207000Y-86380000D02*
X137159000Y-86428000D01*
X145950000Y-86375000D02*
X146880000Y-86375000D01*
X146880000Y-86375000D02*
X146921000Y-86416000D01*
%TO.N,/UART_RX*%
X139905000Y-86380000D02*
X140888000Y-86380000D01*
X140888000Y-86380000D02*
X141361000Y-86853000D01*
%TO.N,/UART_TX*%
X144310000Y-86375000D02*
X143286000Y-86375000D01*
X143286000Y-86375000D02*
X142856500Y-85945500D01*
%TO.N,/LED2*%
X125832000Y-57766000D02*
X126934000Y-58868000D01*
X128301000Y-58868000D02*
X128905000Y-59472000D01*
X126934000Y-58868000D02*
X128301000Y-58868000D01*
X128905000Y-59472000D02*
X128905000Y-60135000D01*
%TO.N,/LED1*%
X126594000Y-59216000D02*
X126594000Y-59602000D01*
X126594000Y-59602000D02*
X127127000Y-60135000D01*
%TO.N,/LED2*%
X118188500Y-57162000D02*
X118188500Y-57071500D01*
X118188500Y-57071500D02*
X118054000Y-56937000D01*
%TO.N,/LED1*%
X118988500Y-57874500D02*
X118821000Y-57707000D01*
X118988500Y-57962000D02*
X118988500Y-57874500D01*
X125187000Y-57809000D02*
X126594000Y-59216000D01*
X124395000Y-57809000D02*
X125187000Y-57809000D01*
%TO.N,/UART_RX*%
X129051000Y-87127000D02*
X129051000Y-86504570D01*
X129748550Y-87824550D02*
X129051000Y-87127000D01*
%TO.N,/UART_TX*%
X129467000Y-88419000D02*
X127813000Y-86765000D01*
%TO.N,/UART_RX*%
X128251880Y-85705450D02*
X126332550Y-85705450D01*
X141361000Y-86853000D02*
X140389450Y-87824550D01*
X140389450Y-87824550D02*
X129748550Y-87824550D01*
%TO.N,/UART_TX*%
X140383000Y-88419000D02*
X129467000Y-88419000D01*
X142856500Y-85945500D02*
X140383000Y-88419000D01*
%TO.N,/UART_RX*%
X129051000Y-86504570D02*
X128251880Y-85705450D01*
X126332550Y-85705450D02*
X125273000Y-86765000D01*
%TO.N,VCC*%
X152538400Y-44937876D02*
X152392762Y-44792238D01*
X152538400Y-46266000D02*
X152538400Y-44937876D01*
%TO.N,Net-(D2-A)*%
X128905000Y-61785000D02*
X127508000Y-63182000D01*
X127508000Y-63182000D02*
X127508000Y-67896500D01*
%TO.N,Net-(D1-A)*%
X127127000Y-61785000D02*
X127127000Y-66245500D01*
X127127000Y-66245500D02*
X125476000Y-67896500D01*
%TO.N,GND*%
X127508000Y-69771500D02*
X128729500Y-69771500D01*
X128729500Y-69771500D02*
X128778000Y-69723000D01*
X125476000Y-69771500D02*
X127508000Y-69771500D01*
%TO.N,+1V2*%
X116128800Y-65582800D02*
X115925600Y-65786000D01*
X115925600Y-65786000D02*
X115925600Y-67005200D01*
%TO.N,/SD_DAT2*%
X113360200Y-51562000D02*
X113080800Y-51282600D01*
X113388500Y-51562000D02*
X113360200Y-51562000D01*
%TO.N,/SD_DAT3*%
X113388500Y-52362000D02*
X113388500Y-52371900D01*
X113388500Y-52371900D02*
X113055400Y-52705000D01*
%TO.N,/SD_CMD*%
X112588500Y-53162000D02*
X112588500Y-53152500D01*
X112588500Y-53152500D02*
X112268000Y-52832000D01*
%TO.N,/SD_CLK*%
X111785200Y-53162000D02*
X111455200Y-52832000D01*
X111788500Y-53162000D02*
X111785200Y-53162000D01*
%TO.N,/A3*%
X113759050Y-49778974D02*
X113759050Y-50391450D01*
%TO.N,/~{LOCK}*%
X114318350Y-48362614D02*
X115788500Y-49832764D01*
%TO.N,/A10*%
X110657222Y-48749650D02*
X110965550Y-49057978D01*
%TO.N,/A4*%
X112641950Y-48363592D02*
X112641950Y-49057006D01*
%TO.N,/A8*%
X81848000Y-52855500D02*
X81848000Y-52118001D01*
%TO.N,/~{BOFF}*%
X110558050Y-51131550D02*
X110558050Y-49394850D01*
%TO.N,/A7*%
X85586201Y-47379800D02*
X109730337Y-47379800D01*
%TO.N,/A11*%
X109912850Y-49359378D02*
X109912850Y-49460076D01*
%TO.N,/A5*%
X112362550Y-48479323D02*
X112362550Y-49172738D01*
%TO.N,/A12*%
X90189201Y-48776800D02*
X108935140Y-48776800D01*
X109633450Y-49475110D02*
X109633450Y-49609754D01*
%TO.N,/A8*%
X110888686Y-48190851D02*
X111524350Y-48826516D01*
%TO.N,/A12*%
X109633450Y-49609754D02*
X109817950Y-49794254D01*
%TO.N,/A4*%
X111351614Y-47073254D02*
X112641950Y-48363592D01*
%TO.N,/~{PLOCK}*%
X114038950Y-48478346D02*
X115358050Y-49797446D01*
%TO.N,/A9*%
X84715861Y-50531750D02*
X84934251Y-50531750D01*
%TO.N,/A11*%
X85848000Y-52855500D02*
X85848000Y-52118001D01*
%TO.N,/A12*%
X109817950Y-49794254D02*
X109817950Y-50391450D01*
%TO.N,/A9*%
X83348000Y-52855500D02*
X83348000Y-51899610D01*
%TO.N,/A10*%
X83848000Y-52855500D02*
X83848000Y-51794742D01*
%TO.N,/~{BLAST}*%
X81542003Y-45424000D02*
X110589472Y-45424000D01*
%TO.N,/~{PCHK}*%
X110936657Y-44585789D02*
X111468326Y-45117458D01*
%TO.N,/A10*%
X83848000Y-51794742D02*
X84831592Y-50811150D01*
%TO.N,/~{BLAST}*%
X110589472Y-45424000D02*
X111121127Y-45955655D01*
%TO.N,/A10*%
X84831592Y-50811150D02*
X85154851Y-50811150D01*
%TO.N,/A8*%
X81848000Y-52118001D02*
X86306801Y-47659200D01*
%TO.N,/A5*%
X84645001Y-46821000D02*
X110010812Y-46821000D01*
%TO.N,/A9*%
X83348000Y-51899610D02*
X84715861Y-50531750D01*
X110020787Y-48470250D02*
X110772954Y-48470250D01*
X111359050Y-50391450D02*
X110988500Y-50762000D01*
%TO.N,/A8*%
X86306801Y-47659200D02*
X109604869Y-47659200D01*
%TO.N,/A3*%
X112921350Y-48247861D02*
X112921350Y-48941274D01*
%TO.N,/A8*%
X110136519Y-48190850D02*
X110888686Y-48190851D01*
X111524350Y-49578681D02*
X111788500Y-49842832D01*
%TO.N,/A7*%
X109730337Y-47379800D02*
X110261987Y-47911450D01*
X110261987Y-47911450D02*
X111004418Y-47911452D01*
%TO.N,/A4*%
X113388500Y-49803556D02*
X113388500Y-49962000D01*
%TO.N,/~{PLOCK}*%
X73848000Y-52855500D02*
X73848000Y-52118001D01*
%TO.N,/A7*%
X112159050Y-50391450D02*
X111788500Y-50762000D01*
%TO.N,/A6*%
X80348000Y-52855500D02*
X80348000Y-52118001D01*
%TO.N,/A3*%
X111467346Y-46793855D02*
X112921350Y-48247861D01*
%TO.N,/A10*%
X87748001Y-48218000D02*
X109244500Y-48218000D01*
%TO.N,/A6*%
X85365601Y-47100400D02*
X109895080Y-47100400D01*
X109895080Y-47100400D02*
X110426731Y-47632051D01*
X110426731Y-47632051D02*
X111120150Y-47632052D01*
%TO.N,/A4*%
X112641950Y-49057006D02*
X113388500Y-49803556D01*
%TO.N,/A6*%
X111120150Y-47632052D02*
X112083150Y-48595054D01*
%TO.N,/A2*%
X113200750Y-48132130D02*
X113200750Y-48825542D01*
%TO.N,/~{BLAST}*%
X111121127Y-45955655D02*
X111814542Y-45955657D01*
%TO.N,/A9*%
X111359050Y-49808513D02*
X111359050Y-50391450D01*
%TO.N,/~{PCHK}*%
X65775219Y-56568000D02*
X65224450Y-56017231D01*
%TO.N,/A6*%
X112083150Y-48595054D02*
X112083150Y-49288470D01*
%TO.N,/A5*%
X110010812Y-46821000D02*
X110542463Y-47352651D01*
%TO.N,/~{BRDY}*%
X75667699Y-44306389D02*
X111052389Y-44306389D01*
%TO.N,/~{LOCK}*%
X114318350Y-47669206D02*
X114318350Y-48362614D01*
%TO.N,/~{BLAST}*%
X111814542Y-45955657D02*
X113759550Y-47900668D01*
%TO.N,/A6*%
X80348000Y-52118001D02*
X85365601Y-47100400D01*
%TO.N,/~{PLOCK}*%
X115358050Y-49797446D02*
X115358050Y-50392450D01*
%TO.N,/~{LOCK}*%
X80600812Y-44865189D02*
X110820925Y-44865189D01*
%TO.N,/A12*%
X86848000Y-52118001D02*
X90189201Y-48776800D01*
%TO.N,/~{PCHK}*%
X112161738Y-45117459D02*
X114597750Y-47553475D01*
%TO.N,/A12*%
X86848000Y-52855500D02*
X86848000Y-52118001D01*
%TO.N,/~{LOCK}*%
X112046006Y-45396859D02*
X114318350Y-47669206D01*
%TO.N,/~{PCHK}*%
X70635500Y-56568000D02*
X65775219Y-56568000D01*
%TO.N,/~{BLAST}*%
X113759550Y-48594078D02*
X114988500Y-49823028D01*
%TO.N,/A5*%
X79348000Y-52118001D02*
X84645001Y-46821000D01*
%TO.N,/~{PCHK}*%
X75783430Y-44585789D02*
X110936657Y-44585789D01*
%TO.N,/~{BRDY}*%
X114877150Y-47437744D02*
X114877150Y-48024376D01*
%TO.N,/A2*%
X114188500Y-49813292D02*
X114188500Y-49962000D01*
%TO.N,/~{BRDY}*%
X64945050Y-55029036D02*
X75667699Y-44306389D01*
%TO.N,/A7*%
X80848000Y-52118001D02*
X85586201Y-47379800D01*
%TO.N,/A3*%
X78348000Y-52118001D02*
X84203801Y-46262200D01*
X113759050Y-50391450D02*
X113388500Y-50762000D01*
%TO.N,/~{LOCK}*%
X115788500Y-49832764D02*
X115788500Y-49962000D01*
%TO.N,/~{BLAST}*%
X113759550Y-47900668D02*
X113759550Y-48594078D01*
%TO.N,/~{BRDY}*%
X111052389Y-44306389D02*
X111584058Y-44838058D01*
%TO.N,/~{PCHK}*%
X114597750Y-48246882D02*
X116158050Y-49807182D01*
%TO.N,/A2*%
X81983201Y-45982800D02*
X110358008Y-45982800D01*
%TO.N,/~{ADS}*%
X114558050Y-50392450D02*
X114188500Y-50762000D01*
%TO.N,/~{PLOCK}*%
X73848000Y-52118001D02*
X80821412Y-45144589D01*
%TO.N,/~{BRDY}*%
X111584058Y-44838058D02*
X112277470Y-44838060D01*
%TO.N,/~{PCHK}*%
X114597750Y-47553475D02*
X114597750Y-48246882D01*
%TO.N,/~{ADS}*%
X113480150Y-48709810D02*
X114558050Y-49787710D01*
%TO.N,/A6*%
X112588500Y-49793820D02*
X112588500Y-49962000D01*
%TO.N,/~{BRDY}*%
X64945050Y-56132962D02*
X64945050Y-55029036D01*
%TO.N,/~{ADS}*%
X81657734Y-45703400D02*
X110473740Y-45703400D01*
%TO.N,/~{PLOCK}*%
X114038950Y-47784937D02*
X114038950Y-48478346D01*
X111930274Y-45676258D02*
X114038950Y-47784937D01*
%TO.N,/~{BRDY}*%
X114877150Y-48024376D02*
X116588500Y-49735726D01*
X70635500Y-57068000D02*
X65880087Y-57068000D01*
%TO.N,/~{LOCK}*%
X110820925Y-44865189D02*
X111352593Y-45396857D01*
%TO.N,/~{PLOCK}*%
X111236860Y-45676256D02*
X111930274Y-45676258D01*
%TO.N,/A2*%
X111583078Y-46514456D02*
X113200750Y-48132130D01*
%TO.N,/~{BRDY}*%
X112277470Y-44838060D02*
X114877150Y-47437744D01*
%TO.N,/~{BLAST}*%
X74848000Y-52855500D02*
X74848000Y-52118001D01*
%TO.N,/A10*%
X109776150Y-48749650D02*
X110657222Y-48749650D01*
%TO.N,/~{BRDY}*%
X65880087Y-57068000D02*
X64945050Y-56132962D01*
%TO.N,/~{PCHK}*%
X111468326Y-45117458D02*
X112161738Y-45117459D01*
X116158050Y-49807182D02*
X116158050Y-50392450D01*
X65224450Y-56017231D02*
X65224450Y-55144768D01*
%TO.N,/~{ADS}*%
X111698810Y-46235056D02*
X113480150Y-48016399D01*
%TO.N,/~{LOCK}*%
X111352593Y-45396857D02*
X112046006Y-45396859D01*
%TO.N,/A3*%
X110773929Y-46793853D02*
X111467346Y-46793855D01*
%TO.N,/A5*%
X110542463Y-47352651D02*
X111235882Y-47352653D01*
%TO.N,/~{LOCK}*%
X73348000Y-52118001D02*
X80600812Y-44865189D01*
%TO.N,/~{ADS}*%
X110473740Y-45703400D02*
X111005395Y-46235055D01*
%TO.N,/A5*%
X79348000Y-52855500D02*
X79348000Y-52118001D01*
%TO.N,/~{ADS}*%
X75348000Y-52855500D02*
X75348000Y-52013133D01*
%TO.N,/A2*%
X75848000Y-52855500D02*
X75848000Y-52118001D01*
%TO.N,/~{ADS}*%
X114558050Y-49787710D02*
X114558050Y-50392450D01*
%TO.N,/A4*%
X78848000Y-52118001D02*
X84424401Y-46541600D01*
%TO.N,/~{BRDY}*%
X116588500Y-49735726D02*
X116588500Y-49962000D01*
%TO.N,/A3*%
X110242276Y-46262200D02*
X110773929Y-46793853D01*
%TO.N,/A11*%
X109912850Y-49460076D02*
X110188500Y-49735726D01*
%TO.N,/~{BLAST}*%
X74848000Y-52118001D02*
X81542003Y-45424000D01*
%TO.N,/A11*%
X89468601Y-48497400D02*
X109050872Y-48497400D01*
%TO.N,/~{ADS}*%
X111005395Y-46235055D02*
X111698810Y-46235056D01*
%TO.N,/A4*%
X110658196Y-47073252D02*
X111351614Y-47073254D01*
%TO.N,/A3*%
X84203801Y-46262200D02*
X110242276Y-46262200D01*
%TO.N,/A4*%
X78848000Y-52855500D02*
X78848000Y-52118001D01*
%TO.N,/A5*%
X112959050Y-50391450D02*
X112588500Y-50762000D01*
%TO.N,/~{BOFF}*%
X110988500Y-51562000D02*
X110558050Y-51131550D01*
%TO.N,/A5*%
X111235882Y-47352653D02*
X112362550Y-48479323D01*
%TO.N,/A8*%
X111788500Y-49842832D02*
X111788500Y-49962000D01*
%TO.N,/A9*%
X111244950Y-48942247D02*
X111244950Y-49694413D01*
%TO.N,/~{PCHK}*%
X116158050Y-50392450D02*
X115788500Y-50762000D01*
%TO.N,/A5*%
X112959050Y-49769238D02*
X112959050Y-50391450D01*
%TO.N,/A11*%
X109050872Y-48497400D02*
X109912850Y-49359378D01*
%TO.N,/~{ADS}*%
X113480150Y-48016399D02*
X113480150Y-48709810D01*
%TO.N,/A12*%
X108935140Y-48776800D02*
X109633450Y-49475110D01*
%TO.N,/A7*%
X111004418Y-47911452D02*
X111803750Y-48710785D01*
%TO.N,/~{LOCK}*%
X73348000Y-52855500D02*
X73348000Y-52118001D01*
%TO.N,/A2*%
X110889662Y-46514454D02*
X111583078Y-46514456D01*
%TO.N,/A10*%
X110965550Y-49939050D02*
X110988500Y-49962000D01*
%TO.N,/~{BOFF}*%
X110558050Y-49394850D02*
X110439200Y-49276000D01*
%TO.N,/A10*%
X85154851Y-50811150D02*
X87748001Y-48218000D01*
%TO.N,/A3*%
X78348000Y-52855500D02*
X78348000Y-52118001D01*
%TO.N,/A10*%
X109244500Y-48218000D02*
X109776150Y-48749650D01*
%TO.N,/A8*%
X109604869Y-47659200D02*
X110136519Y-48190850D01*
%TO.N,/A2*%
X113200750Y-48825542D02*
X114188500Y-49813292D01*
X110358008Y-45982800D02*
X110889662Y-46514454D01*
%TO.N,/A6*%
X112083150Y-49288470D02*
X112588500Y-49793820D01*
%TO.N,/~{PLOCK}*%
X110705193Y-45144589D02*
X111236860Y-45676256D01*
%TO.N,/A9*%
X84934251Y-50531750D02*
X87527401Y-47938600D01*
%TO.N,/~{PLOCK}*%
X115358050Y-50392450D02*
X114988500Y-50762000D01*
%TO.N,/~{ADS}*%
X75348000Y-52013133D02*
X81657734Y-45703400D01*
%TO.N,/A2*%
X75848000Y-52118001D02*
X81983201Y-45982800D01*
%TO.N,/A10*%
X110965550Y-49057978D02*
X110965550Y-49939050D01*
%TO.N,/A7*%
X111803750Y-49453213D02*
X112159050Y-49808513D01*
%TO.N,/A11*%
X85848000Y-52118001D02*
X89468601Y-48497400D01*
%TO.N,/A7*%
X80848000Y-52855500D02*
X80848000Y-52118001D01*
%TO.N,/~{PCHK}*%
X65224450Y-55144768D02*
X75783430Y-44585789D01*
%TO.N,/A7*%
X111803750Y-48710785D02*
X111803750Y-49453213D01*
%TO.N,/A8*%
X111524350Y-48826516D02*
X111524350Y-49578681D01*
%TO.N,/A9*%
X87527401Y-47938600D02*
X109489137Y-47938600D01*
%TO.N,/~{PLOCK}*%
X80821412Y-45144589D02*
X110705193Y-45144589D01*
%TO.N,/~{BLAST}*%
X114988500Y-49823028D02*
X114988500Y-49962000D01*
%TO.N,/A7*%
X112159050Y-49808513D02*
X112159050Y-50391450D01*
%TO.N,/A4*%
X84424401Y-46541600D02*
X110126544Y-46541600D01*
%TO.N,/A9*%
X109489137Y-47938600D02*
X110020787Y-48470250D01*
%TO.N,/A4*%
X110126544Y-46541600D02*
X110658196Y-47073252D01*
%TO.N,/A9*%
X110772954Y-48470250D02*
X111244950Y-48942247D01*
%TO.N,/A11*%
X110188500Y-49735726D02*
X110188500Y-49962000D01*
%TO.N,/A3*%
X112921350Y-48941274D02*
X113759050Y-49778974D01*
%TO.N,/A12*%
X109817950Y-50391450D02*
X110188500Y-50762000D01*
%TO.N,/A5*%
X112362550Y-49172738D02*
X112959050Y-49769238D01*
%TO.N,/A9*%
X111244950Y-49694413D02*
X111359050Y-49808513D01*
%TO.N,/SD_DAT1*%
X111788500Y-51562000D02*
X111785400Y-51562000D01*
X111785400Y-51562000D02*
X111455200Y-51231800D01*
%TO.N,/SD_DAT0*%
X111788500Y-52362000D02*
X111772600Y-52362000D01*
X111772600Y-52362000D02*
X111455200Y-52044600D01*
%TO.N,VCC*%
X119994500Y-39502000D02*
X118943200Y-39502000D01*
X118943200Y-39502000D02*
X118110000Y-40335200D01*
%TO.N,/CLK_50M*%
X118188500Y-54762000D02*
X118161200Y-54762000D01*
X118161200Y-54762000D02*
X117906800Y-55016400D01*
X116332000Y-42621200D02*
X116332000Y-41107670D01*
X116332000Y-41107670D02*
X120728120Y-36711550D01*
X120728120Y-36711550D02*
X123864950Y-36711550D01*
X123864950Y-36711550D02*
X125074500Y-35502000D01*
%TO.N,/A29*%
X100560500Y-58568000D02*
X104595809Y-58568000D01*
%TO.N,/D0*%
X104832980Y-61417200D02*
X105243350Y-61006831D01*
%TO.N,/A30*%
X106807819Y-58652100D02*
X107787561Y-58652100D01*
%TO.N,/A31*%
X107671829Y-58931500D02*
X107947935Y-59207606D01*
X104996830Y-58957241D02*
X105513646Y-58957241D01*
X108942894Y-59207606D02*
X109388500Y-58762000D01*
X106923550Y-58931500D02*
X107671829Y-58931500D01*
%TO.N,/A30*%
X104553489Y-59005450D02*
X104881099Y-58677841D01*
X102142804Y-59068000D02*
X102205354Y-59005450D01*
%TO.N,/D0*%
X105243350Y-60474998D02*
X105685999Y-60032350D01*
%TO.N,/A31*%
X105513646Y-58957241D02*
X106124405Y-59568000D01*
%TO.N,/A29*%
X107102788Y-57962000D02*
X109388500Y-57962000D01*
%TO.N,/A31*%
X102321085Y-59284850D02*
X104669221Y-59284850D01*
%TO.N,/A29*%
X105914669Y-58568000D02*
X106496788Y-58568000D01*
%TO.N,/A30*%
X106391918Y-59068000D02*
X106807819Y-58652100D01*
%TO.N,/A29*%
X104595809Y-58568000D02*
X104765368Y-58398441D01*
X105745110Y-58398441D02*
X105914669Y-58568000D01*
X104765368Y-58398441D02*
X105745110Y-58398441D01*
%TO.N,/D1*%
X105801730Y-60311750D02*
X105522750Y-60590730D01*
%TO.N,/A30*%
X104881099Y-58677841D02*
X105629378Y-58677841D01*
%TO.N,/A29*%
X106496788Y-58568000D02*
X107102788Y-57962000D01*
%TO.N,/A30*%
X102205354Y-59005450D02*
X104553489Y-59005450D01*
X105629378Y-58677841D02*
X106019537Y-59068000D01*
%TO.N,/D1*%
X101794782Y-61772800D02*
X101589982Y-61568000D01*
%TO.N,/A30*%
X108698257Y-58928206D02*
X109235013Y-58391450D01*
%TO.N,/D1*%
X106246520Y-60362000D02*
X106196270Y-60311750D01*
X109388500Y-60362000D02*
X106246520Y-60362000D01*
%TO.N,/A31*%
X106287049Y-59568000D02*
X106923550Y-58931500D01*
%TO.N,/D1*%
X101589982Y-61568000D02*
X100560500Y-61568000D01*
%TO.N,/A31*%
X104669221Y-59284850D02*
X104996830Y-58957241D01*
%TO.N,/D1*%
X104872512Y-61772800D02*
X101794782Y-61772800D01*
%TO.N,/A30*%
X107787561Y-58652100D02*
X108063667Y-58928206D01*
%TO.N,/A31*%
X102037934Y-59568000D02*
X102321085Y-59284850D01*
%TO.N,/A30*%
X108063667Y-58928206D02*
X108698257Y-58928206D01*
%TO.N,/A31*%
X107947935Y-59207606D02*
X108942894Y-59207606D01*
%TO.N,/A30*%
X109817950Y-58391450D02*
X110188500Y-58762000D01*
%TO.N,/A31*%
X100560500Y-59568000D02*
X102037934Y-59568000D01*
%TO.N,/D1*%
X105522750Y-61122562D02*
X104872512Y-61772800D01*
X105522750Y-60590730D02*
X105522750Y-61122562D01*
%TO.N,GND*%
X104749600Y-60248800D02*
X105308400Y-59690000D01*
%TO.N,/D0*%
X102044050Y-61417200D02*
X104832980Y-61417200D01*
X107039281Y-59210900D02*
X107556097Y-59210900D01*
X101694850Y-61068000D02*
X102044050Y-61417200D01*
X100560500Y-61068000D02*
X101694850Y-61068000D01*
%TO.N,/A30*%
X109235013Y-58391450D02*
X109817950Y-58391450D01*
%TO.N,/A31*%
X106124405Y-59568000D02*
X106287049Y-59568000D01*
%TO.N,/A30*%
X106019537Y-59068000D02*
X106391918Y-59068000D01*
X100560500Y-59068000D02*
X102142804Y-59068000D01*
%TO.N,/D1*%
X106196270Y-60311750D02*
X105801730Y-60311750D01*
%TO.N,/D0*%
X106217831Y-60032350D02*
X107039281Y-59210900D01*
X105243350Y-61006831D02*
X105243350Y-60474998D01*
X107556097Y-59210900D02*
X107907197Y-59562000D01*
X107907197Y-59562000D02*
X109388500Y-59562000D01*
X105685999Y-60032350D02*
X106217831Y-60032350D01*
%TO.N,GND*%
X104452000Y-60248800D02*
X104749600Y-60248800D01*
%TO.N,/DP0*%
X100560500Y-60568000D02*
X102492800Y-60568000D01*
X102492800Y-60568000D02*
X102812000Y-60248800D01*
%TO.N,/D2*%
X105392520Y-62068000D02*
X100560500Y-62068000D01*
X109388500Y-61162000D02*
X106879372Y-61162000D01*
X106879372Y-61162000D02*
X106784772Y-61067400D01*
X106784772Y-61067400D02*
X106393120Y-61067400D01*
X106393120Y-61067400D02*
X105392520Y-62068000D01*
%TO.N,GND*%
X106345428Y-68863772D02*
X106396228Y-68863772D01*
X106396228Y-68863772D02*
X107137200Y-68122800D01*
%TO.N,/DP1*%
X100560500Y-70568000D02*
X104641200Y-70568000D01*
X104641200Y-70568000D02*
X105185772Y-70023428D01*
%TO.N,GND*%
X83000000Y-87630000D02*
X83000000Y-88655200D01*
X83000000Y-88655200D02*
X82960600Y-88694600D01*
%TO.N,/DP3*%
X91348000Y-82780500D02*
X91348000Y-83880400D01*
X91348000Y-83880400D02*
X91948000Y-84480400D01*
X84840200Y-87830200D02*
X84640000Y-87630000D01*
X84840200Y-88796200D02*
X84840200Y-87830200D01*
%TO.N,/DP2*%
X100560500Y-78568000D02*
X103042000Y-78568000D01*
X103042000Y-78568000D02*
X104880972Y-76729028D01*
X104880972Y-76729028D02*
X104880972Y-76119428D01*
%TO.N,GND*%
X106040628Y-74959772D02*
X106040628Y-74908972D01*
X106040628Y-74908972D02*
X106730800Y-74218800D01*
%TO.N,VCC*%
X119994500Y-35502000D02*
X117948000Y-35502000D01*
X117948000Y-35502000D02*
X117856000Y-35410000D01*
%TO.N,GND*%
X125074500Y-39502000D02*
X126735000Y-39502000D01*
X126735000Y-39502000D02*
X126742000Y-39495000D01*
%TO.N,/D23*%
X123805050Y-61441111D02*
X123805050Y-64418313D01*
%TO.N,/D30*%
X97049433Y-87861800D02*
X96520062Y-87861800D01*
%TO.N,/D27*%
X121676726Y-57681600D02*
X121678140Y-57681600D01*
%TO.N,/D31*%
X121899867Y-56322800D02*
X121898454Y-56322800D01*
%TO.N,/D29*%
X97165167Y-87582402D02*
X97165165Y-87582400D01*
%TO.N,/D27*%
X121586576Y-57591450D02*
X121676726Y-57681600D01*
%TO.N,/D22*%
X101444372Y-85623600D02*
X116836729Y-70231245D01*
%TO.N,/D30*%
X122025749Y-56842400D02*
X125761850Y-60578503D01*
%TO.N,/D28*%
X88856100Y-86542000D02*
X95991936Y-86542000D01*
%TO.N,/D17*%
X119957850Y-62428981D02*
X119957850Y-65894727D01*
%TO.N,/D19*%
X101097176Y-84785400D02*
X98323723Y-84785400D01*
%TO.N,/D31*%
X117882559Y-72745845D02*
X118638573Y-72745845D01*
%TO.N,/D25*%
X91030801Y-85700800D02*
X96337544Y-85700800D01*
%TO.N,/D24*%
X101676248Y-86183400D02*
X98208410Y-86183400D01*
%TO.N,/D27*%
X118175647Y-71628245D02*
X117418217Y-71628245D01*
%TO.N,/D31*%
X99019356Y-88141205D02*
X99019361Y-88141200D01*
%TO.N,/D19*%
X120588500Y-66054339D02*
X117249794Y-69393045D01*
%TO.N,/D31*%
X118638573Y-72745845D02*
X126043250Y-65341161D01*
%TO.N,/D24*%
X91144533Y-85419400D02*
X89848000Y-84122867D01*
%TO.N,/D30*%
X121542522Y-56362000D02*
X121782722Y-56602200D01*
%TO.N,/D21*%
X123245250Y-64187851D02*
X123245250Y-61694713D01*
%TO.N,/D30*%
X98903629Y-87861800D02*
X98903624Y-87861804D01*
%TO.N,/D25*%
X97628919Y-86462800D02*
X97628921Y-86462802D01*
X96337544Y-85700800D02*
X97099545Y-86462800D01*
%TO.N,/D28*%
X85848000Y-83533900D02*
X88856100Y-86542000D01*
%TO.N,/D23*%
X93492101Y-85140000D02*
X93470001Y-85140000D01*
%TO.N,/D24*%
X121388500Y-58762000D02*
X121540782Y-58762000D01*
%TO.N,/D27*%
X124924650Y-64879237D02*
X118175647Y-71628245D01*
%TO.N,/D16*%
X103410004Y-79068000D02*
X100560500Y-79068000D01*
%TO.N,/D24*%
X93352856Y-85419400D02*
X91144533Y-85419400D01*
%TO.N,/D22*%
X123524650Y-64303582D02*
X123524650Y-61557256D01*
%TO.N,/D14*%
X114194463Y-66192150D02*
X113252724Y-66192150D01*
%TO.N,/D20*%
X96916030Y-84300800D02*
X97679030Y-85063800D01*
%TO.N,/D30*%
X97049435Y-87861802D02*
X97049433Y-87861800D01*
X87247992Y-87102800D02*
X83848000Y-83702808D01*
%TO.N,/D24*%
X89848000Y-84122867D02*
X89848000Y-82780500D01*
%TO.N,/D14*%
X117380125Y-67682190D02*
X116786870Y-68275445D01*
%TO.N,/D19*%
X97794762Y-84784400D02*
X96778762Y-83768400D01*
%TO.N,/D25*%
X121657342Y-58480600D02*
X121654514Y-58480600D01*
%TO.N,/D23*%
X123805050Y-64418313D02*
X117712721Y-70510645D01*
%TO.N,/D20*%
X97679030Y-85063800D02*
X98206992Y-85063800D01*
%TO.N,/D25*%
X124364850Y-64648775D02*
X124364850Y-61188108D01*
%TO.N,/D23*%
X97331422Y-85903000D02*
X96569422Y-85141000D01*
%TO.N,/D25*%
X101791980Y-86462800D02*
X117185339Y-71069445D01*
%TO.N,/D28*%
X125204050Y-64994968D02*
X125204051Y-60840499D01*
%TO.N,/D31*%
X126041250Y-60490888D02*
X126041250Y-60462771D01*
X121567104Y-55991450D02*
X120959050Y-55991450D01*
%TO.N,/D29*%
X120959050Y-56791450D02*
X121576840Y-56791450D01*
%TO.N,/D25*%
X98324142Y-86462800D02*
X101791980Y-86462800D01*
%TO.N,/D31*%
X83348000Y-82780500D02*
X83348000Y-83599354D01*
X126043253Y-60724355D02*
X126043253Y-60492891D01*
%TO.N,/D20*%
X122965850Y-61939350D02*
X122188500Y-61162000D01*
%TO.N,/D14*%
X116968900Y-62215511D02*
X116330400Y-62854011D01*
%TO.N,/D28*%
X95991936Y-86542000D02*
X96751938Y-87302000D01*
%TO.N,/D20*%
X98206992Y-85063800D02*
X98207992Y-85064800D01*
%TO.N,/D24*%
X98208410Y-86183400D02*
X98208407Y-86183402D01*
%TO.N,/D30*%
X83848000Y-83702808D02*
X83848000Y-82780500D01*
%TO.N,/D24*%
X93376955Y-85421400D02*
X93375955Y-85420400D01*
%TO.N,/D23*%
X98092678Y-85904000D02*
X98092676Y-85904002D01*
%TO.N,/D21*%
X117481258Y-69951845D02*
X123245250Y-64187851D01*
%TO.N,/D19*%
X96598401Y-83768400D02*
X96348000Y-83517999D01*
%TO.N,/D22*%
X93609247Y-84860600D02*
X96685568Y-84860600D01*
%TO.N,/D29*%
X97165165Y-87582400D02*
X96635793Y-87582400D01*
%TO.N,/D23*%
X96569422Y-85141000D02*
X93493101Y-85141000D01*
%TO.N,/D27*%
X97397042Y-87022600D02*
X96867669Y-87022600D01*
%TO.N,/D14*%
X116968900Y-60781600D02*
X116968900Y-62215511D01*
%TO.N,/D26*%
X98439871Y-86742203D02*
X98439874Y-86742200D01*
%TO.N,/D18*%
X120217950Y-61591450D02*
X120217950Y-62292535D01*
%TO.N,/D24*%
X124085450Y-64533044D02*
X117828452Y-70790045D01*
%TO.N,/D14*%
X116144250Y-64233624D02*
X116144250Y-64766468D01*
%TO.N,/D27*%
X117418217Y-71628245D02*
X102023857Y-87022600D01*
%TO.N,/D16*%
X118902750Y-66554696D02*
X116902601Y-68554845D01*
%TO.N,/D24*%
X124085450Y-61306668D02*
X124085450Y-64533044D01*
X121540782Y-58762000D02*
X124085450Y-61306668D01*
X97744652Y-86183402D02*
X97744651Y-86183400D01*
%TO.N,/D30*%
X95761060Y-87102800D02*
X87247992Y-87102800D01*
%TO.N,/D17*%
X119788500Y-62259631D02*
X119957850Y-62428981D01*
%TO.N,/D18*%
X120217950Y-62292535D02*
X120238250Y-62312836D01*
%TO.N,/D14*%
X117388500Y-60362000D02*
X116968900Y-60781600D01*
X116330400Y-62854011D02*
X116330400Y-64047474D01*
%TO.N,/D28*%
X118291379Y-71907645D02*
X125204050Y-64994968D01*
%TO.N,/D29*%
X125482450Y-60722352D02*
X125484451Y-60724354D01*
%TO.N,/D28*%
X125202050Y-60838498D02*
X125202050Y-60810379D01*
%TO.N,/D23*%
X98092676Y-85904002D02*
X97860384Y-85904002D01*
%TO.N,/D26*%
X124642250Y-61042256D02*
X121561994Y-57962000D01*
%TO.N,/D29*%
X125482450Y-60694234D02*
X125482450Y-60722352D01*
%TO.N,/D20*%
X101212908Y-85064800D02*
X116605265Y-69672445D01*
%TO.N,/D24*%
X93375955Y-85420400D02*
X93353855Y-85420400D01*
%TO.N,/D19*%
X117249794Y-69393045D02*
X116489533Y-69393045D01*
%TO.N,/D18*%
X96848000Y-83442506D02*
X96848000Y-82780500D01*
%TO.N,/D20*%
X122188500Y-61162000D02*
X121388500Y-61162000D01*
%TO.N,/D26*%
X101907712Y-86742200D02*
X117301071Y-71348845D01*
X118059916Y-71348845D02*
X124644250Y-64764506D01*
%TO.N,/D21*%
X93911201Y-84581200D02*
X96801299Y-84581200D01*
%TO.N,/D16*%
X118902750Y-62047750D02*
X118902750Y-66554696D01*
%TO.N,/D27*%
X124922650Y-60926111D02*
X124922650Y-60954230D01*
%TO.N,/D20*%
X95848000Y-83517999D02*
X96630801Y-84300800D01*
%TO.N,/D19*%
X96778762Y-83768400D02*
X96598401Y-83768400D01*
%TO.N,/D31*%
X122141480Y-56563000D02*
X122140067Y-56563000D01*
%TO.N,/D19*%
X98322724Y-84784400D02*
X97794762Y-84784400D01*
%TO.N,/D29*%
X88652401Y-86822400D02*
X85348000Y-83517999D01*
%TO.N,/D14*%
X116876658Y-66661907D02*
X117380125Y-67165374D01*
%TO.N,/D29*%
X120588500Y-57162000D02*
X120959050Y-56791450D01*
%TO.N,/D28*%
X97281311Y-87302000D02*
X97281313Y-87302002D01*
%TO.N,/D21*%
X116720997Y-69951845D02*
X117481258Y-69951845D01*
%TO.N,/D28*%
X125204051Y-60840499D02*
X125202050Y-60838498D01*
%TO.N,/D24*%
X97744651Y-86183400D02*
X97215276Y-86183400D01*
%TO.N,/D17*%
X117018332Y-68834245D02*
X116256655Y-68834245D01*
%TO.N,/D30*%
X121782722Y-56602200D02*
X121784136Y-56602200D01*
%TO.N,/D20*%
X98207992Y-85064800D02*
X101212908Y-85064800D01*
%TO.N,/D18*%
X116373801Y-69113645D02*
X100981445Y-84506000D01*
%TO.N,/D21*%
X96801299Y-84581200D02*
X97563299Y-85343200D01*
%TO.N,/D29*%
X121666990Y-56881600D02*
X121668404Y-56881600D01*
%TO.N,/D14*%
X111206737Y-67867800D02*
X102985850Y-76088687D01*
%TO.N,/D17*%
X100865300Y-84225600D02*
X98555601Y-84225600D01*
%TO.N,/D14*%
X116876658Y-65498876D02*
X116876658Y-66661907D01*
%TO.N,/D26*%
X124644250Y-61072376D02*
X124642250Y-61070377D01*
%TO.N,/D25*%
X97628921Y-86462802D02*
X98324139Y-86462803D01*
%TO.N,/D14*%
X116144250Y-64766468D02*
X116876658Y-65498876D01*
%TO.N,/D28*%
X96751938Y-87302000D02*
X97281311Y-87302000D01*
%TO.N,/D20*%
X116605265Y-69672445D02*
X117365526Y-69672445D01*
%TO.N,/D16*%
X116154322Y-68554845D02*
X115926509Y-68327032D01*
%TO.N,/D26*%
X124642250Y-61070377D02*
X124642250Y-61042256D01*
%TO.N,/D17*%
X116256655Y-68834245D02*
X100865300Y-84225600D01*
%TO.N,/D14*%
X113252724Y-66192150D02*
X111577074Y-67867800D01*
%TO.N,/D31*%
X126043253Y-60492891D02*
X126041250Y-60490888D01*
%TO.N,/D30*%
X96520062Y-87861800D02*
X95761060Y-87102800D01*
X122024336Y-56842400D02*
X122025749Y-56842400D01*
%TO.N,/D19*%
X116489533Y-69393045D02*
X101097176Y-84785400D01*
%TO.N,/D18*%
X98438456Y-84505000D02*
X97910494Y-84505000D01*
%TO.N,/D14*%
X100689350Y-76696850D02*
X100560500Y-76568000D01*
%TO.N,/D22*%
X117596990Y-70231245D02*
X123524650Y-64303582D01*
%TO.N,/D29*%
X121668404Y-56881600D02*
X121908604Y-57121800D01*
%TO.N,/D14*%
X102985850Y-76331408D02*
X102620408Y-76696850D01*
X111577074Y-67867800D02*
X111206737Y-67867800D01*
%TO.N,/D21*%
X123245250Y-61694713D02*
X122283087Y-60732550D01*
%TO.N,/D30*%
X117766827Y-72466445D02*
X102371465Y-87861800D01*
%TO.N,/D31*%
X121898454Y-56322800D02*
X121567104Y-55991450D01*
%TO.N,/D27*%
X120588500Y-57962000D02*
X120959050Y-57591450D01*
%TO.N,/D26*%
X117301071Y-71348845D02*
X118059916Y-71348845D01*
%TO.N,/D27*%
X87848000Y-83517999D02*
X87848000Y-82780500D01*
%TO.N,/D22*%
X116836729Y-70231245D02*
X117596990Y-70231245D01*
%TO.N,/D28*%
X121792458Y-57402200D02*
X121552258Y-57162000D01*
X125202050Y-60810379D02*
X121793871Y-57402200D01*
%TO.N,/D21*%
X98092261Y-85344200D02*
X101328640Y-85344200D01*
%TO.N,/D24*%
X97215276Y-86183400D02*
X96453276Y-85421400D01*
%TO.N,/D22*%
X97975528Y-85622600D02*
X97976530Y-85623600D01*
%TO.N,/D27*%
X102023857Y-87022600D02*
X98556020Y-87022600D01*
%TO.N,/D21*%
X92848000Y-83517999D02*
X93911201Y-84581200D01*
%TO.N,/D25*%
X124364850Y-61188108D02*
X121657342Y-58480600D01*
X117185339Y-71069445D02*
X117944184Y-71069445D01*
%TO.N,/D26*%
X96983814Y-86742200D02*
X97513188Y-86742200D01*
%TO.N,/D31*%
X126041250Y-60462771D02*
X122141480Y-56563000D01*
X95646329Y-87383200D02*
X96404331Y-88141200D01*
%TO.N,/D20*%
X96630801Y-84300800D02*
X96916030Y-84300800D01*
%TO.N,/D16*%
X115926509Y-68327032D02*
X114150972Y-68327032D01*
%TO.N,/D25*%
X121017950Y-58332550D02*
X120588500Y-58762000D01*
%TO.N,/D26*%
X90811201Y-85981200D02*
X96222812Y-85981200D01*
%TO.N,/D22*%
X92348000Y-82780500D02*
X92348000Y-83599353D01*
%TO.N,/D30*%
X121784136Y-56602200D02*
X122024336Y-56842400D01*
%TO.N,/D26*%
X97513190Y-86742202D02*
X98439871Y-86742203D01*
%TO.N,/D18*%
X100981445Y-84506000D02*
X98439455Y-84506000D01*
%TO.N,/D22*%
X97976530Y-85623600D02*
X101444372Y-85623600D01*
X92348000Y-83599353D02*
X93609247Y-84860600D01*
%TO.N,/D19*%
X120588500Y-61962000D02*
X120588500Y-66054339D01*
%TO.N,/D17*%
X119788500Y-61962000D02*
X119788500Y-62259631D01*
%TO.N,/D18*%
X97910494Y-84505000D02*
X96848000Y-83442506D01*
%TO.N,/D23*%
X121925940Y-59562000D02*
X123805050Y-61441111D01*
%TO.N,/D25*%
X88848000Y-83517999D02*
X91030801Y-85700800D01*
%TO.N,/D18*%
X120238250Y-66009458D02*
X117134063Y-69113645D01*
%TO.N,/D23*%
X97859382Y-85903000D02*
X97331422Y-85903000D01*
%TO.N,/D25*%
X117944184Y-71069445D02*
X124364850Y-64648775D01*
%TO.N,/D30*%
X118522841Y-72466445D02*
X117766827Y-72466445D01*
%TO.N,/D19*%
X98323723Y-84785400D02*
X98322724Y-84784400D01*
%TO.N,/D31*%
X126043251Y-60724357D02*
X126043253Y-60724355D01*
%TO.N,/D27*%
X97397044Y-87022602D02*
X97397042Y-87022600D01*
%TO.N,/D29*%
X121910017Y-57121800D02*
X125482450Y-60694234D01*
%TO.N,/D28*%
X117533949Y-71907645D02*
X118291379Y-71907645D01*
%TO.N,/D22*%
X97447568Y-85622600D02*
X97975528Y-85622600D01*
%TO.N,/D26*%
X98439874Y-86742200D02*
X101907712Y-86742200D01*
%TO.N,/D23*%
X121388500Y-59562000D02*
X121925940Y-59562000D01*
%TO.N,/D25*%
X88848000Y-82780500D02*
X88848000Y-83517999D01*
%TO.N,/D19*%
X96348000Y-83517999D02*
X96348000Y-82780500D01*
%TO.N,/D31*%
X120959050Y-55991450D02*
X120588500Y-56362000D01*
%TO.N,/D30*%
X125761850Y-60578503D02*
X125761850Y-60606620D01*
%TO.N,/D28*%
X98671748Y-87302004D02*
X98671752Y-87302000D01*
%TO.N,/D21*%
X101328640Y-85344200D02*
X116720997Y-69951845D01*
%TO.N,/D14*%
X102620408Y-76696850D02*
X100689350Y-76696850D01*
%TO.N,/D20*%
X95848000Y-82780500D02*
X95848000Y-83517999D01*
%TO.N,/D29*%
X102255734Y-87582400D02*
X98787897Y-87582400D01*
%TO.N,/D30*%
X125763850Y-65225431D02*
X118522841Y-72466445D01*
%TO.N,/D27*%
X124924650Y-60956231D02*
X124924650Y-64879237D01*
%TO.N,/D23*%
X91848000Y-83517999D02*
X91848000Y-82780500D01*
%TO.N,/D16*%
X118988500Y-61962000D02*
X118902750Y-62047750D01*
%TO.N,/D26*%
X88348000Y-83517999D02*
X90811201Y-85981200D01*
%TO.N,/D23*%
X97860384Y-85904002D02*
X97859382Y-85903000D01*
%TO.N,/D21*%
X92848000Y-82780500D02*
X92848000Y-83517999D01*
%TO.N,/D14*%
X116786870Y-68275445D02*
X116277758Y-68275445D01*
%TO.N,/D20*%
X122965850Y-64072120D02*
X122965850Y-61939350D01*
%TO.N,/D27*%
X96867669Y-87022600D02*
X96106667Y-86261600D01*
%TO.N,/D29*%
X95875791Y-86822400D02*
X88652401Y-86822400D01*
%TO.N,/D31*%
X83348000Y-83599354D02*
X87131846Y-87383200D01*
%TO.N,/D27*%
X98556016Y-87022603D02*
X97397044Y-87022602D01*
%TO.N,/D14*%
X116277758Y-68275445D02*
X114194463Y-66192150D01*
%TO.N,/D23*%
X116953875Y-70510645D02*
X101560517Y-85904000D01*
%TO.N,/D29*%
X96635793Y-87582400D02*
X95875791Y-86822400D01*
X125484451Y-60724354D02*
X125484450Y-65109699D01*
%TO.N,/D22*%
X123524650Y-61557256D02*
X122329394Y-60362000D01*
%TO.N,/D30*%
X125761850Y-60606620D02*
X125763851Y-60608623D01*
%TO.N,/D27*%
X121678140Y-57681600D02*
X124922650Y-60926111D01*
%TO.N,/D18*%
X98439455Y-84506000D02*
X98438456Y-84505000D01*
%TO.N,/D26*%
X121561994Y-57962000D02*
X121388500Y-57962000D01*
X124644250Y-64764506D02*
X124644250Y-61072376D01*
%TO.N,/D16*%
X114150972Y-68327032D02*
X103410004Y-79068000D01*
%TO.N,/D24*%
X98208407Y-86183402D02*
X97744652Y-86183402D01*
%TO.N,/D27*%
X98556020Y-87022600D02*
X98556016Y-87022603D01*
%TO.N,/D24*%
X96453276Y-85421400D02*
X93376955Y-85421400D01*
%TO.N,/D30*%
X125763851Y-60608623D02*
X125763850Y-65225431D01*
%TO.N,/D24*%
X117828452Y-70790045D02*
X117069607Y-70790045D01*
%TO.N,/D30*%
X121388500Y-56362000D02*
X121542522Y-56362000D01*
%TO.N,/D25*%
X121506464Y-58332550D02*
X121017950Y-58332550D01*
%TO.N,/D29*%
X98787893Y-87582404D02*
X97165167Y-87582402D01*
%TO.N,/D26*%
X88348000Y-82780500D02*
X88348000Y-83517999D01*
%TO.N,/D17*%
X119957850Y-65894727D02*
X117018332Y-68834245D01*
%TO.N,/D31*%
X99019361Y-88141200D02*
X102487197Y-88141200D01*
%TO.N,/D21*%
X122283087Y-60732550D02*
X120959050Y-60732550D01*
%TO.N,/D24*%
X117069607Y-70790045D02*
X101676248Y-86183400D01*
%TO.N,/D14*%
X116330400Y-64047474D02*
X116144250Y-64233624D01*
%TO.N,/D20*%
X117365526Y-69672445D02*
X122965850Y-64072120D01*
%TO.N,/D31*%
X122140067Y-56563000D02*
X121899867Y-56322800D01*
%TO.N,/D27*%
X120959050Y-57591450D02*
X121586576Y-57591450D01*
%TO.N,/D21*%
X97563299Y-85343200D02*
X98091260Y-85343200D01*
%TO.N,/D30*%
X98903624Y-87861804D02*
X97049435Y-87861802D01*
%TO.N,/D17*%
X97848000Y-83517999D02*
X97848000Y-82780500D01*
%TO.N,/D31*%
X102487197Y-88141200D02*
X117882559Y-72745845D01*
X96933704Y-88141202D02*
X99019356Y-88141205D01*
%TO.N,/D16*%
X116902601Y-68554845D02*
X116154322Y-68554845D01*
%TO.N,/D21*%
X98091260Y-85343200D02*
X98092261Y-85344200D01*
%TO.N,/D29*%
X117651095Y-72187045D02*
X102255734Y-87582400D01*
%TO.N,/D30*%
X102371465Y-87861800D02*
X98903629Y-87861800D01*
%TO.N,/D22*%
X122329394Y-60362000D02*
X121388500Y-60362000D01*
%TO.N,/D24*%
X93353855Y-85420400D02*
X93352856Y-85419400D01*
%TO.N,/D21*%
X120959050Y-60732550D02*
X120588500Y-60362000D01*
%TO.N,/D14*%
X117380125Y-67165374D02*
X117380125Y-67682190D01*
%TO.N,/D26*%
X96222812Y-85981200D02*
X96983814Y-86742200D01*
%TO.N,/D17*%
X98555601Y-84225600D02*
X97848000Y-83517999D01*
%TO.N,/D22*%
X96685568Y-84860600D02*
X97447568Y-85622600D01*
%TO.N,/D25*%
X98324139Y-86462803D02*
X98324142Y-86462800D01*
%TO.N,/D23*%
X101560517Y-85904000D02*
X98092678Y-85904000D01*
X93493101Y-85141000D02*
X93492101Y-85140000D01*
X93470001Y-85140000D02*
X91848000Y-83517999D01*
%TO.N,/D28*%
X85848000Y-82780500D02*
X85848000Y-83533900D01*
%TO.N,/D31*%
X96404331Y-88141200D02*
X96933702Y-88141200D01*
%TO.N,/D28*%
X102139589Y-87302000D02*
X117533949Y-71907645D01*
%TO.N,/D25*%
X97099545Y-86462800D02*
X97628919Y-86462800D01*
%TO.N,/D29*%
X118407110Y-72187045D02*
X117651095Y-72187045D01*
%TO.N,/D18*%
X119788500Y-61162000D02*
X120217950Y-61591450D01*
%TO.N,/D28*%
X98671752Y-87302000D02*
X102139589Y-87302000D01*
%TO.N,/D27*%
X96106667Y-86261600D02*
X90591601Y-86261600D01*
%TO.N,/D14*%
X102985850Y-76088687D02*
X102985850Y-76331408D01*
%TO.N,/D29*%
X98787897Y-87582400D02*
X98787893Y-87582404D01*
%TO.N,/D27*%
X90591601Y-86261600D02*
X87848000Y-83517999D01*
%TO.N,/D23*%
X117712721Y-70510645D02*
X116953875Y-70510645D01*
%TO.N,/D31*%
X87131846Y-87383200D02*
X95646329Y-87383200D01*
%TO.N,/D29*%
X125484450Y-65109699D02*
X118407110Y-72187045D01*
%TO.N,/D18*%
X120238250Y-62312836D02*
X120238250Y-66009458D01*
%TO.N,/D26*%
X97513188Y-86742200D02*
X97513190Y-86742202D01*
%TO.N,/D28*%
X97281313Y-87302002D02*
X98671748Y-87302004D01*
%TO.N,/D29*%
X121908604Y-57121800D02*
X121910017Y-57121800D01*
%TO.N,/D31*%
X96933702Y-88141200D02*
X96933704Y-88141202D01*
X126043250Y-65341161D02*
X126043251Y-60724357D01*
%TO.N,/D27*%
X124922650Y-60954230D02*
X124924650Y-60956231D01*
%TO.N,/D28*%
X121793871Y-57402200D02*
X121792458Y-57402200D01*
X121552258Y-57162000D02*
X121388500Y-57162000D01*
%TO.N,/D18*%
X117134063Y-69113645D02*
X116373801Y-69113645D01*
%TO.N,/D29*%
X85348000Y-83517999D02*
X85348000Y-82780500D01*
%TO.N,/D25*%
X121654514Y-58480600D02*
X121506464Y-58332550D01*
%TO.N,/D29*%
X121576840Y-56791450D02*
X121666990Y-56881600D01*
%TO.N,/INIT*%
X116887000Y-74728000D02*
X115971550Y-75643450D01*
X115971550Y-75643450D02*
X115971550Y-85906450D01*
X115971550Y-85906450D02*
X115113000Y-86765000D01*
%TO.N,/PROGRAM*%
X116392000Y-76143000D02*
X116392000Y-82964000D01*
X117576000Y-74959000D02*
X116392000Y-76143000D01*
X116392000Y-82964000D02*
X120193000Y-86765000D01*
%TO.N,/TCK*%
X115864850Y-64117893D02*
X115864850Y-64996150D01*
X115864850Y-64996150D02*
X114975000Y-65886000D01*
%TO.N,/PROGRAM*%
X115759600Y-63825182D02*
X115391000Y-64193782D01*
X116158050Y-62233271D02*
X115759600Y-62631721D01*
X115391000Y-64193782D02*
X115391000Y-64221000D01*
X115788500Y-61162000D02*
X116158050Y-61531550D01*
%TO.N,/D11*%
X113525750Y-64688014D02*
X113525750Y-64467429D01*
%TO.N,/D12*%
X114742650Y-63136755D02*
X114742650Y-63674978D01*
%TO.N,/TDI*%
X117193320Y-64317194D02*
X117193320Y-64638089D01*
%TO.N,/D11*%
X114921400Y-62368366D02*
X114921400Y-62029100D01*
X103547526Y-74068000D02*
X110585928Y-67029600D01*
%TO.N,/INIT*%
X115480200Y-62515990D02*
X115480200Y-63203800D01*
%TO.N,/TDI*%
X117758050Y-61531550D02*
X117758050Y-62216624D01*
%TO.N,/D12*%
X114988500Y-61162000D02*
X115359050Y-61532550D01*
%TO.N,/PROGRAM*%
X116158050Y-61531550D02*
X116158050Y-62233271D01*
%TO.N,/D12*%
X103444071Y-74568000D02*
X100560500Y-74568000D01*
%TO.N,/D11*%
X113525750Y-64467429D02*
X114462250Y-63530929D01*
%TO.N,/D12*%
X115200800Y-62678605D02*
X114742650Y-63136755D01*
%TO.N,/TDI*%
X117051950Y-64175824D02*
X117193320Y-64317194D01*
%TO.N,/INIT*%
X115788500Y-61962000D02*
X115788500Y-62207690D01*
%TO.N,/D11*%
X110585928Y-67029600D02*
X111184166Y-67029600D01*
%TO.N,/TDI*%
X117388500Y-61162000D02*
X117758050Y-61531550D01*
%TO.N,/D11*%
X114921400Y-62029100D02*
X114988500Y-61962000D01*
%TO.N,/D12*%
X111299898Y-67309000D02*
X110703074Y-67309000D01*
%TO.N,/TMS*%
X116637800Y-64101462D02*
X116637800Y-64410200D01*
%TO.N,/D12*%
X114742650Y-63674978D02*
X113805150Y-64612478D01*
%TO.N,/TDI*%
X117758050Y-62216624D02*
X117051950Y-62922724D01*
%TO.N,/INIT*%
X115788500Y-62207690D02*
X115480200Y-62515990D01*
%TO.N,/D12*%
X115359050Y-62242009D02*
X115200800Y-62400259D01*
%TO.N,/D11*%
X114462250Y-63530929D02*
X114462250Y-62827516D01*
%TO.N,/D12*%
X113805150Y-64612478D02*
X113805150Y-64803746D01*
%TO.N,/TMS*%
X116772550Y-63966712D02*
X116637800Y-64101462D01*
%TO.N,/D12*%
X115200800Y-62400259D02*
X115200800Y-62678605D01*
%TO.N,/INIT*%
X115480200Y-63203800D02*
X115231000Y-63453000D01*
%TO.N,/D12*%
X113805150Y-64803746D02*
X111299898Y-67309000D01*
X115359050Y-61532550D02*
X115359050Y-62242009D01*
%TO.N,/D11*%
X111184166Y-67029600D02*
X113525750Y-64688014D01*
%TO.N,/TMS*%
X116772550Y-62806993D02*
X116772550Y-63966712D01*
X116637800Y-64410200D02*
X116627000Y-64421000D01*
X117388500Y-61962000D02*
X117388500Y-62191042D01*
%TO.N,/D12*%
X110703074Y-67309000D02*
X103444071Y-74568000D01*
%TO.N,/TMS*%
X117388500Y-62191042D02*
X116772550Y-62806993D01*
%TO.N,/TDI*%
X117051950Y-62922724D02*
X117051950Y-64175824D01*
%TO.N,/PROGRAM*%
X115759600Y-62631721D02*
X115759600Y-63825182D01*
%TO.N,/D11*%
X100560500Y-74068000D02*
X103547526Y-74068000D01*
%TO.N,/TCK*%
X116588500Y-61962000D02*
X116588500Y-62197952D01*
%TO.N,/D11*%
X114462250Y-62827516D02*
X114921400Y-62368366D01*
%TO.N,/TCK*%
X116588500Y-62197952D02*
X116051000Y-62735452D01*
X116051000Y-62735452D02*
X116051000Y-63931742D01*
X116051000Y-63931742D02*
X115864850Y-64117893D01*
%TO.N,/D13*%
X113136992Y-65912750D02*
X113249250Y-65912750D01*
%TO.N,/D8*%
X113758050Y-62345082D02*
X113624050Y-62479083D01*
%TO.N,/D9*%
X114188500Y-62309764D02*
X113903450Y-62594814D01*
X112966950Y-64235966D02*
X112966950Y-64456550D01*
%TO.N,/D10*%
X110470197Y-66750200D02*
X111068434Y-66750200D01*
%TO.N,/D9*%
X113903450Y-63299466D02*
X112966950Y-64235966D01*
%TO.N,/D10*%
X113246350Y-64572282D02*
X113246350Y-64351697D01*
X114182850Y-62710545D02*
X114559050Y-62334345D01*
X114559050Y-61532550D02*
X114188500Y-61162000D01*
%TO.N,/D13*%
X113249250Y-65912750D02*
X114331500Y-64830500D01*
%TO.N,/D8*%
X110238732Y-66191400D02*
X105362130Y-71068000D01*
%TO.N,/D9*%
X112966950Y-64456550D02*
X110952703Y-66470800D01*
%TO.N,/D8*%
X105362130Y-71068000D02*
X100560500Y-71068000D01*
X113758050Y-61531550D02*
X113758050Y-62345082D01*
X112687551Y-64340819D02*
X110836972Y-66191400D01*
X113388500Y-61162000D02*
X113758050Y-61531550D01*
X112687551Y-64120234D02*
X112687551Y-64340819D01*
%TO.N,/D9*%
X105257262Y-71568000D02*
X100560500Y-71568000D01*
%TO.N,/D13*%
X111461342Y-67588400D02*
X113136992Y-65912750D01*
%TO.N,/D8*%
X113624050Y-62479083D02*
X113624050Y-63183734D01*
%TO.N,/D9*%
X110952703Y-66470800D02*
X110354464Y-66470800D01*
%TO.N,/D10*%
X100560500Y-73568000D02*
X103652394Y-73568000D01*
%TO.N,/D13*%
X103340616Y-75068000D02*
X110820219Y-67588400D01*
X110820219Y-67588400D02*
X111461342Y-67588400D01*
%TO.N,/D10*%
X114559050Y-62334345D02*
X114559050Y-61532550D01*
%TO.N,/D8*%
X110836972Y-66191400D02*
X110238732Y-66191400D01*
X113624050Y-63183734D02*
X112687551Y-64120234D01*
%TO.N,/D9*%
X113903450Y-62594814D02*
X113903450Y-63299466D01*
%TO.N,/D10*%
X114182850Y-63415198D02*
X114182850Y-62710545D01*
%TO.N,/D9*%
X110354464Y-66470800D02*
X105257262Y-71568000D01*
%TO.N,/D10*%
X111068434Y-66750200D02*
X113246350Y-64572282D01*
X103652394Y-73568000D02*
X110470197Y-66750200D01*
X113246350Y-64351697D02*
X114182850Y-63415198D01*
%TO.N,/D9*%
X114188500Y-61962000D02*
X114188500Y-62309764D01*
%TO.N,/D13*%
X100560500Y-75068000D02*
X103340616Y-75068000D01*
%TO.N,/TDO*%
X119008000Y-73096000D02*
X119008000Y-72959874D01*
X119008000Y-72959874D02*
X119832724Y-72135150D01*
X119832724Y-72135150D02*
X122134150Y-72135150D01*
X122134150Y-72135150D02*
X127612000Y-77613000D01*
%TO.N,/DONE*%
X118461966Y-73359992D02*
X118411000Y-73410958D01*
X118411000Y-73410958D02*
X118411000Y-76654000D01*
X118411000Y-76654000D02*
X117452000Y-77613000D01*
%TO.N,/TDI*%
X120440000Y-72800000D02*
X120440000Y-75521000D01*
X120440000Y-75521000D02*
X122532000Y-77613000D01*
X120249000Y-72609000D02*
X120440000Y-72800000D01*
%TO.N,/TMS*%
X119662000Y-72976000D02*
X119992000Y-73306000D01*
X119992000Y-73306000D02*
X119992000Y-77613000D01*
%TO.N,/SRESET*%
X113388500Y-62188274D02*
X113342650Y-62234124D01*
X113388500Y-61962000D02*
X113388500Y-62188274D01*
X113342650Y-63070002D02*
X110842652Y-65570000D01*
X113342650Y-62234124D02*
X113342650Y-63070002D01*
X110842652Y-65570000D02*
X110714000Y-65570000D01*
%TO.N,/D13*%
X114988500Y-60362000D02*
X114979000Y-60362000D01*
X114979000Y-60362000D02*
X114670000Y-60671000D01*
%TO.N,/D15*%
X111967800Y-68147200D02*
X111412142Y-68147200D01*
X103265250Y-76447140D02*
X102644390Y-77068000D01*
X102644390Y-77068000D02*
X100560500Y-77068000D01*
X113449000Y-66666000D02*
X111967800Y-68147200D01*
X111412142Y-68147200D02*
X103265250Y-76294092D01*
X103265250Y-76294092D02*
X103265250Y-76447140D01*
X114188500Y-60362000D02*
X114188500Y-60396500D01*
X114188500Y-60396500D02*
X113930000Y-60655000D01*
%TO.N,/DONE*%
X115788500Y-60362000D02*
X115888000Y-60362000D01*
X115888000Y-60362000D02*
X116042000Y-60516000D01*
%TO.N,/CCLK*%
X115788500Y-59562000D02*
X115785000Y-59562000D01*
X115785000Y-59562000D02*
X115451000Y-59896000D01*
%TO.N,/TDO*%
X116588500Y-58762000D02*
X116588500Y-58754500D01*
X116588500Y-58754500D02*
X116939000Y-58404000D01*
%TO.N,/~{USB_RST}*%
X114188500Y-51562000D02*
X114188500Y-51549500D01*
X114188500Y-51549500D02*
X113895000Y-51256000D01*
%TO.N,VCC*%
X123447000Y-44692000D02*
X124712000Y-44692000D01*
X124712000Y-44692000D02*
X124751000Y-44653000D01*
%TO.N,/USB_DIR*%
X119292000Y-41450000D02*
X119474000Y-41632000D01*
X119474000Y-41632000D02*
X120254000Y-41632000D01*
X120254000Y-41710000D02*
X120259500Y-41715500D01*
X120254000Y-41632000D02*
X120254000Y-41710000D01*
X120259500Y-41715500D02*
X120259500Y-42504500D01*
X114988500Y-51562000D02*
X114973000Y-51562000D01*
X114973000Y-51562000D02*
X114700000Y-51289000D01*
%TO.N,/USB_STP*%
X120733000Y-42478000D02*
X120759500Y-42504500D01*
X120733000Y-41265000D02*
X120733000Y-42478000D01*
%TO.N,/USB_D6*%
X120148250Y-47890247D02*
X120148250Y-48090875D01*
%TO.N,/USB_D7*%
X120735978Y-47697650D02*
X120936607Y-47697650D01*
X121759500Y-46874757D02*
X121759500Y-46379500D01*
X119388000Y-50362500D02*
X119388000Y-49246257D01*
X119388000Y-49246257D02*
X120427650Y-48206607D01*
X120427650Y-48005978D02*
X120735978Y-47697650D01*
X120936607Y-47697650D02*
X121759500Y-46874757D01*
%TO.N,/USB_D6*%
X121384500Y-46653996D02*
X120148250Y-47890247D01*
X121259500Y-46379500D02*
X121384500Y-46504500D01*
%TO.N,/USB_D7*%
X118988500Y-50762000D02*
X119388000Y-50362500D01*
%TO.N,/USB_D6*%
X121384500Y-46504500D02*
X121384500Y-46653996D01*
%TO.N,/USB_D7*%
X120427650Y-48206607D02*
X120427650Y-48005978D01*
%TO.N,/USB_D6*%
X118988500Y-49250625D02*
X118988500Y-49962000D01*
X120148250Y-48090875D02*
X118988500Y-49250625D01*
%TO.N,/USB_STP*%
X119788500Y-49962000D02*
X119788500Y-49389500D01*
X119788500Y-49389500D02*
X120954000Y-48224000D01*
%TO.N,/USB_D4*%
X118892250Y-48951744D02*
X118892250Y-47871750D01*
%TO.N,/USB_D5*%
X120759500Y-46379500D02*
X120759500Y-46809500D01*
X120759500Y-46809500D02*
X119367000Y-48202000D01*
%TO.N,/USB_D4*%
X118188500Y-50762000D02*
X118618950Y-50331550D01*
X118618950Y-50331550D02*
X118618950Y-49225044D01*
X118618950Y-49225044D02*
X118892250Y-48951744D01*
X118892250Y-47871750D02*
X120134501Y-46629499D01*
X120134501Y-46629499D02*
X120134501Y-46504499D01*
X120134501Y-46504499D02*
X120259500Y-46379500D01*
%TO.N,/USB_D3*%
X118612850Y-48822887D02*
X118188500Y-49247237D01*
%TO.N,/USB_D2*%
X118333450Y-48374550D02*
X118139000Y-48569000D01*
%TO.N,/USB_D3*%
X119572000Y-45692000D02*
X119572000Y-46796868D01*
X119572000Y-46796868D02*
X118612850Y-47756019D01*
X118188500Y-49247237D02*
X118188500Y-49962000D01*
%TO.N,/USB_D2*%
X119572000Y-45192000D02*
X119159501Y-45192000D01*
%TO.N,/USB_D3*%
X118612850Y-47756019D02*
X118612850Y-48822887D01*
%TO.N,/USB_D2*%
X118333450Y-47640288D02*
X118333450Y-48374550D01*
X119159501Y-45192000D02*
X118517000Y-45834501D01*
X118517000Y-45834501D02*
X118517000Y-47456738D01*
X118517000Y-47456738D02*
X118333450Y-47640288D01*
%TO.N,/USB_D5*%
X118375000Y-51375500D02*
X118188500Y-51562000D01*
X118375000Y-51325000D02*
X118375000Y-51375500D01*
%TO.N,/USB_D1*%
X118020250Y-45831251D02*
X118020250Y-47943378D01*
X119159501Y-44692000D02*
X118020250Y-45831251D01*
%TO.N,/USB_D0*%
X117333250Y-48235247D02*
X117333250Y-49680476D01*
%TO.N,/USB_D1*%
X117612650Y-48787022D02*
X117758050Y-48932422D01*
%TO.N,/USB_D0*%
X119159501Y-44192000D02*
X117546400Y-45805101D01*
%TO.N,/USB_D1*%
X118020250Y-47943378D02*
X117612650Y-48350978D01*
%TO.N,/USB_D0*%
X119572000Y-44192000D02*
X119159501Y-44192000D01*
%TO.N,/USB_D1*%
X117612650Y-48350978D02*
X117612650Y-48787022D01*
%TO.N,/USB_D0*%
X117546400Y-48022096D02*
X117333250Y-48235247D01*
X117546400Y-45805101D02*
X117546400Y-48022096D01*
%TO.N,/USB_D1*%
X119572000Y-44692000D02*
X119159501Y-44692000D01*
%TO.N,/USB_D0*%
X117333250Y-49680476D02*
X117388500Y-49735726D01*
X117388500Y-49735726D02*
X117388500Y-49962000D01*
%TO.N,/USB_D1*%
X117758050Y-48932422D02*
X117758050Y-50392450D01*
X117758050Y-50392450D02*
X117388500Y-50762000D01*
%TO.N,/USB_NXT*%
X117267000Y-45584501D02*
X117267000Y-47906365D01*
X119572000Y-43692000D02*
X119159501Y-43692000D01*
X116819000Y-48354365D02*
X116819000Y-48564000D01*
X117267000Y-47906365D02*
X116819000Y-48354365D01*
X119159501Y-43692000D02*
X117267000Y-45584501D01*
%TO.N,/USB_CLK*%
X116958050Y-47680578D02*
X116958050Y-45393451D01*
X116292650Y-48345978D02*
X116958050Y-47680578D01*
X116588500Y-50762000D02*
X116958050Y-50392450D01*
X119159501Y-43192000D02*
X119572000Y-43192000D01*
X116958050Y-50392450D02*
X116958050Y-49700408D01*
X116958050Y-49700408D02*
X116740650Y-49483008D01*
X116740650Y-49483008D02*
X116740650Y-49230022D01*
X116292650Y-48782022D02*
X116292650Y-48345978D01*
X116958050Y-45393451D02*
X119159501Y-43192000D01*
X116740650Y-49230022D02*
X116292650Y-48782022D01*
%TO.N,/USB_D2*%
X117388500Y-51562000D02*
X117388500Y-51560500D01*
X117388500Y-51560500D02*
X117728000Y-51221000D01*
%TO.N,/USB_NXT*%
X116588500Y-51523500D02*
X116849000Y-51263000D01*
X116588500Y-51562000D02*
X116588500Y-51523500D01*
%TO.N,/USB_REFCLK*%
X115788500Y-51562000D02*
X115788500Y-51561500D01*
X115788500Y-51561500D02*
X115417000Y-51190000D01*
%TO.N,VCC*%
X148986000Y-75410000D02*
X148986000Y-74094000D01*
X148986000Y-74094000D02*
X148601000Y-73709000D01*
%TO.N,GND*%
X150546000Y-75410000D02*
X150546000Y-73999000D01*
X150546000Y-73999000D02*
X150905000Y-73640000D01*
%TO.N,VCC*%
X70051000Y-43757000D02*
X70051000Y-46098000D01*
X70051000Y-46098000D02*
X70121000Y-46168000D01*
%TO.N,GND*%
X68159000Y-84798000D02*
X68159000Y-81320000D01*
X68159000Y-81320000D02*
X68834000Y-80645000D01*
X156862000Y-45098000D02*
X155410000Y-45098000D01*
X155410000Y-45098000D02*
X155378000Y-45130000D01*
%TO.N,VCC*%
X150529000Y-43142000D02*
X150529000Y-44276000D01*
X150529000Y-44276000D02*
X150933000Y-44680000D01*
%TO.N,GND*%
X148969000Y-43142000D02*
X148969000Y-44196000D01*
X148969000Y-44196000D02*
X148543000Y-44622000D01*
%TO.N,VCC*%
X142630000Y-79042000D02*
X140856000Y-79042000D01*
X140856000Y-79042000D02*
X140738000Y-78924000D01*
%TO.N,GND*%
X118661000Y-81723000D02*
X117162000Y-81723000D01*
X117162000Y-81723000D02*
X117123000Y-81762000D01*
X65196800Y-43716200D02*
X66773800Y-43716200D01*
X66773800Y-43716200D02*
X66852800Y-43637200D01*
%TO.N,/~{FLUSH}*%
X110988500Y-60362000D02*
X110960000Y-60362000D01*
X110960000Y-60362000D02*
X110680000Y-60642000D01*
%TO.N,/NMI*%
X111788500Y-60362000D02*
X111788500Y-60327023D01*
X111788500Y-60327023D02*
X112045987Y-60069536D01*
%TO.N,/INTR*%
X112588500Y-59562000D02*
X112585000Y-59562000D01*
X112585000Y-59562000D02*
X112290000Y-59267000D01*
%TO.N,/D4*%
X108239861Y-63631250D02*
X109043287Y-63631250D01*
X106940550Y-62711200D02*
X107297350Y-63068000D01*
X107676611Y-63068000D02*
X108239861Y-63631250D01*
%TO.N,/D3*%
X108798650Y-63351850D02*
X108355592Y-63351850D01*
X108355592Y-63351850D02*
X107435542Y-62431800D01*
%TO.N,/D4*%
X109043287Y-63631250D02*
X110617950Y-62056587D01*
X110617950Y-61532550D02*
X110988500Y-61162000D01*
%TO.N,/D3*%
X107435542Y-62431800D02*
X106437246Y-62431800D01*
%TO.N,/D4*%
X106552978Y-62711200D02*
X106940550Y-62711200D01*
%TO.N,/D3*%
X110188500Y-61962000D02*
X108798650Y-63351850D01*
%TO.N,/D4*%
X100560500Y-63068000D02*
X106196178Y-63068000D01*
X106196178Y-63068000D02*
X106552978Y-62711200D01*
%TO.N,/D3*%
X106437246Y-62431800D02*
X106301046Y-62568000D01*
%TO.N,/D4*%
X107297350Y-63068000D02*
X107676611Y-63068000D01*
%TO.N,/D3*%
X106301046Y-62568000D02*
X100560500Y-62568000D01*
%TO.N,/D4*%
X110617950Y-62056587D02*
X110617950Y-61532550D01*
%TO.N,/SRESET*%
X106764000Y-65570000D02*
X106764000Y-63244550D01*
X106764000Y-63244550D02*
X106771000Y-63237550D01*
%TO.N,/~{SMI}*%
X112588500Y-60362000D02*
X112562000Y-60362000D01*
X112562000Y-60362000D02*
X112307000Y-60617000D01*
%TO.N,/~{FERR}*%
X113388500Y-58762000D02*
X113388500Y-58767500D01*
X113388500Y-58767500D02*
X113047000Y-59109000D01*
%TO.N,/~{IGNNE}*%
X113388500Y-59562000D02*
X113368000Y-59562000D01*
X113368000Y-59562000D02*
X113074000Y-59856000D01*
%TO.N,/~{STPCLK}*%
X112588500Y-61162000D02*
X112218950Y-61531550D01*
X112218950Y-61531550D02*
X112218950Y-62451530D01*
X112218950Y-62451530D02*
X111082000Y-63588480D01*
X111082000Y-63588480D02*
X111082000Y-63947000D01*
%TO.N,VCC*%
X86348000Y-81801000D02*
X86840000Y-81309000D01*
X86348000Y-82780500D02*
X86348000Y-81801000D01*
X87348000Y-81817000D02*
X86840000Y-81309000D01*
X87348000Y-82780500D02*
X87348000Y-81817000D01*
%TO.N,GND*%
X84348000Y-82780500D02*
X84348000Y-81360000D01*
X84348000Y-81360000D02*
X84125000Y-81137000D01*
D38*
X100560500Y-67068000D02*
X99823001Y-67068000D01*
X99823001Y-67068000D02*
X98679000Y-65923999D01*
X98679000Y-65923999D02*
X98679000Y-65532000D01*
X100560500Y-65568000D02*
X98715000Y-65568000D01*
X98715000Y-65568000D02*
X98679000Y-65532000D01*
%TO.N,VCC*%
X100560500Y-67568000D02*
X98683000Y-67568000D01*
X98683000Y-67568000D02*
X98679000Y-67564000D01*
X100560500Y-66068000D02*
X102136000Y-66068000D01*
X102136000Y-66068000D02*
X102235000Y-66167000D01*
X100560500Y-66568000D02*
X100560500Y-66068000D01*
X100560500Y-65068000D02*
X102011000Y-65068000D01*
X102011000Y-65068000D02*
X102233000Y-65290000D01*
X100560500Y-64568000D02*
X100560500Y-65068000D01*
X100560500Y-63568000D02*
X101297999Y-63568000D01*
X102233000Y-64503001D02*
X102233000Y-65290000D01*
X101297999Y-63568000D02*
X102233000Y-64503001D01*
%TO.N,GND*%
X100560500Y-64068000D02*
X99823001Y-64068000D01*
X99823001Y-64068000D02*
X98679000Y-65212001D01*
X98679000Y-65212001D02*
X98679000Y-65532000D01*
D37*
X112588500Y-62755500D02*
X112587000Y-62757000D01*
X112588500Y-61962000D02*
X112588500Y-62755500D01*
%TO.N,/D7*%
X100560500Y-70068000D02*
X103986000Y-70068000D01*
X103986000Y-70068000D02*
X111788500Y-62265500D01*
X111788500Y-62265500D02*
X111788500Y-61962000D01*
%TO.N,/D6*%
X111418950Y-62239919D02*
X105090869Y-68568000D01*
X105090869Y-68568000D02*
X100560500Y-68568000D01*
X111418950Y-61531550D02*
X111418950Y-62239919D01*
X111788500Y-61162000D02*
X111418950Y-61531550D01*
%TO.N,/RESET*%
X109785500Y-61565000D02*
X106576000Y-61565000D01*
X106576000Y-61565000D02*
X106557000Y-61584000D01*
X110188500Y-61162000D02*
X109785500Y-61565000D01*
%TO.N,GND*%
X109807300Y-59943200D02*
X107406139Y-59943200D01*
%TO.N,/~{A20M}*%
X110188500Y-60362000D02*
X109762500Y-60788000D01*
%TO.N,GND*%
X107406139Y-59943200D02*
X107297689Y-59834750D01*
%TO.N,/~{A20M}*%
X109762500Y-60788000D02*
X105999000Y-60788000D01*
%TO.N,GND*%
X110188500Y-59562000D02*
X109807300Y-59943200D01*
%TO.N,/PCD*%
X111788500Y-59562000D02*
X111788500Y-59544500D01*
X111788500Y-59544500D02*
X111492000Y-59248000D01*
%TO.N,/~{EADS}*%
X110988500Y-59562000D02*
X110952000Y-59562000D01*
X110952000Y-59562000D02*
X110694000Y-59820000D01*
%TO.N,/~{STPCLK}*%
X82848000Y-82780500D02*
X82848000Y-80705000D01*
X82848000Y-80705000D02*
X82870000Y-80683000D01*
%TO.N,/~{IGNNE}*%
X82348000Y-82780500D02*
X82348000Y-81371000D01*
X82348000Y-81371000D02*
X82340000Y-81363000D01*
%TO.N,/~{FERR}*%
X79348000Y-82780500D02*
X79348000Y-81578000D01*
X79348000Y-81578000D02*
X79384000Y-81542000D01*
%TO.N,/~{SMI}*%
X78848000Y-82780500D02*
X78848000Y-80783000D01*
X78848000Y-80783000D02*
X78820000Y-80755000D01*
%TO.N,GND*%
X73848000Y-82029150D02*
X74724150Y-81153000D01*
X74848000Y-82780500D02*
X74848000Y-81276850D01*
X73848000Y-82780500D02*
X73848000Y-82029150D01*
X74848000Y-81276850D02*
X74724150Y-81153000D01*
%TO.N,/SRESET*%
X75348000Y-82780500D02*
X75348000Y-80958000D01*
X75348000Y-80958000D02*
X76131000Y-80175000D01*
%TO.N,/NMI*%
X70635500Y-80068000D02*
X73051000Y-80068000D01*
X73051000Y-80068000D02*
X73080000Y-80039000D01*
%TO.N,/~{FLUSH}*%
X73066000Y-79068000D02*
X73092000Y-79042000D01*
X72574372Y-79068000D02*
X73066000Y-79068000D01*
X72517022Y-79010650D02*
X72574372Y-79068000D01*
%TO.N,/INTR*%
X70635500Y-79568000D02*
X72268000Y-79568000D01*
%TO.N,/~{FLUSH}*%
X72080978Y-79010650D02*
X72517022Y-79010650D01*
X70635500Y-79068000D02*
X72023628Y-79068000D01*
X72023628Y-79068000D02*
X72080978Y-79010650D01*
%TO.N,/INTR*%
X72268000Y-79568000D02*
X72299000Y-79537000D01*
%TO.N,/~{A20M}*%
X73082350Y-77957650D02*
X73181000Y-77859000D01*
%TO.N,/RESET*%
X72299000Y-78568000D02*
X72383000Y-78484000D01*
%TO.N,/~{A20M}*%
X72164978Y-77957650D02*
X73082350Y-77957650D01*
X72054628Y-78068000D02*
X72164978Y-77957650D01*
X70635500Y-78068000D02*
X72054628Y-78068000D01*
%TO.N,/RESET*%
X70635500Y-78568000D02*
X72299000Y-78568000D01*
%TO.N,/~{EADS}*%
X70635500Y-77568000D02*
X72150000Y-77568000D01*
X72150000Y-77568000D02*
X72484000Y-77234000D01*
%TO.N,VCC*%
X99151208Y-58068000D02*
X98949158Y-57865950D01*
X100560500Y-58068000D02*
X99151208Y-58068000D01*
%TO.N,GND*%
X100560500Y-60068000D02*
X99173479Y-60068000D01*
X99173479Y-60068000D02*
X99022629Y-60218850D01*
%TO.N,/PWT*%
X112588500Y-57962000D02*
X112588500Y-57976500D01*
X112588500Y-57976500D02*
X112270000Y-58295000D01*
%TO.N,/D{slash}~{C}*%
X111788500Y-57962000D02*
X111788500Y-57962500D01*
X111788500Y-57962500D02*
X111492000Y-58259000D01*
%TO.N,/M{slash}~{IO}*%
X110988500Y-57962000D02*
X110969000Y-57962000D01*
X110969000Y-57962000D02*
X110669000Y-58262000D01*
%TO.N,/~{BE3}*%
X112943000Y-56720000D02*
X112943000Y-56716500D01*
X112943000Y-56716500D02*
X112588500Y-56362000D01*
%TO.N,/~{BE2}*%
X112274000Y-56847500D02*
X112588500Y-57162000D01*
X112274000Y-56842000D02*
X112274000Y-56847500D01*
%TO.N,/~{BE1}*%
X111788500Y-57162000D02*
X111788500Y-57130500D01*
X111788500Y-57130500D02*
X111522000Y-56864000D01*
%TO.N,/BREQ*%
X111788500Y-56362000D02*
X111780898Y-56362000D01*
X111780898Y-56362000D02*
X111548962Y-56130064D01*
X111489936Y-56130064D02*
X111548962Y-56130064D01*
%TO.N,/W{slash}~{R}*%
X111536000Y-55267000D02*
X111536000Y-55309500D01*
X111536000Y-55309500D02*
X111788500Y-55562000D01*
%TO.N,/~{BE1}*%
X70635500Y-70568000D02*
X71988892Y-70568000D01*
X73001108Y-70568000D02*
X73612300Y-70568000D01*
X72753408Y-70320300D02*
X73001108Y-70568000D01*
X73612300Y-70568000D02*
X73860000Y-70320300D01*
X72236592Y-70320300D02*
X72753408Y-70320300D01*
X71988892Y-70568000D02*
X72236592Y-70320300D01*
%TO.N,VCC*%
X71638328Y-75561414D02*
X72667427Y-75561414D01*
X71631742Y-75568000D02*
X71638328Y-75561414D01*
%TO.N,/D{slash}~{C}*%
X72084310Y-73663300D02*
X72302030Y-73663300D01*
X71679610Y-74068000D02*
X72084310Y-73663300D01*
%TO.N,/PWT*%
X71574742Y-74568000D02*
X71855592Y-74287150D01*
X72372408Y-74287150D02*
X72653258Y-74568000D01*
%TO.N,/PCD*%
X71957000Y-75068000D02*
X72114000Y-74911000D01*
%TO.N,/PWT*%
X71855592Y-74287150D02*
X72372408Y-74287150D01*
X73341000Y-74568000D02*
X73580000Y-74329000D01*
X70635500Y-74568000D02*
X71574742Y-74568000D01*
%TO.N,VCC*%
X70635500Y-75568000D02*
X71631742Y-75568000D01*
%TO.N,/D{slash}~{C}*%
X70635500Y-74068000D02*
X71679610Y-74068000D01*
%TO.N,/PWT*%
X72653258Y-74568000D02*
X73341000Y-74568000D01*
%TO.N,/PCD*%
X70635500Y-75068000D02*
X71957000Y-75068000D01*
%TO.N,/M{slash}~{IO}*%
X70635500Y-73068000D02*
X72898000Y-73068000D01*
X72898000Y-73068000D02*
X72907000Y-73059000D01*
%TO.N,/~{BE3}*%
X73837000Y-71568000D02*
X73839000Y-71570000D01*
X70635500Y-71568000D02*
X73837000Y-71568000D01*
%TO.N,/W{slash}~{R}*%
X71573505Y-68068000D02*
X71727649Y-67913856D01*
%TO.N,/~{BE0}*%
X72093760Y-70068000D02*
X72465310Y-69696450D01*
X72465310Y-69696450D02*
X72565522Y-69696450D01*
%TO.N,/~{BE2}*%
X72371150Y-71068000D02*
X72495000Y-70944150D01*
%TO.N,/W{slash}~{R}*%
X72384856Y-67913856D02*
X72609000Y-68138000D01*
%TO.N,/~{BE0}*%
X70635500Y-70068000D02*
X72093760Y-70068000D01*
%TO.N,/BREQ*%
X71811714Y-69568000D02*
X72307114Y-69072600D01*
%TO.N,/W{slash}~{R}*%
X70635500Y-68068000D02*
X71573505Y-68068000D01*
%TO.N,/~{BE2}*%
X70635500Y-71068000D02*
X72371150Y-71068000D01*
%TO.N,VCC*%
X71455763Y-69068000D02*
X71986057Y-68537706D01*
%TO.N,/BREQ*%
X72903600Y-69072600D02*
X73358000Y-69527000D01*
X72307114Y-69072600D02*
X72903600Y-69072600D01*
%TO.N,VCC*%
X70635500Y-69068000D02*
X71455763Y-69068000D01*
%TO.N,/BREQ*%
X70635500Y-69568000D02*
X71811714Y-69568000D01*
%TO.N,/W{slash}~{R}*%
X71727649Y-67913856D02*
X72384856Y-67913856D01*
%TO.N,VCC*%
X87558551Y-53803550D02*
X87631550Y-53803550D01*
X87631550Y-53803550D02*
X88103000Y-54275000D01*
X88848000Y-53530000D02*
X88103000Y-54275000D01*
X88848000Y-52855500D02*
X88848000Y-53530000D01*
X91798999Y-54142000D02*
X91654000Y-54142000D01*
X90848000Y-53592999D02*
X91397001Y-54142000D01*
X92348000Y-53592999D02*
X91798999Y-54142000D01*
X90848000Y-52855500D02*
X90848000Y-53592999D01*
X91397001Y-54142000D02*
X91654000Y-54142000D01*
X92348000Y-52855500D02*
X92348000Y-53592999D01*
X87348000Y-52855500D02*
X87348000Y-53592999D01*
X87348000Y-53592999D02*
X87558551Y-53803550D01*
%TO.N,GND*%
X98865000Y-55068000D02*
X98830000Y-55033000D01*
X100560500Y-55068000D02*
X98865000Y-55068000D01*
%TO.N,VCC*%
X95848000Y-54187000D02*
X95838000Y-54197000D01*
X95848000Y-52855500D02*
X95848000Y-54187000D01*
%TO.N,/~{BS16}*%
X72267000Y-58068000D02*
X72277000Y-58078000D01*
X70635500Y-58068000D02*
X72267000Y-58068000D01*
%TO.N,/~{BOFF}*%
X70635500Y-57568000D02*
X72901000Y-57568000D01*
%TO.N,/~{KEN}*%
X72557000Y-61068000D02*
X72885000Y-60740000D01*
X70635500Y-61068000D02*
X72557000Y-61068000D01*
%TO.N,/HOLD*%
X74086000Y-62568000D02*
X74221000Y-62703000D01*
X70635500Y-62568000D02*
X74086000Y-62568000D01*
%TO.N,VCC*%
X101992399Y-55568000D02*
X102216249Y-55344150D01*
%TO.N,/A25*%
X101668499Y-56068000D02*
X101962499Y-56362000D01*
%TO.N,VCC*%
X100560500Y-55568000D02*
X101992399Y-55568000D01*
%TO.N,/A26*%
X100560500Y-56568000D02*
X101773367Y-56568000D01*
%TO.N,/A25*%
X101962499Y-56362000D02*
X109388500Y-56362000D01*
X100560500Y-56068000D02*
X101668499Y-56068000D01*
%TO.N,/A26*%
X101773367Y-56568000D02*
X101974367Y-56769000D01*
X109795500Y-56769000D02*
X110188500Y-57162000D01*
X101974367Y-56769000D02*
X109795500Y-56769000D01*
%TO.N,/A24*%
X109143863Y-55841400D02*
X109235013Y-55932550D01*
%TO.N,/A21*%
X106249113Y-51346650D02*
X108242962Y-53340500D01*
%TO.N,/A23*%
X106009913Y-51907450D02*
X108001763Y-53899300D01*
X108460150Y-54341337D02*
X108460150Y-54357687D01*
%TO.N,/A22*%
X108739550Y-54225607D02*
X108739550Y-54230805D01*
%TO.N,/A21*%
X108249574Y-53340500D02*
X109018950Y-54109876D01*
%TO.N,GND*%
X109388500Y-55562000D02*
X108957045Y-55562000D01*
%TO.N,/A23*%
X108001763Y-53899300D02*
X108018112Y-53899300D01*
%TO.N,/A24*%
X109235013Y-55932550D02*
X109759050Y-55932550D01*
%TO.N,/A22*%
X109270745Y-54762000D02*
X109388500Y-54762000D01*
%TO.N,/A24*%
X98542942Y-53802550D02*
X98711192Y-53634300D01*
%TO.N,/A21*%
X108242962Y-53340500D02*
X108249574Y-53340500D01*
%TO.N,/A24*%
X98057551Y-53802550D02*
X98542942Y-53802550D01*
%TO.N,/A22*%
X108127231Y-53619900D02*
X108133843Y-53619900D01*
X97338951Y-51627050D02*
X106134381Y-51627050D01*
%TO.N,/A24*%
X109759050Y-55932550D02*
X110188500Y-56362000D01*
%TO.N,/A22*%
X96848000Y-52118001D02*
X97338951Y-51627050D01*
%TO.N,/A24*%
X97848000Y-52855500D02*
X97848000Y-53592999D01*
%TO.N,/A22*%
X96848000Y-52855500D02*
X96848000Y-52118001D01*
%TO.N,/A23*%
X97558551Y-51907450D02*
X106009913Y-51907450D01*
%TO.N,/A24*%
X97848000Y-53592999D02*
X98057551Y-53802550D01*
%TO.N,/A23*%
X108018112Y-53899300D02*
X108460150Y-54341337D01*
%TO.N,/A21*%
X109782500Y-54356000D02*
X110188500Y-54762000D01*
%TO.N,/A24*%
X108095942Y-55841400D02*
X109143863Y-55841400D01*
%TO.N,/A22*%
X108739550Y-54230805D02*
X109270745Y-54762000D01*
%TO.N,/A23*%
X97348000Y-52855500D02*
X97348000Y-52118001D01*
%TO.N,/A22*%
X106134381Y-51627050D02*
X108127231Y-53619900D01*
%TO.N,/A23*%
X109759050Y-55132550D02*
X110188500Y-55562000D01*
%TO.N,/A21*%
X109259336Y-54356000D02*
X109782500Y-54356000D01*
X109018950Y-54115614D02*
X109259336Y-54356000D01*
%TO.N,/A24*%
X98711192Y-53634300D02*
X105888842Y-53634300D01*
%TO.N,/A21*%
X97119351Y-51346650D02*
X106249113Y-51346650D01*
X96348000Y-52118001D02*
X97119351Y-51346650D01*
%TO.N,/A24*%
X105888842Y-53634300D02*
X108095942Y-55841400D01*
%TO.N,/A23*%
X109235013Y-55132550D02*
X109759050Y-55132550D01*
X97348000Y-52118001D02*
X97558551Y-51907450D01*
%TO.N,/A22*%
X108133843Y-53619900D02*
X108739550Y-54225607D01*
%TO.N,/A21*%
X109018950Y-54109876D02*
X109018950Y-54115614D01*
%TO.N,GND*%
X108957045Y-55562000D02*
X107918195Y-54523150D01*
%TO.N,/A21*%
X96348000Y-52855500D02*
X96348000Y-52118001D01*
%TO.N,/A23*%
X108460150Y-54357687D02*
X109235013Y-55132550D01*
%TO.N,/HLDA*%
X70635500Y-67568000D02*
X73186000Y-67568000D01*
X73186000Y-67568000D02*
X73198000Y-67556000D01*
%TO.N,GND*%
X73450000Y-62068000D02*
X73586000Y-61932000D01*
X72927262Y-62068000D02*
X73450000Y-62068000D01*
X72196731Y-62288600D02*
X72706662Y-62288600D01*
X70635500Y-62068000D02*
X71976131Y-62068000D01*
X72706662Y-62288600D02*
X72927262Y-62068000D01*
X71976131Y-62068000D02*
X72196731Y-62288600D01*
%TO.N,VCC*%
X70635500Y-61568000D02*
X72313914Y-61568000D01*
X72313914Y-61568000D02*
X72429459Y-61683545D01*
%TO.N,/~{RDY}*%
X70635500Y-60568000D02*
X71848000Y-60568000D01*
X71848000Y-60568000D02*
X72186000Y-60230000D01*
%TO.N,/HLDA*%
X110988500Y-56362000D02*
X110988000Y-56362000D01*
X110988000Y-56362000D02*
X110594000Y-55968000D01*
%TO.N,/HOLD*%
X110988500Y-55562000D02*
X110988500Y-55545500D01*
X110988500Y-55545500D02*
X110672000Y-55229000D01*
%TO.N,/~{KEN}*%
X110988500Y-54762000D02*
X110954000Y-54762000D01*
X110954000Y-54762000D02*
X110686000Y-54494000D01*
%TO.N,/~{RDY}*%
X110988500Y-53962000D02*
X110982000Y-53962000D01*
X110982000Y-53962000D02*
X110640000Y-53620000D01*
%TO.N,VCC*%
X72393150Y-59068000D02*
X72517000Y-59191850D01*
X70635500Y-59068000D02*
X72393150Y-59068000D01*
%TO.N,/~{BS8}*%
X70635500Y-58568000D02*
X73415000Y-58568000D01*
X73415000Y-58568000D02*
X73441000Y-58594000D01*
X110988500Y-53162000D02*
X110988500Y-53122500D01*
X110988500Y-53122500D02*
X110745000Y-52879000D01*
%TO.N,/~{BS16}*%
X110988500Y-52362000D02*
X110988500Y-52330500D01*
X110988500Y-52330500D02*
X110731000Y-52073000D01*
%TO.N,GND*%
X129514600Y-46042800D02*
X130919600Y-46042800D01*
X130919600Y-46042800D02*
X130927600Y-46034800D01*
%TO.N,VCC*%
X129675000Y-44486000D02*
X131567000Y-44486000D01*
X131567000Y-44486000D02*
X131773000Y-44692000D01*
X129358000Y-65531000D02*
X129358000Y-63825659D01*
X129358000Y-63825659D02*
X130802708Y-62380951D01*
%TO.N,GND*%
X129358000Y-67091000D02*
X129358000Y-69641600D01*
X129358000Y-69641600D02*
X131738400Y-72022000D01*
%TO.N,VCC*%
X155177000Y-51455000D02*
X155177000Y-48904600D01*
X155177000Y-48904600D02*
X152538400Y-46266000D01*
%TO.N,GND*%
X155177000Y-53015000D02*
X154746000Y-53015000D01*
X154746000Y-53015000D02*
X152609000Y-55152000D01*
X155115000Y-67422000D02*
X155115000Y-69445400D01*
X155115000Y-69445400D02*
X152538400Y-72022000D01*
%TO.N,VCC*%
X155115000Y-65862000D02*
X155115000Y-64758174D01*
X155115000Y-64758174D02*
X152706880Y-62350054D01*
%TO.N,GND*%
X110188500Y-52362000D02*
G75*
G02*
X110182535Y-52359515I0J8400D01*
G01*
X110182525Y-52359525D02*
X109828000Y-52005000D01*
X67294000Y-59527000D02*
X68798000Y-59527000D01*
X68798000Y-59527000D02*
X68834000Y-59563000D01*
%TO.N,VCC*%
X65734000Y-59527000D02*
X66418550Y-58842450D01*
X66418550Y-58842450D02*
X69672451Y-58842450D01*
X69672451Y-58842450D02*
X69898001Y-59068000D01*
X69898001Y-59068000D02*
X70635500Y-59068000D01*
X67444000Y-55581000D02*
X68789000Y-55581000D01*
X68789000Y-55581000D02*
X68834000Y-55626000D01*
%TO.N,GND*%
X65884000Y-55581000D02*
X66568550Y-54896450D01*
X66568550Y-54896450D02*
X70463950Y-54896450D01*
X70463950Y-54896450D02*
X70635500Y-55068000D01*
%TO.N,VCC*%
X74348000Y-52855500D02*
X74348000Y-54144000D01*
X74348000Y-54144000D02*
X74345000Y-54147000D01*
D39*
%TO.N,GND*%
X109388500Y-61962000D02*
X108622500Y-62728000D01*
X108622500Y-62728000D02*
X108614000Y-62728000D01*
D37*
%TO.N,/MA0*%
X134733721Y-67818721D02*
X134733721Y-60770679D01*
%TO.N,/MA10*%
X135738400Y-60566000D02*
X135738400Y-61403807D01*
X135981421Y-62233613D02*
X135606689Y-62608345D01*
X135738400Y-61403807D02*
X135981421Y-61646828D01*
%TO.N,/MA0*%
X135328000Y-68413000D02*
X134733721Y-67818721D01*
%TO.N,/MA10*%
X135981421Y-61646828D02*
X135981421Y-62233613D01*
%TO.N,/MA0*%
X134733721Y-60770679D02*
X134938400Y-60566000D01*
%TO.N,/MA3*%
X131705958Y-64716196D02*
X131588839Y-64833315D01*
X132538400Y-61353200D02*
X131705958Y-62185642D01*
X132538400Y-60566000D02*
X132538400Y-61353200D01*
%TO.N,/MA1*%
X134106299Y-65793408D02*
X133966000Y-65933707D01*
X134106299Y-63218017D02*
X134106299Y-65793408D01*
X133576025Y-62687743D02*
X134106299Y-63218017D01*
%TO.N,/MA3*%
X131705958Y-62185642D02*
X131705958Y-64716196D01*
%TO.N,/MA2*%
X133338400Y-61435458D02*
X132449802Y-62324056D01*
X133338400Y-60566000D02*
X133338400Y-61435458D01*
%TO.N,/MA1*%
X134138400Y-61029352D02*
X133576025Y-61591727D01*
X133576025Y-61591727D02*
X133576025Y-62687743D01*
%TO.N,/~{MRAS}*%
X138938400Y-62561414D02*
X139437949Y-63060963D01*
%TO.N,/~{MBA0}*%
X137338400Y-60566000D02*
X137338400Y-62111227D01*
%TO.N,/~{MRAS}*%
X138938400Y-60566000D02*
X138938400Y-62561414D01*
%TO.N,VCC*%
X131738400Y-60566000D02*
X131738400Y-61445259D01*
%TO.N,/~{MBA0}*%
X137338400Y-62111227D02*
X137413189Y-62186016D01*
%TO.N,/MA1*%
X134138400Y-60566000D02*
X134138400Y-61029352D01*
%TO.N,VCC*%
X131738400Y-61445259D02*
X130802708Y-62380951D01*
%TO.N,/MA7*%
X134938400Y-57722000D02*
X134938400Y-58623965D01*
%TO.N,/MA11*%
X137338400Y-58712496D02*
X137521684Y-58895780D01*
X137338400Y-57722000D02*
X137338400Y-58712496D01*
%TO.N,/MA7*%
X134938400Y-58623965D02*
X135253585Y-58939150D01*
%TO.N,/MA9*%
X136538400Y-58851631D02*
X137141548Y-59454779D01*
%TO.N,/MA5*%
X132776611Y-59070989D02*
X132663026Y-59070989D01*
%TO.N,/MA9*%
X136538400Y-57722000D02*
X136538400Y-58851631D01*
%TO.N,/MCLK*%
X139738400Y-58509200D02*
X140538594Y-59309394D01*
%TO.N,/MA12*%
X138973348Y-59344148D02*
X139733742Y-59344149D01*
X138138400Y-58509200D02*
X138973348Y-59344148D01*
%TO.N,/MA9*%
X137141548Y-59454779D02*
X138019262Y-59454779D01*
%TO.N,/MA12*%
X138138400Y-57722000D02*
X138138400Y-58509200D01*
%TO.N,/MCLK*%
X139738400Y-57722000D02*
X139738400Y-58509200D01*
%TO.N,/MA5*%
X133338400Y-58509200D02*
X132776611Y-59070989D01*
%TO.N,/MCLK*%
X140538594Y-59309394D02*
X141540242Y-59309394D01*
%TO.N,/MA5*%
X133338400Y-57722000D02*
X133338400Y-58509200D01*
%TO.N,/MA0*%
X134938400Y-60566000D02*
X134938400Y-59825655D01*
X134938400Y-59825655D02*
X133925206Y-58812461D01*
%TO.N,/MDQ0*%
X140008374Y-52980610D02*
X140467914Y-53440150D01*
%TO.N,/MDQ2*%
X125689307Y-53354714D02*
X125726193Y-53391600D01*
%TO.N,/MDQ1*%
X125841925Y-53112200D02*
X131006318Y-53112200D01*
%TO.N,/~{MRAS}*%
X124228390Y-55135797D02*
X124228390Y-55117155D01*
%TO.N,/MCKE*%
X138938400Y-57722000D02*
X138938400Y-56484999D01*
%TO.N,/MDQ5*%
X127937503Y-51191450D02*
X128200984Y-50927969D01*
%TO.N,/MDQ7*%
X120959050Y-50391450D02*
X135570482Y-50391450D01*
%TO.N,/MDQ1*%
X131006318Y-53112200D02*
X131792554Y-52325964D01*
%TO.N,/~{MWE}*%
X128659869Y-52538150D02*
X129151454Y-52046565D01*
%TO.N,/MDQ6*%
X144641126Y-51508100D02*
X144855026Y-51722000D01*
%TO.N,/~{MRAS}*%
X125644129Y-55285194D02*
X131204107Y-55285194D01*
%TO.N,/MCKE*%
X133527074Y-55399900D02*
X134365274Y-55399900D01*
%TO.N,/MA4*%
X132538400Y-56002574D02*
X132903224Y-55637750D01*
%TO.N,/~{MRAS}*%
X134499984Y-54849500D02*
X134614984Y-54734500D01*
%TO.N,/MDQ1*%
X124957145Y-52443517D02*
X125588942Y-53075314D01*
%TO.N,/MDQ5*%
X120959050Y-51191450D02*
X127937503Y-51191450D01*
%TO.N,/MCLK*%
X124213683Y-54341600D02*
X124362370Y-54192913D01*
%TO.N,GND*%
X131738400Y-56028291D02*
X132128941Y-55637750D01*
%TO.N,/MCKE*%
X125049077Y-55572400D02*
X131312033Y-55572400D01*
%TO.N,/DQM*%
X141652000Y-54064000D02*
X141530655Y-54185345D01*
%TO.N,/MCKE*%
X139273851Y-56149548D02*
X139273851Y-55662421D01*
%TO.N,/MDQ2*%
X124841413Y-52722917D02*
X125473209Y-53354713D01*
%TO.N,GND*%
X142352344Y-55403344D02*
X142103000Y-55154000D01*
%TO.N,/MDQ2*%
X125473209Y-53354713D02*
X125689307Y-53354714D01*
%TO.N,/MCKE*%
X124852240Y-55375563D02*
X125049077Y-55572400D01*
%TO.N,/MDQ2*%
X120959050Y-53591450D02*
X123224600Y-53591450D01*
%TO.N,/~{MBA0}*%
X121388500Y-54762000D02*
X124188413Y-54762000D01*
%TO.N,/MDQ5*%
X135747975Y-50609088D02*
X137885032Y-50609088D01*
%TO.N,/MDQ3*%
X129035720Y-51767167D02*
X129035723Y-51767165D01*
%TO.N,/MCKE*%
X134365274Y-55399900D02*
X134751274Y-55013900D01*
X138740330Y-55128900D02*
X139273851Y-55662421D01*
%TO.N,/MDQ0*%
X124608149Y-53002317D02*
X125239946Y-53634114D01*
%TO.N,/MA6*%
X134138400Y-56488474D02*
X134989124Y-55637750D01*
%TO.N,/MCLK*%
X120588500Y-54762000D02*
X121008900Y-54341600D01*
%TO.N,/MDQ1*%
X121388500Y-53162000D02*
X123258920Y-53162000D01*
%TO.N,/MCLK*%
X134383525Y-54175700D02*
X136788169Y-54175700D01*
%TO.N,/MDQ1*%
X142421322Y-53160800D02*
X146438530Y-53160800D01*
%TO.N,/MCKE*%
X138938400Y-56484999D02*
X139273851Y-56149548D01*
%TO.N,/~{MBA0}*%
X131332171Y-54762000D02*
X131639071Y-54455100D01*
%TO.N,/MDQ1*%
X125805039Y-53075314D02*
X125841925Y-53112200D01*
%TO.N,/~{MRAS}*%
X139540112Y-54849500D02*
X139975806Y-55285194D01*
%TO.N,/MDQ7*%
X138000764Y-50329688D02*
X138062525Y-50391450D01*
%TO.N,/DQM*%
X141530655Y-54185345D02*
X141530655Y-55989257D01*
%TO.N,/~{MBA1}*%
X131353509Y-53950400D02*
X131680995Y-53622914D01*
%TO.N,/~{MBA0}*%
X134384254Y-54570100D02*
X134499255Y-54455100D01*
%TO.N,/~{MRAS}*%
X123815181Y-55100350D02*
X123850628Y-55135797D01*
%TO.N,/MDQ3*%
X141309701Y-51767165D02*
X141443216Y-51633650D01*
%TO.N,/MCLK*%
X124362370Y-54192913D02*
X125342112Y-54192913D01*
%TO.N,/~{MRAS}*%
X131754801Y-54734500D02*
X133277364Y-54734500D01*
%TO.N,/MDQ1*%
X140606744Y-52325964D02*
X141162130Y-52881350D01*
%TO.N,/MCKE*%
X131870533Y-55013900D02*
X133141074Y-55013900D01*
%TO.N,/~{MBA1}*%
X125457844Y-53913514D02*
X125494730Y-53950400D01*
X124467273Y-53626167D02*
X124754619Y-53913513D01*
%TO.N,/MDQ2*%
X147041388Y-53440200D02*
X147385838Y-53095750D01*
%TO.N,/MDQ0*%
X121388500Y-53962000D02*
X123249182Y-53962000D01*
%TO.N,/MDQ6*%
X149234000Y-51722000D02*
X149243000Y-51731000D01*
%TO.N,/MDQ1*%
X149842000Y-53162000D02*
X149892000Y-53112000D01*
%TO.N,/MDQ4*%
X121865783Y-51884717D02*
X128034497Y-51884718D01*
%TO.N,/MDQ5*%
X140963503Y-50927969D02*
X141096023Y-50795450D01*
%TO.N,/MCLK*%
X125342112Y-54192913D02*
X125490798Y-54341600D01*
%TO.N,/MDQ0*%
X125239946Y-53634114D02*
X125573576Y-53634114D01*
%TO.N,/~{MBA0}*%
X134499255Y-54455100D02*
X137391027Y-54455100D01*
X133508095Y-54570100D02*
X134384254Y-54570100D01*
%TO.N,/MCLK*%
X133508828Y-54175700D02*
X133623827Y-54290700D01*
%TO.N,/MDQ6*%
X127962085Y-51562000D02*
X128316715Y-51207369D01*
%TO.N,/MDQ0*%
X131237777Y-53671000D02*
X131928167Y-52980610D01*
%TO.N,/MDQ6*%
X144855026Y-51722000D02*
X149234000Y-51722000D01*
%TO.N,/MDQ0*%
X124208865Y-53002317D02*
X124608149Y-53002317D01*
%TO.N,/MDQ5*%
X135429093Y-50927969D02*
X135747975Y-50609088D01*
%TO.N,/MDQ4*%
X128034497Y-51884718D02*
X128432446Y-51486769D01*
X142075764Y-51354250D02*
X143083513Y-52362000D01*
%TO.N,/MDQ1*%
X147644246Y-52471900D02*
X148334346Y-53162000D01*
%TO.N,/~{MWE}*%
X141490689Y-52046565D02*
X141701624Y-52257500D01*
%TO.N,/MDQ0*%
X142189858Y-53719600D02*
X151392400Y-53719600D01*
%TO.N,/MDQ6*%
X128316715Y-51207369D02*
X141079235Y-51207369D01*
%TO.N,/MCLK*%
X131357439Y-54341600D02*
X131523340Y-54175700D01*
%TO.N,/MDQ5*%
X142307228Y-50795450D02*
X142703228Y-51191450D01*
%TO.N,/MA11*%
X137338400Y-57722000D02*
X137338400Y-56048849D01*
%TO.N,/MDQ1*%
X147127430Y-52471900D02*
X147644246Y-52471900D01*
%TO.N,/MA6*%
X134138400Y-57722000D02*
X134138400Y-56488474D01*
%TO.N,/DQM*%
X141286104Y-56187096D02*
X141728494Y-56187096D01*
%TO.N,/MA8*%
X135738400Y-57722000D02*
X135738400Y-56136174D01*
%TO.N,/MDQ2*%
X131908283Y-52605364D02*
X140028260Y-52605364D01*
%TO.N,/~{MBA0}*%
X125226380Y-54472313D02*
X125516067Y-54762000D01*
%TO.N,/MCLK*%
X139957055Y-53486800D02*
X140509278Y-54039023D01*
%TO.N,/~{MBA1}*%
X124754619Y-53913513D02*
X125457844Y-53913514D01*
%TO.N,/~{MRAS}*%
X138238639Y-54849500D02*
X139540112Y-54849500D01*
X121937010Y-55191450D02*
X122028110Y-55100350D01*
%TO.N,/MDQ7*%
X120588500Y-50762000D02*
X120959050Y-50391450D01*
%TO.N,/MCKE*%
X133141074Y-55013900D02*
X133527074Y-55399900D01*
%TO.N,/~{MBA1}*%
X125494730Y-53950400D02*
X131353509Y-53950400D01*
%TO.N,/MDQ3*%
X141443216Y-51633650D02*
X141960032Y-51633650D01*
%TO.N,/~{MRAS}*%
X131204107Y-55285194D02*
X131754801Y-54734500D01*
%TO.N,/MA8*%
X135738400Y-56136174D02*
X136236824Y-55637750D01*
%TO.N,/MDQ1*%
X146438530Y-53160800D02*
X147127430Y-52471900D01*
%TO.N,/~{MWE}*%
X129151454Y-52046565D02*
X141490689Y-52046565D01*
%TO.N,/~{MBA0}*%
X131639071Y-54455100D02*
X133393096Y-54455100D01*
%TO.N,/MDQ3*%
X120994700Y-52755800D02*
X123269988Y-52755800D01*
%TO.N,/MDQ5*%
X142703228Y-51191450D02*
X146268700Y-51191450D01*
%TO.N,/MDQ2*%
X142026140Y-53160750D02*
X142305590Y-53440200D01*
%TO.N,/MCLK*%
X134268524Y-54290700D02*
X134383525Y-54175700D01*
%TO.N,/MDQ5*%
X146268700Y-51191450D02*
X146362000Y-51098150D01*
X137885032Y-50609088D02*
X138203913Y-50927969D01*
%TO.N,/MCKE*%
X138007907Y-55013900D02*
X138122907Y-55128900D01*
%TO.N,/MCLK*%
X136788169Y-54175700D02*
X137477069Y-53486800D01*
%TO.N,/MDQ1*%
X123258920Y-53162000D02*
X123977403Y-52443517D01*
%TO.N,/MDQ3*%
X120588500Y-53162000D02*
X120994700Y-52755800D01*
X145062720Y-52703783D02*
X145228353Y-52538150D01*
%TO.N,/MDQ4*%
X141327485Y-51354250D02*
X142075764Y-51354250D01*
X121388500Y-52362000D02*
X121865783Y-51884717D01*
%TO.N,/MDQ1*%
X123977403Y-52443517D02*
X124957145Y-52443517D01*
%TO.N,/MDQ3*%
X128151644Y-52164117D02*
X128548594Y-51767167D01*
X123269988Y-52755800D02*
X123861672Y-52164117D01*
%TO.N,/~{MRAS}*%
X120959050Y-55191450D02*
X121937010Y-55191450D01*
%TO.N,/MDQ5*%
X141096023Y-50795450D02*
X142307228Y-50795450D01*
%TO.N,/~{MRAS}*%
X133277364Y-54734500D02*
X133392364Y-54849500D01*
X124228390Y-55117155D02*
X124593832Y-54751713D01*
%TO.N,/MDQ2*%
X142305590Y-53440200D02*
X147041388Y-53440200D01*
%TO.N,/MDQ7*%
X151956450Y-50391450D02*
X151990000Y-50425000D01*
%TO.N,/MDQ1*%
X131792554Y-52325964D02*
X140606744Y-52325964D01*
%TO.N,/~{MBA0}*%
X137391027Y-54455100D02*
X137735477Y-54110650D01*
%TO.N,/MDQ4*%
X128432446Y-51486769D02*
X141194966Y-51486769D01*
%TO.N,/MDQ5*%
X138203913Y-50927969D02*
X140963503Y-50927969D01*
%TO.N,/MDQ2*%
X140583646Y-53160750D02*
X142026140Y-53160750D01*
%TO.N,/MCLK*%
X121008900Y-54341600D02*
X124213683Y-54341600D01*
%TO.N,/MDQ0*%
X151392400Y-53719600D02*
X151393000Y-53719000D01*
%TO.N,GND*%
X142138400Y-57722000D02*
X142138400Y-56659448D01*
%TO.N,/MCKE*%
X134751274Y-55013900D02*
X138007907Y-55013900D01*
%TO.N,/MCLK*%
X125490798Y-54341600D02*
X131357439Y-54341600D01*
X133623827Y-54290700D02*
X134268524Y-54290700D01*
%TO.N,/~{MBA1}*%
X131680995Y-53622914D02*
X136614087Y-53622914D01*
%TO.N,/DQM*%
X141530655Y-55989257D02*
X141728494Y-56187096D01*
%TO.N,/~{MRAS}*%
X123850628Y-55135797D02*
X124228390Y-55135797D01*
%TO.N,/MDQ1*%
X142141872Y-52881350D02*
X142421322Y-53160800D01*
%TO.N,/MDQ2*%
X124093134Y-52722917D02*
X124841413Y-52722917D01*
%TO.N,/~{MRAS}*%
X134614984Y-54734500D02*
X138123639Y-54734500D01*
%TO.N,/MDQ0*%
X123249182Y-53962000D02*
X124208865Y-53002317D01*
%TO.N,/MDQ7*%
X135632244Y-50329688D02*
X138000764Y-50329688D01*
%TO.N,/MDQ0*%
X125610461Y-53671000D02*
X131237777Y-53671000D01*
%TO.N,/~{MRAS}*%
X138123639Y-54734500D02*
X138238639Y-54849500D01*
%TO.N,/MDQ3*%
X141960032Y-51633650D02*
X143030165Y-52703783D01*
%TO.N,/MDQ5*%
X120588500Y-51562000D02*
X120959050Y-51191450D01*
X128200984Y-50927969D02*
X135429093Y-50927969D01*
%TO.N,/MDQ6*%
X121388500Y-51562000D02*
X127962085Y-51562000D01*
%TO.N,/MDQ1*%
X141162130Y-52881350D02*
X142141872Y-52881350D01*
%TO.N,/MDQ3*%
X123861672Y-52164117D02*
X128151644Y-52164117D01*
%TO.N,/MDQ4*%
X141194966Y-51486769D02*
X141327485Y-51354250D01*
%TO.N,/MDQ0*%
X131928167Y-52980610D02*
X140008374Y-52980610D01*
%TO.N,/MDQ7*%
X135570482Y-50391450D02*
X135632244Y-50329688D01*
%TO.N,/MDQ3*%
X143030165Y-52703783D02*
X145062720Y-52703783D01*
%TO.N,/MDQ2*%
X123224600Y-53591450D02*
X124093134Y-52722917D01*
%TO.N,/DQM*%
X140538400Y-56934800D02*
X141286104Y-56187096D01*
X140538400Y-57722000D02*
X140538400Y-56934800D01*
%TO.N,/MDQ0*%
X141910408Y-53440150D02*
X142189858Y-53719600D01*
%TO.N,/MCLK*%
X131523340Y-54175700D02*
X133508828Y-54175700D01*
%TO.N,/MDQ4*%
X144152668Y-52362000D02*
X144382718Y-52131950D01*
%TO.N,/MDQ6*%
X141211754Y-51074850D02*
X142191496Y-51074850D01*
%TO.N,/MDQ2*%
X125726193Y-53391600D02*
X131122047Y-53391600D01*
X140028260Y-52605364D02*
X140583646Y-53160750D01*
%TO.N,/~{MRAS}*%
X120588500Y-55562000D02*
X120959050Y-55191450D01*
%TO.N,/MDQ3*%
X129035723Y-51767165D02*
X141309701Y-51767165D01*
%TO.N,/MDQ6*%
X142624746Y-51508100D02*
X144641126Y-51508100D01*
%TO.N,/MDQ3*%
X128548594Y-51767167D02*
X129035720Y-51767167D01*
%TO.N,/~{MRAS}*%
X124593832Y-54751713D02*
X125110648Y-54751713D01*
%TO.N,/MDQ2*%
X120588500Y-53962000D02*
X120959050Y-53591450D01*
%TO.N,/MDQ4*%
X143083513Y-52362000D02*
X144152668Y-52362000D01*
%TO.N,/~{MRAS}*%
X125110648Y-54751713D02*
X125644129Y-55285194D01*
%TO.N,/MCLK*%
X137477069Y-53486800D02*
X139957055Y-53486800D01*
%TO.N,/MDQ6*%
X142191496Y-51074850D02*
X142624746Y-51508100D01*
%TO.N,/MA11*%
X137338400Y-56048849D02*
X137749499Y-55637750D01*
%TO.N,/MCKE*%
X138122907Y-55128900D02*
X138740330Y-55128900D01*
%TO.N,/~{MBA0}*%
X124478101Y-54472313D02*
X125226380Y-54472313D01*
%TO.N,/MDQ0*%
X140467914Y-53440150D02*
X141910408Y-53440150D01*
%TO.N,/~{MBA0}*%
X124188413Y-54762000D02*
X124478101Y-54472313D01*
%TO.N,/~{MRAS}*%
X122028110Y-55100350D02*
X123815181Y-55100350D01*
%TO.N,/~{MBA0}*%
X133393096Y-54455100D02*
X133508095Y-54570100D01*
%TO.N,/MCKE*%
X131312033Y-55572400D02*
X131870533Y-55013900D01*
%TO.N,/MDQ2*%
X131122047Y-53391600D02*
X131908283Y-52605364D01*
%TO.N,GND*%
X131738400Y-57722000D02*
X131738400Y-56028291D01*
%TO.N,/~{MRAS}*%
X133392364Y-54849500D02*
X134499984Y-54849500D01*
%TO.N,/MDQ7*%
X138062525Y-50391450D02*
X151956450Y-50391450D01*
%TO.N,/MDQ0*%
X125573576Y-53634114D02*
X125610461Y-53671000D01*
%TO.N,/MDQ6*%
X141079235Y-51207369D02*
X141211754Y-51074850D01*
%TO.N,/MDQ1*%
X148334346Y-53162000D02*
X149842000Y-53162000D01*
%TO.N,/MA4*%
X132538400Y-57722000D02*
X132538400Y-56002574D01*
%TO.N,/~{MBA0}*%
X125516067Y-54762000D02*
X131332171Y-54762000D01*
%TO.N,GND*%
X142138400Y-56659448D02*
X142352344Y-56445504D01*
%TO.N,/MDQ1*%
X125588942Y-53075314D02*
X125805039Y-53075314D01*
%TO.N,GND*%
X142352344Y-56445504D02*
X142352344Y-55403344D01*
X146138400Y-57722000D02*
X146138400Y-57102139D01*
X145815168Y-56262091D02*
X146138400Y-55938859D01*
X146138400Y-57102139D02*
X145815168Y-56778907D01*
X146138400Y-55662658D02*
X145815168Y-55339426D01*
X145815168Y-56778907D02*
X145815168Y-56262091D01*
X146138400Y-55938859D02*
X146138400Y-55662658D01*
%TO.N,/~{MWE}*%
X140538400Y-44634600D02*
X140585000Y-44588000D01*
X140538400Y-62999678D02*
X140538400Y-60566000D01*
X140538400Y-46266000D02*
X140538400Y-44634600D01*
%TO.N,/~{MCAS}*%
X139738400Y-46266000D02*
X139738400Y-47751250D01*
X139738400Y-47751250D02*
X139901150Y-47914000D01*
%TO.N,/~{MWE}*%
X140935683Y-63396961D02*
X140538400Y-62999678D01*
%TO.N,GND*%
X152538400Y-57722000D02*
X152538400Y-56677708D01*
X150938400Y-57722000D02*
X150938400Y-55339250D01*
%TO.N,/MDQ7*%
X151738400Y-57722000D02*
X151738400Y-56595450D01*
%TO.N,GND*%
X152538400Y-56677708D02*
X152609000Y-56607108D01*
%TO.N,/MDQ7*%
X151738400Y-56595450D02*
X152061850Y-56272000D01*
%TO.N,GND*%
X152609000Y-56607108D02*
X152609000Y-55152000D01*
X150938400Y-55339250D02*
X150784150Y-55185000D01*
%TO.N,VCC*%
X152538400Y-62181574D02*
X152706880Y-62350054D01*
%TO.N,/MDQ0*%
X151738400Y-46266000D02*
X151738400Y-47842400D01*
X151738400Y-47842400D02*
X151873000Y-47977000D01*
%TO.N,VCC*%
X150938400Y-62077108D02*
X150726928Y-62288580D01*
X150938400Y-60566000D02*
X150938400Y-62077108D01*
X152538400Y-60566000D02*
X152538400Y-62181574D01*
%TO.N,/MDQ0*%
X151393000Y-63433000D02*
X151738400Y-63087600D01*
X151738400Y-63087600D02*
X151738400Y-60566000D01*
%TO.N,/MDQ1*%
X149338400Y-60566000D02*
X149338400Y-61709400D01*
X149338400Y-61709400D02*
X149892000Y-62263000D01*
X149562000Y-48397000D02*
X149338400Y-48173400D01*
X149338400Y-48173400D02*
X149338400Y-46266000D01*
%TO.N,/MDQ5*%
X146938400Y-57019881D02*
X146439018Y-56520499D01*
X146938400Y-57722000D02*
X146938400Y-57019881D01*
%TO.N,/MDQ2*%
X146938400Y-47859400D02*
X146951000Y-47872000D01*
X146938400Y-46266000D02*
X146938400Y-47859400D01*
X147296000Y-62128000D02*
X146938400Y-61770400D01*
X146938400Y-61770400D02*
X146938400Y-60566000D01*
%TO.N,/MDQ3*%
X144538400Y-60566000D02*
X144538400Y-61666400D01*
X144538400Y-61666400D02*
X145060000Y-62188000D01*
X144715000Y-48082000D02*
X144538400Y-47905400D01*
X144538400Y-47905400D02*
X144538400Y-46266000D01*
%TO.N,/~{MCAS}*%
X139863000Y-62083000D02*
X139738400Y-61958400D01*
X139738400Y-61958400D02*
X139738400Y-60566000D01*
%TO.N,/~{MRAS}*%
X139112000Y-47914000D02*
X138938400Y-47740400D01*
X138938400Y-47740400D02*
X138938400Y-46266000D01*
%TO.N,/~{MCS1}*%
X138138400Y-46266000D02*
X138138400Y-47880400D01*
X138138400Y-47880400D02*
X138200000Y-47942000D01*
%TO.N,/~{MCS2}*%
X138138400Y-64144600D02*
X137925000Y-64358000D01*
X138138400Y-60566000D02*
X138138400Y-64144600D01*
%TO.N,/~{MBA0}*%
X137338400Y-44717600D02*
X137394000Y-44662000D01*
X137338400Y-46266000D02*
X137338400Y-44717600D01*
%TO.N,/~{MBA1}*%
X136581000Y-48001000D02*
X136538400Y-47958400D01*
X136538400Y-60566000D02*
X136538400Y-63279400D01*
X136538400Y-63279400D02*
X136595000Y-63336000D01*
X136538400Y-47958400D02*
X136538400Y-46266000D01*
%TO.N,/MA10*%
X135738400Y-44668600D02*
X135814000Y-44593000D01*
X135738400Y-46266000D02*
X135738400Y-44668600D01*
%TO.N,/MA0*%
X134468000Y-48001000D02*
X134938400Y-47530600D01*
X134938400Y-47530600D02*
X134938400Y-46266000D01*
%TO.N,/MA2*%
X133338400Y-46266000D02*
X133338400Y-47796750D01*
%TO.N,/MA1*%
X134138400Y-44757400D02*
X134138400Y-46266000D01*
%TO.N,/MA3*%
X132538400Y-46266000D02*
X132538400Y-47915442D01*
%TO.N,/MA1*%
X133794000Y-44413000D02*
X134138400Y-44757400D01*
%TO.N,/MA2*%
X133338400Y-47796750D02*
X133170150Y-47965000D01*
%TO.N,/MA3*%
X132538400Y-47915442D02*
X132330883Y-48122959D01*
%TO.N,/MDQ7*%
X151738400Y-73816400D02*
X151738400Y-72022000D01*
X151764000Y-73842000D02*
X151738400Y-73816400D01*
%TO.N,/MDQ6*%
X149338400Y-72022000D02*
X149338400Y-73517400D01*
X149338400Y-73517400D02*
X149438000Y-73617000D01*
X149375000Y-56185000D02*
X149338400Y-56221600D01*
X149338400Y-56221600D02*
X149338400Y-57722000D01*
%TO.N,/MDQ5*%
X146938400Y-72022000D02*
X146938400Y-73593400D01*
X146938400Y-73593400D02*
X147037000Y-73692000D01*
%TO.N,/MDQ4*%
X144538400Y-72022000D02*
X144538400Y-70818400D01*
X144538400Y-70818400D02*
X144436000Y-70716000D01*
X144386000Y-56235000D02*
X144538400Y-56387400D01*
X144538400Y-56387400D02*
X144538400Y-57722000D01*
%TO.N,/DQM*%
X140534000Y-70704000D02*
X140534000Y-72017600D01*
X140534000Y-72017600D02*
X140538400Y-72022000D01*
%TO.N,/MCLK*%
X139738400Y-72022000D02*
X139738400Y-73647400D01*
X139738400Y-73647400D02*
X139771000Y-73680000D01*
%TO.N,/MCKE*%
X138933000Y-72016600D02*
X138938400Y-72022000D01*
X138933000Y-70741000D02*
X138933000Y-72016600D01*
%TO.N,/MA12*%
X138138400Y-72022000D02*
X138138400Y-73773400D01*
X138138400Y-73773400D02*
X138145000Y-73780000D01*
%TO.N,/MA11*%
X137357000Y-72003400D02*
X137338400Y-72022000D01*
X137357000Y-70766000D02*
X137357000Y-72003400D01*
%TO.N,/MA9*%
X136538400Y-72022000D02*
X136538400Y-73685400D01*
X136538400Y-73685400D02*
X136595000Y-73742000D01*
%TO.N,/MA8*%
X135707000Y-71990600D02*
X135738400Y-72022000D01*
X135707000Y-70741000D02*
X135707000Y-71990600D01*
%TO.N,/MA7*%
X134938400Y-72022000D02*
X134938400Y-73812400D01*
X134938400Y-73812400D02*
X135006000Y-73880000D01*
%TO.N,/MA6*%
X134119000Y-72002600D02*
X134138400Y-72022000D01*
X134119000Y-70716000D02*
X134119000Y-72002600D01*
%TO.N,/MA5*%
X133338400Y-72022000D02*
X133338400Y-73800400D01*
X133338400Y-73800400D02*
X133343000Y-73805000D01*
%TO.N,/MA4*%
X132538400Y-72022000D02*
X132538400Y-70758600D01*
X132538400Y-70758600D02*
X132568000Y-70729000D01*
%TO.N,GND*%
X72848000Y-54533000D02*
X72390000Y-54991000D01*
X143738400Y-46266000D02*
X143738400Y-44643400D01*
X71958000Y-72568000D02*
X72009000Y-72517000D01*
X68911000Y-80568000D02*
X68834000Y-80645000D01*
X98722000Y-73068000D02*
X98679000Y-73025000D01*
X92531001Y-51435000D02*
X92710000Y-51435000D01*
X122455300Y-63028800D02*
X122455300Y-63042000D01*
X148538400Y-60566000D02*
X148538400Y-62247400D01*
X100560500Y-75568000D02*
X98682000Y-75568000D01*
X146067550Y-58580050D02*
X146138400Y-58509200D01*
X115786400Y-55562000D02*
X115392200Y-55956200D01*
X84848000Y-51677000D02*
X85090000Y-51435000D01*
X72313000Y-55068000D02*
X72390000Y-54991000D01*
X144937150Y-58580050D02*
X146067550Y-58580050D01*
X89348000Y-52855500D02*
X89348000Y-51622000D01*
X68846000Y-68568000D02*
X68834000Y-68580000D01*
X113548500Y-57002000D02*
X114173000Y-57002000D01*
X84348000Y-83517999D02*
X85158001Y-84328000D01*
X116572800Y-55562000D02*
X116179600Y-55168800D01*
X98348000Y-81357000D02*
X98425000Y-81280000D01*
X113808000Y-42316000D02*
X114842000Y-42316000D01*
X152538400Y-73538400D02*
X152580000Y-73580000D01*
X77348000Y-51440000D02*
X77343000Y-51435000D01*
X122453400Y-48897100D02*
X122453400Y-48895000D01*
X114988500Y-57162000D02*
X114999200Y-57162000D01*
X116586400Y-54762000D02*
X116179600Y-55168800D01*
X102809000Y-79568000D02*
X102870000Y-79629000D01*
X72848000Y-82780500D02*
X72848000Y-84378000D01*
X122211600Y-55562000D02*
X122224800Y-55575200D01*
X99917092Y-80568000D02*
X99612450Y-80263358D01*
X72004000Y-76068000D02*
X72009000Y-76073000D01*
X142138400Y-73727400D02*
X142139000Y-73728000D01*
X84348000Y-82780500D02*
X84348000Y-83517999D01*
X114828500Y-57002000D02*
X114988500Y-57162000D01*
X148538400Y-46266000D02*
X148538400Y-44626600D01*
X142138400Y-72022000D02*
X142138400Y-73727400D01*
X70635500Y-65068000D02*
X68878000Y-65068000D01*
X100560500Y-79568000D02*
X102809000Y-79568000D01*
X99612450Y-79778551D02*
X99823001Y-79568000D01*
X109388500Y-49901700D02*
X108737400Y-49250600D01*
X100560500Y-72068000D02*
X99636000Y-72068000D01*
X120588500Y-52362000D02*
X120588500Y-52360100D01*
X114988500Y-56365300D02*
X115392200Y-56769000D01*
X148538400Y-44626600D02*
X148543000Y-44622000D01*
X84848000Y-52855500D02*
X84848000Y-51677000D01*
X152538400Y-72022000D02*
X152538400Y-73538400D01*
X98682000Y-75568000D02*
X98552000Y-75438000D01*
X118186200Y-62458600D02*
X117525800Y-63119000D01*
X85158001Y-84328000D02*
X85344000Y-84328000D01*
X116588500Y-55562000D02*
X116572800Y-55562000D01*
X68839000Y-59568000D02*
X68834000Y-59563000D01*
X99612450Y-80263358D02*
X99612450Y-79778551D01*
X86348000Y-54344000D02*
X86487000Y-54483000D01*
X70635500Y-72568000D02*
X71958000Y-72568000D01*
X116572600Y-57162000D02*
X116179600Y-56769000D01*
X94848000Y-81555000D02*
X95123000Y-81280000D01*
X86848000Y-83546000D02*
X87630000Y-84328000D01*
X114988500Y-54762000D02*
X114988500Y-54759700D01*
X115788500Y-56362000D02*
X115788500Y-56377900D01*
X89348000Y-51622000D02*
X89662000Y-51308000D01*
X115788500Y-53962000D02*
X115786200Y-53962000D01*
X115788500Y-57162000D02*
X115788500Y-57160100D01*
X150938400Y-72022000D02*
X150938400Y-73606600D01*
X109388500Y-49962000D02*
X109388500Y-49901700D01*
X116586600Y-56362000D02*
X116179600Y-56769000D01*
X98348000Y-52855500D02*
X99290500Y-52855500D01*
X121388500Y-55562000D02*
X122211600Y-55562000D01*
X121388500Y-49962000D02*
X122453400Y-48897100D01*
X100560500Y-73068000D02*
X98722000Y-73068000D01*
X121388500Y-61962000D02*
X122455300Y-63028800D01*
X68878000Y-65068000D02*
X68834000Y-65024000D01*
X114988500Y-54759700D02*
X115392200Y-54356000D01*
X76348000Y-52855500D02*
X76348000Y-52118001D01*
X114998200Y-53962000D02*
X115392200Y-54356000D01*
X99636000Y-72068000D02*
X98679000Y-73025000D01*
X150938400Y-73606600D02*
X150905000Y-73640000D01*
X114999200Y-57162000D02*
X115392200Y-56769000D01*
X93348000Y-81664000D02*
X92964000Y-81280000D01*
X146138400Y-73658600D02*
X146138000Y-73659000D01*
X115786200Y-53962000D02*
X115392200Y-54356000D01*
X116588500Y-57162000D02*
X116572600Y-57162000D01*
X70635500Y-59568000D02*
X68839000Y-59568000D01*
X118188500Y-62365968D02*
X118186200Y-62368268D01*
X120588500Y-59562000D02*
X120572800Y-59562000D01*
X131738400Y-72022000D02*
X131738400Y-73739400D01*
X148538400Y-62247400D02*
X148567000Y-62276000D01*
X99823001Y-79568000D02*
X100560500Y-79568000D01*
X118188500Y-61962000D02*
X118188500Y-62365968D01*
X76348000Y-52118001D02*
X77031001Y-51435000D01*
X72848000Y-52855500D02*
X72848000Y-54533000D01*
X117688800Y-63282000D02*
X117525800Y-63119000D01*
X114998000Y-55562000D02*
X115392200Y-55956200D01*
X86348000Y-52855500D02*
X86348000Y-54344000D01*
X98348000Y-82780500D02*
X98348000Y-81357000D01*
X120588500Y-52360100D02*
X120954800Y-51993800D01*
X72848000Y-84378000D02*
X72771000Y-84455000D01*
X143738400Y-60566000D02*
X143738400Y-59778800D01*
X70635500Y-80568000D02*
X68911000Y-80568000D01*
X82348000Y-52855500D02*
X82348000Y-54304000D01*
X76848000Y-81394000D02*
X77089000Y-81153000D01*
X100560500Y-78068000D02*
X98716000Y-78068000D01*
X115788500Y-57160100D02*
X116179600Y-56769000D01*
X86848000Y-82780500D02*
X86848000Y-83546000D01*
X143738400Y-44643400D02*
X143736000Y-44641000D01*
X114173000Y-57002000D02*
X114828500Y-57002000D01*
X70635500Y-76068000D02*
X72004000Y-76068000D01*
X131738400Y-73739400D02*
X131757000Y-73758000D01*
X113388500Y-57162000D02*
X113548500Y-57002000D01*
X114188500Y-57162000D02*
X114188500Y-57017500D01*
X114988500Y-55562000D02*
X114998000Y-55562000D01*
X99290500Y-52855500D02*
X99314000Y-52832000D01*
X115788500Y-56377900D02*
X116179600Y-56769000D01*
X146138400Y-58509200D02*
X146138400Y-57722000D01*
X98716000Y-78068000D02*
X98679000Y-78105000D01*
X94848000Y-82780500D02*
X94848000Y-81555000D01*
X82348000Y-54304000D02*
X82169000Y-54483000D01*
X116588500Y-54762000D02*
X116586400Y-54762000D01*
X114988500Y-53962000D02*
X114998200Y-53962000D01*
X90348000Y-82780500D02*
X90348000Y-83744000D01*
X116588500Y-56362000D02*
X116586600Y-56362000D01*
X93348000Y-82780500D02*
X93348000Y-81664000D01*
X146138400Y-72022000D02*
X146138400Y-73658600D01*
X143738400Y-59778800D02*
X144937150Y-58580050D01*
X91848000Y-52855500D02*
X91848000Y-52118001D01*
X117688800Y-65582800D02*
X117688800Y-63282000D01*
X76848000Y-82780500D02*
X76848000Y-81394000D01*
X115788500Y-55562000D02*
X115786400Y-55562000D01*
X118186200Y-62368268D02*
X118186200Y-62458600D01*
X114988500Y-56362000D02*
X114988500Y-56365300D01*
X77031001Y-51435000D02*
X77343000Y-51435000D01*
X114188500Y-57017500D02*
X114173000Y-57002000D01*
X100560500Y-80568000D02*
X99917092Y-80568000D01*
X120572800Y-59562000D02*
X120192800Y-59182000D01*
X91848000Y-52118001D02*
X92531001Y-51435000D01*
X114842000Y-42316000D02*
X114874800Y-42283200D01*
X90348000Y-83744000D02*
X91059000Y-84455000D01*
X77348000Y-52855500D02*
X77348000Y-51440000D01*
X70635500Y-55068000D02*
X72313000Y-55068000D01*
X70635500Y-68568000D02*
X68846000Y-68568000D01*
%TO.N,VCC*%
X76348000Y-82780500D02*
X76348000Y-81047000D01*
X85348000Y-52855500D02*
X85348000Y-54360000D01*
X68996000Y-73568000D02*
X68961000Y-73533000D01*
X117388500Y-57162000D02*
X117388500Y-57165100D01*
X113397800Y-55562000D02*
X113792000Y-55956200D01*
X97348000Y-82780500D02*
X97348000Y-81214000D01*
X84348000Y-54590000D02*
X84328000Y-54610000D01*
X81348000Y-54542000D02*
X81280000Y-54610000D01*
X70635500Y-64068000D02*
X70635500Y-64568000D01*
X114172200Y-57962000D02*
X113792000Y-57581800D01*
X146138400Y-44766400D02*
X146111000Y-44739000D01*
X70635500Y-65568000D02*
X70635500Y-66068000D01*
X148538400Y-72022000D02*
X148538400Y-73646400D01*
X76848000Y-54724000D02*
X76835000Y-54737000D01*
X150938400Y-44685400D02*
X150933000Y-44680000D01*
X114186200Y-55562000D02*
X113792000Y-55956200D01*
X95348000Y-82780500D02*
X95348000Y-82043001D01*
X146138400Y-59778800D02*
X147337150Y-58580050D01*
X148538400Y-58203550D02*
X148538400Y-57722000D01*
X117335000Y-53962000D02*
X116967000Y-53594000D01*
X142138400Y-59997400D02*
X142138400Y-60566000D01*
X96238001Y-81153000D02*
X97409000Y-81153000D01*
X84848000Y-82780500D02*
X84848000Y-81395000D01*
X101912000Y-80068000D02*
X102362000Y-80518000D01*
X89348000Y-82780500D02*
X89348000Y-81213000D01*
X99823001Y-69068000D02*
X98679000Y-67923999D01*
X102413000Y-72568000D02*
X102489000Y-72644000D01*
X89348000Y-81213000D02*
X89408000Y-81153000D01*
X77848000Y-54607000D02*
X77851000Y-54610000D01*
X143738400Y-57722000D02*
X143738400Y-58397400D01*
X90848000Y-82780500D02*
X90848000Y-81364000D01*
X113388500Y-57962000D02*
X113411800Y-57962000D01*
X131738400Y-44726600D02*
X131773000Y-44692000D01*
X100560500Y-69068000D02*
X99823001Y-69068000D01*
X114188500Y-56362000D02*
X114188500Y-56352700D01*
X143738400Y-73645600D02*
X143715000Y-73669000D01*
X114188500Y-57962000D02*
X114172200Y-57962000D01*
X142138400Y-60566000D02*
X142138400Y-62318400D01*
X100560500Y-72568000D02*
X102413000Y-72568000D01*
X70635500Y-56068000D02*
X70635500Y-55568000D01*
X117388500Y-57165100D02*
X117779800Y-57556400D01*
X114188500Y-53962000D02*
X114185400Y-53962000D01*
X81348000Y-52855500D02*
X81348000Y-54542000D01*
X95348000Y-52855500D02*
X95848000Y-52855500D01*
X146138400Y-60566000D02*
X146138400Y-59778800D01*
X148538400Y-58247400D02*
X148538400Y-57722000D01*
X93848000Y-81285000D02*
X93853000Y-81280000D01*
X82848000Y-54527000D02*
X82931000Y-54610000D01*
X90848000Y-81364000D02*
X91059000Y-81153000D01*
X117388500Y-57962000D02*
X117388500Y-57947700D01*
X147337150Y-58580050D02*
X148161900Y-58580050D01*
X74348000Y-82780500D02*
X74348000Y-84508000D01*
X114188500Y-55562000D02*
X114186200Y-55562000D01*
X82848000Y-52855500D02*
X82848000Y-54527000D01*
X84848000Y-81395000D02*
X85090000Y-81153000D01*
X70635500Y-64568000D02*
X72338000Y-64568000D01*
X113411800Y-57962000D02*
X113792000Y-57581800D01*
X97348000Y-81214000D02*
X97409000Y-81153000D01*
X103222000Y-77568000D02*
X103251000Y-77597000D01*
X142138400Y-46266000D02*
X142138400Y-44645600D01*
X117388500Y-57947700D02*
X117779800Y-57556400D01*
X142138400Y-62318400D02*
X142145000Y-62325000D01*
X80848000Y-81331000D02*
X81026000Y-81153000D01*
X85348000Y-54360000D02*
X85471000Y-54483000D01*
X77348000Y-84704000D02*
X77343000Y-84709000D01*
X69020000Y-72068000D02*
X68961000Y-72009000D01*
X117388500Y-53962000D02*
X117335000Y-53962000D01*
X113388500Y-56359700D02*
X113792000Y-55956200D01*
X100560500Y-77568000D02*
X103222000Y-77568000D01*
X98679000Y-67923999D02*
X98679000Y-67564000D01*
X68892000Y-55568000D02*
X68834000Y-55626000D01*
X70635500Y-77068000D02*
X70635500Y-76568000D01*
X143738400Y-58397400D02*
X142138400Y-59997400D01*
X74348000Y-84508000D02*
X74422000Y-84582000D01*
X70635500Y-55568000D02*
X68892000Y-55568000D01*
X150938400Y-59778800D02*
X149739650Y-58580050D01*
X113398600Y-53962000D02*
X113792000Y-53568600D01*
X113388500Y-56362000D02*
X113388500Y-56359700D01*
X95348000Y-82043001D02*
X96238001Y-81153000D01*
X116588500Y-53962000D02*
X116599000Y-53962000D01*
X149739650Y-58580050D02*
X148871050Y-58580050D01*
X113388500Y-53962000D02*
X113398600Y-53962000D01*
X100560500Y-80068000D02*
X101912000Y-80068000D01*
X77348000Y-82780500D02*
X77348000Y-84704000D01*
X70635500Y-72068000D02*
X69020000Y-72068000D01*
X93848000Y-82780500D02*
X93848000Y-81285000D01*
X73348000Y-81211000D02*
X73406000Y-81153000D01*
X77848000Y-52855500D02*
X77848000Y-54607000D01*
X80848000Y-82780500D02*
X80848000Y-81331000D01*
X148538400Y-73646400D02*
X148601000Y-73709000D01*
X117388500Y-55562000D02*
X117388500Y-53962000D01*
X113388500Y-55562000D02*
X113397800Y-55562000D01*
X70635500Y-76568000D02*
X68974000Y-76568000D01*
X148538400Y-55135600D02*
X148620000Y-55054000D01*
X148161900Y-58580050D02*
X148538400Y-58203550D01*
X148871050Y-58580050D02*
X148538400Y-58247400D01*
X131738400Y-46266000D02*
X131738400Y-44726600D01*
X100560500Y-76068000D02*
X102357000Y-76068000D01*
X70635500Y-73568000D02*
X68996000Y-73568000D01*
X73348000Y-82780500D02*
X73348000Y-81211000D01*
X68974000Y-76568000D02*
X68961000Y-76581000D01*
X76348000Y-81047000D02*
X76327000Y-81026000D01*
X143738400Y-72022000D02*
X143738400Y-73645600D01*
X117388500Y-56362000D02*
X117388500Y-57162000D01*
X102357000Y-76068000D02*
X102362000Y-76073000D01*
X146138400Y-46266000D02*
X146138400Y-44766400D01*
X72378000Y-67068000D02*
X72390000Y-67056000D01*
X70635500Y-67068000D02*
X72378000Y-67068000D01*
X70635500Y-66068000D02*
X71402000Y-66068000D01*
X150938400Y-60566000D02*
X150938400Y-59778800D01*
X72338000Y-64568000D02*
X72390000Y-64516000D01*
X150938400Y-46266000D02*
X150938400Y-44685400D01*
X116599000Y-53962000D02*
X116967000Y-53594000D01*
X142138400Y-44645600D02*
X142151000Y-44633000D01*
X76848000Y-52855500D02*
X76848000Y-54724000D01*
X71402000Y-66068000D02*
X72390000Y-67056000D01*
X148538400Y-57722000D02*
X148538400Y-55135600D01*
X84348000Y-52855500D02*
X84348000Y-54590000D01*
X114185400Y-53962000D02*
X113792000Y-53568600D01*
X114188500Y-56352700D02*
X113792000Y-55956200D01*
%TO.N,/A19*%
X95680151Y-50785850D02*
X106485186Y-50785850D01*
X109295064Y-53591450D02*
X109817950Y-53591450D01*
X106485186Y-50785850D02*
X108988537Y-53289200D01*
X108988537Y-53289200D02*
X108992814Y-53289200D01*
X94348000Y-52118001D02*
X95680151Y-50785850D01*
X109817950Y-53591450D02*
X110188500Y-53962000D01*
X94348000Y-52855500D02*
X94348000Y-52118001D01*
X108992814Y-53289200D02*
X109295064Y-53591450D01*
%TO.N,/A28*%
X109794500Y-57568000D02*
X110188500Y-57962000D01*
X100560500Y-57568000D02*
X109794500Y-57568000D01*
%TO.N,/A20*%
X108875668Y-53568600D02*
X109269068Y-53962000D01*
X106370454Y-51066250D02*
X108872806Y-53568600D01*
X109269068Y-53962000D02*
X109388500Y-53962000D01*
X94848000Y-52118001D02*
X95899751Y-51066250D01*
X94848000Y-52855500D02*
X94848000Y-52118001D01*
X108872806Y-53568600D02*
X108875668Y-53568600D01*
X95899751Y-51066250D02*
X106370454Y-51066250D01*
%TO.N,/A18*%
X109285100Y-53058600D02*
X109388500Y-53162000D01*
X95460551Y-50505450D02*
X106602749Y-50505450D01*
X106602749Y-50505450D02*
X109155899Y-53058600D01*
X93848000Y-52855500D02*
X93848000Y-52118001D01*
X93848000Y-52118001D02*
X95460551Y-50505450D01*
X109155899Y-53058600D02*
X109285100Y-53058600D01*
%TO.N,/A27*%
X109294500Y-57068000D02*
X109388500Y-57162000D01*
X100560500Y-57068000D02*
X109294500Y-57068000D01*
%TO.N,/A14*%
X107486313Y-49383850D02*
X109293913Y-51191450D01*
X91082151Y-49383850D02*
X107486313Y-49383850D01*
X88348000Y-51739742D02*
X89403592Y-50684150D01*
X89403592Y-50684150D02*
X89781851Y-50684150D01*
X88348000Y-52855500D02*
X88348000Y-51739742D01*
X109293913Y-51191450D02*
X109817950Y-51191450D01*
X109817950Y-51191450D02*
X110188500Y-51562000D01*
X89781851Y-50684150D02*
X91082151Y-49383850D01*
%TO.N,/A16*%
X90348000Y-52855500D02*
X90348000Y-52118001D01*
X106971150Y-49944650D02*
X109388500Y-52362000D01*
X92521351Y-49944650D02*
X106971150Y-49944650D01*
X90348000Y-52118001D02*
X92521351Y-49944650D01*
%TO.N,/A17*%
X92654851Y-50811150D02*
X93240951Y-50225050D01*
X92451592Y-50811150D02*
X92654851Y-50811150D01*
X109271630Y-52779200D02*
X109805700Y-52779200D01*
X109805700Y-52779200D02*
X110188500Y-53162000D01*
X91348000Y-51914742D02*
X92451592Y-50811150D01*
X91348000Y-52855500D02*
X91348000Y-51914742D01*
X106717480Y-50225050D02*
X109271630Y-52779200D01*
X93240951Y-50225050D02*
X106717480Y-50225050D01*
%TO.N,/D5*%
X110988500Y-62083997D02*
X110988500Y-61962000D01*
X100560500Y-68068000D02*
X105004497Y-68068000D01*
X105004497Y-68068000D02*
X110988500Y-62083997D01*
%TO.N,/A15*%
X89848000Y-52118001D02*
X92301751Y-49664250D01*
X107264476Y-49664250D02*
X109162226Y-51562000D01*
X109162226Y-51562000D02*
X109388500Y-51562000D01*
X89848000Y-52855500D02*
X89848000Y-52118001D01*
X92301751Y-49664250D02*
X107264476Y-49664250D01*
%TO.N,/A13*%
X87848000Y-52855500D02*
X87848000Y-51844610D01*
X89287861Y-50404750D02*
X89561251Y-50404750D01*
X87848000Y-51844610D02*
X89287861Y-50404750D01*
X89561251Y-50404750D02*
X90862551Y-49103450D01*
X107729950Y-49103450D02*
X109388500Y-50762000D01*
X90862551Y-49103450D02*
X107729950Y-49103450D01*
%TO.N,+1V2*%
X116588500Y-57962000D02*
X116586800Y-57962000D01*
X113388500Y-54765300D02*
X113766600Y-55143400D01*
X114188500Y-54762000D02*
X114148000Y-54762000D01*
X116586800Y-57962000D02*
X116205000Y-58343800D01*
X113388500Y-54762000D02*
X113388500Y-54765300D01*
X113808000Y-43876000D02*
X114892800Y-43876000D01*
X115788500Y-54762000D02*
X115788500Y-54772500D01*
X115788500Y-54772500D02*
X115468400Y-55092600D01*
X115788500Y-57962000D02*
X115823200Y-57962000D01*
X114988500Y-57962000D02*
X115788500Y-57962000D01*
X115823200Y-57962000D02*
X116205000Y-58343800D01*
X114148000Y-54762000D02*
X113766600Y-55143400D01*
X114892800Y-43876000D02*
X114925600Y-43908800D01*
%TO.N,/MA2*%
X118174400Y-58762000D02*
X117856000Y-59080400D01*
X118188500Y-58762000D02*
X118174400Y-58762000D01*
%TO.N,/MA9*%
X119531370Y-59819130D02*
X119496323Y-59819130D01*
X119788500Y-59562000D02*
X119531370Y-59819130D01*
%TO.N,/~{MCS1}*%
X118988500Y-56347700D02*
X119303800Y-56032400D01*
X118988500Y-56362000D02*
X118988500Y-56347700D01*
%TO.N,/MA0*%
X117388500Y-58762000D02*
X117387000Y-58762000D01*
X117387000Y-58762000D02*
X117017800Y-59131200D01*
%TO.N,/~{MBA1}*%
X118988500Y-55562000D02*
X118988500Y-55560300D01*
X118988500Y-55560300D02*
X119380000Y-55168800D01*
%TO.N,/MA7*%
X121293913Y-61591450D02*
X121941850Y-61591450D01*
X121941850Y-61591450D02*
X122123200Y-61772800D01*
X120588500Y-61162000D02*
X120864463Y-61162000D01*
X120864463Y-61162000D02*
X121293913Y-61591450D01*
%TO.N,/MA8*%
X118988500Y-59562000D02*
X118731370Y-59819130D01*
X118731370Y-59819130D02*
X118731370Y-59854177D01*
%TO.N,/MA4*%
X119380000Y-61553500D02*
X119380000Y-62941200D01*
X118988500Y-61162000D02*
X119380000Y-61553500D01*
%TO.N,/MA11*%
X119788500Y-58762000D02*
X119800000Y-58762000D01*
X119800000Y-58762000D02*
X120091200Y-58470800D01*
%TO.N,/DQM*%
X119799600Y-55562000D02*
X120116600Y-55245000D01*
X119788500Y-55562000D02*
X119799600Y-55562000D01*
%TO.N,/MA10*%
X118988500Y-58762000D02*
X118988500Y-58760700D01*
X118988500Y-58760700D02*
X119354600Y-58394600D01*
%TO.N,/~{MCAS}*%
X119788500Y-57162000D02*
X119799800Y-57162000D01*
X119799800Y-57162000D02*
X120116600Y-56845200D01*
%TO.N,/MA1*%
X118187200Y-59562000D02*
X117830600Y-59918600D01*
X118188500Y-59562000D02*
X118187200Y-59562000D01*
%TO.N,/MA5*%
X118988500Y-60362000D02*
X118988500Y-60365300D01*
X118988500Y-60365300D02*
X119329200Y-60706000D01*
%TO.N,/MA12*%
X119788500Y-57962000D02*
X119531370Y-57704870D01*
X119531370Y-57704870D02*
X119531370Y-57669822D01*
%TO.N,/MA3*%
X118559050Y-63101750D02*
X118414800Y-63246000D01*
X118559050Y-61532550D02*
X118559050Y-63101750D01*
X118188500Y-61162000D02*
X118559050Y-61532550D01*
%TO.N,/~{MWE}*%
X118988500Y-57162000D02*
X118730781Y-56904281D01*
X118730781Y-56904281D02*
X118730781Y-56868731D01*
%TO.N,/MCKE*%
X119788500Y-54762000D02*
X119788500Y-54760300D01*
X119788500Y-54760300D02*
X120167400Y-54381400D01*
%TO.N,/MA6*%
X119798000Y-60362000D02*
X120091200Y-60655200D01*
X119788500Y-60362000D02*
X119798000Y-60362000D01*
%TO.N,/~{MCS2}*%
X119788500Y-56362000D02*
X119528293Y-56622207D01*
X119528293Y-56622207D02*
X119490676Y-56622207D01*
%TD*%
M02*
